<?xml version="1.0" encoding="utf-8"?>
<!-- Generator: Adobe Illustrator 23.0.6, SVG Export Plug-In . SVG Version: 6.00 Build 0)  -->
<svg version="1.1" id="Layer_1" xmlns="http://www.w3.org/2000/svg" xmlns:xlink="http://www.w3.org/1999/xlink" x="0px" y="0px"
	 viewBox="0 0 191 78" style="enable-background:new 0 0 191 78;" xml:space="preserve">
<style type="text/css">
	.st0{fill:#919497;}
</style>
<g>
	<path class="st0" d="M42.3,49.6c0-0.3-0.2-0.5-0.7-0.5h-1v1.1h1C42,50.1,42.3,49.9,42.3,49.6 M42.8,49.5c0,0.4-0.3,0.7-0.5,0.8
		c0.4,0.1,0.7,0.4,0.7,0.8c0,0.6-0.5,1-1.3,1h-1.6v-3.5h1.5C42.3,48.6,42.8,48.9,42.8,49.5 M42.5,51.1c0-0.3-0.3-0.5-0.8-0.5h-1.1
		v1.1h1.1C42.2,51.6,42.5,51.4,42.5,51.1"/>
	<path class="st0" d="M47.3,49.1h-1v1.3h1c0.5,0,0.8-0.2,0.8-0.7C48.1,49.3,47.9,49.1,47.3,49.1 M48.2,52.1l-0.9-1.3h-0.9v1.3h-0.5
		v-3.5h1.5c0.8,0,1.3,0.4,1.3,1.1c0,0.6-0.4,0.9-0.9,1l1,1.4H48.2z"/>
	<path class="st0" d="M53.1,49.2l-0.7,1.6h1.4L53.1,49.2z M54.9,52.1h-0.5L54,51.2h-1.8l-0.4,0.9h-0.5l1.6-3.5h0.5L54.9,52.1z"/>
	<polygon class="st0" points="60.2,48.6 60.7,48.6 60.7,52.1 60.3,52.1 58.2,49.4 58.2,52.1 57.7,52.1 57.7,48.6 58.2,48.6 
		60.2,51.2 	"/>
	<path class="st0" d="M65.1,49.1h-0.7v2.6h0.7c0.8,0,1.3-0.5,1.3-1.3S65.9,49.1,65.1,49.1 M65.1,52.1h-1.2v-3.5h1.2
		c1.1,0,1.8,0.7,1.8,1.7S66.2,52.1,65.1,52.1"/>
	<path class="st0" d="M75.1,52.1c-1,0-1.8-0.8-1.8-1.8s0.7-1.8,1.8-1.8c0.6,0,1,0.2,1.4,0.5l-0.3,0.4c-0.3-0.3-0.6-0.5-1-0.5
		c-0.7,0-1.2,0.6-1.2,1.3s0.5,1.3,1.2,1.3c0.5,0,0.7-0.2,1.1-0.5l0.3,0.3C76.2,51.9,75.8,52.1,75.1,52.1"/>
	<path class="st0" d="M80.9,49c-0.7,0-1.3,0.6-1.3,1.3s0.5,1.3,1.3,1.3c0.7,0,1.3-0.6,1.3-1.3C82.2,49.6,81.7,49,80.9,49 M80.9,52.1
		c-1.1,0-1.8-0.8-1.8-1.8s0.7-1.8,1.8-1.8c1.1,0,1.8,0.8,1.8,1.8C82.7,51.3,82,52.1,80.9,52.1"/>
	<polygon class="st0" points="88.2,48.6 88.7,48.6 88.7,52.1 88.2,52.1 86.2,49.4 86.2,52.1 85.7,52.1 85.7,48.6 86.1,48.6 
		88.2,51.2 	"/>
	<polygon class="st0" points="93.2,52.1 92.7,52.1 92.7,49.1 91.5,49.1 91.5,48.6 94.3,48.6 94.3,49.1 93.2,49.1 	"/>
	<path class="st0" d="M98.2,49.2l-0.7,1.6h1.4L98.2,49.2z M100,52.1h-0.5l-0.4-0.9h-1.8l-0.4,0.9h-0.5l1.6-3.5h0.5L100,52.1z"/>
	<path class="st0" d="M104.2,52.1c-1,0-1.8-0.8-1.8-1.8s0.7-1.8,1.8-1.8c0.6,0,1,0.2,1.4,0.5l-0.3,0.4c-0.3-0.3-0.6-0.5-1-0.5
		c-0.7,0-1.2,0.6-1.2,1.3s0.5,1.3,1.2,1.3c0.5,0,0.7-0.2,1.1-0.5l0.3,0.3C105.2,51.9,104.8,52.1,104.2,52.1"/>
	<polygon class="st0" points="109.8,52.1 109.3,52.1 109.3,49.1 108.2,49.1 108.2,48.6 111,48.6 111,49.1 109.8,49.1 	"/>
	<polygon class="st0" points="117.5,48.6 118,48.6 118,51.6 119.9,51.6 119.9,52.1 117.5,52.1 	"/>
	<polygon class="st0" points="125.3,49 123.2,49 123.2,50.1 125.1,50.1 125.1,50.5 123.2,50.5 123.2,51.6 125.3,51.6 125.3,52.1 
		122.7,52.1 122.7,48.6 125.3,48.6 	"/>
	<polygon class="st0" points="130.7,48.6 131.2,48.6 131.2,52.1 130.8,52.1 128.7,49.4 128.7,52.1 128.2,52.1 128.2,48.6 
		128.7,48.6 130.7,51.2 	"/>
	<path class="st0" d="M135.6,50.1c0.8,0.2,1.1,0.4,1.1,1s-0.5,1-1.2,1c-0.5,0-1-0.2-1.4-0.6l0.3-0.4c0.3,0.3,0.7,0.5,1.1,0.5
		c0.4,0,0.7-0.2,0.7-0.5s-0.2-0.4-0.8-0.6c-0.8-0.2-1.2-0.4-1.2-1s0.5-1,1.2-1c0.5,0,0.9,0.1,1.2,0.4l-0.3,0.4
		c-0.3-0.2-0.6-0.4-1-0.4s-0.7,0.2-0.7,0.5C134.7,49.8,134.9,49.9,135.6,50.1"/>
	<polygon class="st0" points="142.2,49 140.2,49 140.2,50.1 142,50.1 142,50.5 140.2,50.5 140.2,51.6 142.3,51.6 142.3,52.1 
		139.7,52.1 139.7,48.6 142.2,48.6 	"/>
	<path class="st0" d="M146.5,50.1c0.8,0.2,1.1,0.4,1.1,1s-0.5,1-1.2,1c-0.5,0-1-0.2-1.4-0.6l0.3-0.4c0.3,0.3,0.7,0.5,1.1,0.5
		c0.4,0,0.7-0.2,0.7-0.5s-0.2-0.4-0.8-0.6c-0.8-0.2-1.2-0.4-1.2-1s0.5-1,1.2-1c0.5,0,0.9,0.1,1.2,0.4l-0.3,0.4
		c-0.3-0.2-0.6-0.4-1-0.4s-0.7,0.2-0.7,0.5C145.6,49.8,145.8,49.9,146.5,50.1"/>
	<path class="st0" d="M150.9,25.9c0,0.1-0.1,0.2-0.2,0.2h-0.4v-0.5h0.4C150.8,25.7,150.9,25.8,150.9,25.9 M150.8,26.3
		c0.2,0,0.3-0.2,0.3-0.4c0-0.3-0.2-0.4-0.5-0.4H150v1.4h0.2v-0.6h0.4l0.4,0.6h0.2L150.8,26.3z M151.8,26.2c0,0.7-0.5,1.2-1.2,1.2
		s-1.2-0.6-1.2-1.3c0-0.7,0.5-1.2,1.2-1.2C151.3,25,151.8,25.5,151.8,26.2 M151.9,26.2c0-0.8-0.6-1.4-1.4-1.4
		c-0.8,0-1.4,0.6-1.4,1.4s0.6,1.4,1.4,1.4C151.4,27.6,151.9,27,151.9,26.2"/>
	<path class="st0" d="M69.3,43.1c1.7,0,4-0.3,5.3-1.7l0,0v2.4c-1.6,0.5-3.8,0.9-5.5,0.9c-5.3,0-10.5-3.1-10.5-9.8
		c0-5,4-9.9,10.6-9.9c1.5,0,3.6,0.4,4.8,0.9v1.9h-0.1c-1.2-1.1-3.4-1.5-5.2-1.5c-4.2,0-7.6,3.2-7.6,8.3C61.3,40.7,65,43.1,69.3,43.1
		"/>
	<polygon class="st0" points="137.9,42.6 137.9,35 146,35 146,33.5 137.9,33.5 137.9,27 147,27 147,25.5 135.5,25.5 135.5,44.3 
		147.6,44.3 147.6,42.6 	"/>
	<path class="st0" d="M91.6,25.5v12c0,3.5-1.7,5.9-5.7,5.9c-4.2,0-5.1-3-5.1-5.7V25.5h-2.5v12.3c0,4.2,2.9,7,7.6,7s7.4-3.3,7.4-7.3
		v-12H91.6z"/>
	<polygon class="st0" points="111.7,25.4 105.4,41.4 98.9,25.4 96.2,25.4 104,44.3 105.8,44.3 113.5,25.4 	"/>
	<path class="st0" d="M45.1,37.1l3.7-8.7l3.7,8.7H45.1z M55.5,44.3h2.8l-8.6-19h-2.9v0.1c0.9,0.6,0.9,1.4,0.4,2.7l-7.1,16.1h2
		l2.4-5.7h8.6L55.5,44.3z"/>
	<path class="st0" d="M129.4,25.5v12c0,3.5-1.7,5.9-5.7,5.9c-4.2,0-5.1-3-5.1-5.7V25.5h-2.5v12.3c0,4.2,2.9,7,7.6,7s7.4-3.3,7.4-7.3
		v-12H129.4z"/>
</g>
</svg>
