<?xml version="1.0" encoding="utf-8"?>
<!-- Generator: Adobe Illustrator 23.0.4, SVG Export Plug-In . SVG Version: 6.00 Build 0)  -->
<svg version="1.1" id="Layer_1" xmlns="http://www.w3.org/2000/svg" xmlns:xlink="http://www.w3.org/1999/xlink" x="0px" y="0px"
	 viewBox="0 0 191 78" style="enable-background:new 0 0 191 78;" xml:space="preserve">
<style type="text/css">
	.st0{fill:#919497;}
	.st1{fill:url(#SVGID_1_);}
	.st2{fill:#DBDCDD;}
</style>
<path class="st0" d="M81.8,32.2c0.9-0.8,1.9-1.4,3.2-1.9c1.2-0.4,2.5-0.6,4-0.6v1l0,0c-1,0-2,0.2-2.9,0.5s-1.7,0.9-2.4,1.6
	c-0.7,0.7-1.2,1.6-1.6,2.7c-0.4,1.1-0.6,2.4-0.6,3.9s0.2,2.8,0.6,3.9c0.4,1.1,0.9,2,1.6,2.7s1.5,1.2,2.4,1.6
	c0.9,0.3,1.9,0.5,2.9,0.5c0,0,0,0-0.1,0V49c-1.5,0-2.8-0.2-4-0.6c-1.2-0.4-2.3-1-3.2-1.8c-0.9-0.8-1.6-1.8-2.1-3s-0.7-2.6-0.7-4.1
	s0.2-2.9,0.7-4.1C80.2,34,80.9,33,81.8,32.2z"/>
<g>
	
		<linearGradient id="SVGID_1_" gradientUnits="userSpaceOnUse" x1="95.171" y1="677.4323" x2="152.729" y2="733.6677" gradientTransform="matrix(1 0 0 1 0 -672)">
		<stop  offset="0" style="stop-color:#D0D2D3"/>
		<stop  offset="1" style="stop-color:#F7F7F8"/>
	</linearGradient>
	<path class="st1" d="M69.8,31.4c26.8,14.1,82.4-9.1,108.3,4.3C153.2,26.2,96.7,53.2,69.8,31.4z"/>
	<path class="st2" d="M73.4,36.4c-0.1,0-0.2-0.1-0.2-0.2s0.1-0.2,0.2-0.2s0.2,0.1,0.2,0.2C73.6,36.3,73.5,36.4,73.4,36.4 M73.9,36.9
		c-0.1,0-0.2-0.1-0.2-0.2s0.1-0.2,0.2-0.2s0.2,0.1,0.2,0.2S74.1,36.9,73.9,36.9 M75,36.9c-0.1,0-0.2-0.1-0.2-0.2s0.1-0.2,0.2-0.2
		s0.2,0.1,0.2,0.2S75.1,36.9,75,36.9 M75.5,37.4c-0.1,0-0.2-0.1-0.2-0.2s0.1-0.2,0.2-0.2s0.2,0.1,0.2,0.2S75.6,37.4,75.5,37.4
		 M76,37.9c-0.1,0-0.2-0.1-0.2-0.2s0.1-0.2,0.2-0.2s0.2,0.1,0.2,0.2C76.3,37.8,76.1,37.9,76,37.9 M76.5,37.4c-0.1,0-0.2-0.1-0.2-0.2
		s0.1-0.2,0.2-0.2s0.2,0.1,0.2,0.2C76.7,37.2,76.7,37.4,76.5,37.4 M77,37.9c-0.1,0-0.2-0.1-0.2-0.2s0.1-0.2,0.2-0.2s0.2,0.1,0.2,0.2
		C77.3,37.8,77.2,37.9,77,37.9 M77.6,38.3c-0.1,0-0.2-0.1-0.2-0.2s0.1-0.2,0.2-0.2s0.2,0.1,0.2,0.2C77.8,38.3,77.7,38.3,77.6,38.3
		 M78.1,37.4c0.1,0,0.2,0.1,0.2,0.2s-0.1,0.2-0.2,0.2s-0.2-0.1-0.2-0.2S77.9,37.4,78.1,37.4 M78.1,38.9c-0.1,0-0.2-0.1-0.2-0.2
		s0.1-0.2,0.2-0.2s0.2,0.1,0.2,0.2S78.2,38.9,78.1,38.9 M78.6,38.3c-0.1,0-0.2-0.1-0.2-0.2s0.1-0.2,0.2-0.2s0.2,0.1,0.2,0.2
		C78.9,38.3,78.7,38.3,78.6,38.3 M79.1,37.4c0.1,0,0.2,0.1,0.2,0.2s-0.1,0.2-0.2,0.2s-0.2-0.1-0.2-0.2S79,37.4,79.1,37.4 M79.2,38.9
		c-0.1,0-0.2-0.1-0.2-0.2s0.1-0.2,0.2-0.2s0.2,0.1,0.2,0.2C79.4,38.7,79.3,38.9,79.2,38.9 M79.6,37.8c0.1,0,0.2,0.1,0.2,0.2
		s-0.1,0.2-0.2,0.2s-0.2-0.1-0.2-0.2L79.6,37.8 M79.7,39.4c-0.1,0-0.2-0.1-0.2-0.2s0.1-0.2,0.2-0.2s0.2,0.1,0.2,0.2
		C79.9,39.2,79.8,39.4,79.7,39.4 M80.2,38.9c-0.1,0-0.2-0.1-0.2-0.2s0.1-0.2,0.2-0.2s0.2,0.1,0.2,0.2C80.5,38.7,80.3,38.9,80.2,38.9
		 M80.7,37.8c0.1,0,0.2,0.1,0.2,0.2s-0.1,0.2-0.2,0.2s-0.2-0.1-0.2-0.2C80.5,38,80.5,37.8,80.7,37.8 M80.7,39.3
		c-0.1,0-0.2-0.1-0.2-0.2s0.1-0.2,0.2-0.2s0.2,0.1,0.2,0.2S80.8,39.3,80.7,39.3 M81.2,38.3c0.1,0,0.2,0.1,0.2,0.2s-0.1,0.2-0.2,0.2
		s-0.2,0-0.2-0.1C81,38.4,81.1,38.3,81.2,38.3 M81.3,39.8c-0.1,0-0.2-0.1-0.2-0.2s0.1-0.2,0.2-0.2s0.2,0.1,0.2,0.2
		S81.4,39.8,81.3,39.8 M81.7,37.8c0.1,0,0.2,0.1,0.2,0.2s-0.1,0.2-0.2,0.2s-0.2-0.1-0.2-0.2C81.5,37.9,81.6,37.8,81.7,37.8
		 M81.8,39.3c-0.1,0-0.2-0.1-0.2-0.2s0.1-0.2,0.2-0.2S82,39,82,39.1S81.9,39.3,81.8,39.3 M82.2,38.3c0.1,0,0.2,0.1,0.2,0.2
		s-0.1,0.2-0.2,0.2s-0.2,0-0.2-0.1S82.2,38.3,82.2,38.3 M82.3,39.8c-0.1,0-0.2-0.1-0.2-0.2s0.1-0.2,0.2-0.2s0.2,0.1,0.2,0.2
		S82.5,39.8,82.3,39.8 M82.8,37.8c0.1,0,0.2,0.1,0.2,0.2s-0.1,0.2-0.2,0.2s-0.2-0.1-0.2-0.2C82.5,37.9,82.6,37.8,82.8,37.8
		 M82.8,38.9c0.1,0,0.2,0.1,0.2,0.2s-0.1,0.2-0.2,0.2s-0.2-0.1-0.2-0.2C82.5,38.9,82.7,38.9,82.8,38.9 M82.8,40.4
		c-0.1,0-0.2-0.1-0.2-0.2s0.1-0.2,0.2-0.2s0.2,0.1,0.2,0.2C83.1,40.2,83,40.4,82.8,40.4 M83.3,38.3c0.1,0,0.2,0.1,0.2,0.2
		s-0.1,0.2-0.2,0.2s-0.2-0.1-0.2-0.2C83.1,38.4,83.2,38.3,83.3,38.3 M83.3,39.8c-0.1,0-0.2-0.1-0.2-0.2s0.1-0.2,0.2-0.2
		s0.2,0.1,0.2,0.2C83.6,39.7,83.5,39.8,83.3,39.8 M83.9,38.8c0.1,0,0.2,0.1,0.2,0.2s-0.1,0.2-0.2,0.2s-0.2-0.1-0.2-0.2
		C83.6,38.9,83.7,38.8,83.9,38.8 M83.9,40.4c-0.1,0-0.2-0.1-0.2-0.2s0.1-0.2,0.2-0.2s0.2,0.1,0.2,0.2C84.1,40.2,84,40.3,83.9,40.4
		 M84.3,38.3c0.1,0,0.2,0.1,0.2,0.2s-0.1,0.2-0.2,0.2s-0.2-0.1-0.2-0.2C84.1,38.4,84.2,38.3,84.3,38.3 M84.4,39.3
		c0.1,0,0.2,0.1,0.2,0.2s-0.1,0.2-0.2,0.2s-0.2-0.1-0.2-0.2C84.1,39.5,84.2,39.3,84.4,39.3 M84.4,40.8c-0.1,0-0.2-0.1-0.2-0.2
		s0.1-0.2,0.2-0.2s0.2,0.1,0.2,0.2S84.5,40.8,84.4,40.8 M84.9,38.8c0.1,0,0.2,0.1,0.2,0.2s-0.1,0.2-0.2,0.2s-0.2-0.1-0.2-0.2
		C84.6,38.9,84.8,38.8,84.9,38.8 M84.9,40.3c-0.1,0-0.2-0.1-0.2-0.2s0.1-0.2,0.2-0.2s0.2,0.1,0.2,0.2S85.1,40.3,84.9,40.3
		 M85.4,38.3c0.1,0,0.2,0.1,0.2,0.2s-0.1,0.2-0.2,0.2s-0.2-0.1-0.2-0.2S85.3,38.3,85.4,38.3 M85.4,39.3c0.1,0,0.2,0.1,0.2,0.2
		s-0.1,0.2-0.2,0.2s-0.2-0.1-0.2-0.2C85.1,39.4,85.3,39.3,85.4,39.3 M85.4,40.8c-0.1,0-0.2-0.1-0.2-0.2s0.1-0.2,0.2-0.2
		s0.2,0.1,0.2,0.2S85.6,40.8,85.4,40.8 M145.6,33c0.1,0,0.2,0.1,0.2,0.2s-0.1,0.2-0.2,0.2s-0.2-0.1-0.2-0.2
		C145.4,33.1,145.5,33,145.6,33 M144.6,33c0.1,0,0.2,0.1,0.2,0.2s-0.1,0.2-0.2,0.2c-0.1,0-0.2-0.1-0.2-0.2
		C144.4,33.1,144.4,33,144.6,33 M143.5,33c0.1,0,0.2,0.1,0.2,0.2s-0.1,0.2-0.2,0.2s-0.2-0.1-0.2-0.2S143.4,33,143.5,33 M142,33.6
		c0.1,0,0.2,0.1,0.2,0.2S142.1,34,142,34s-0.2-0.1-0.2-0.2C141.8,33.7,141.8,33.6,142,33.6 M140.9,33.6c0.1,0,0.2,0.1,0.2,0.2
		S141,34,140.9,34s-0.2-0.1-0.2-0.2S140.8,33.6,140.9,33.6 M139.9,33.6c0.1,0,0.2,0.1,0.2,0.2S140,34,139.9,34s-0.2-0.1-0.2-0.2
		C139.7,33.7,139.8,33.6,139.9,33.6 M138.9,33.7c0.1,0,0.2,0.1,0.2,0.2s-0.1,0.2-0.2,0.2s-0.2-0.1-0.2-0.2S138.7,33.7,138.9,33.7
		 M138.3,34.2c0.1,0,0.2,0.1,0.2,0.2s-0.1,0.2-0.2,0.2s-0.2-0.1-0.2-0.2S138.3,34.2,138.3,34.2 M137.8,33.7c0.1,0,0.2,0.1,0.2,0.2
		s-0.1,0.2-0.2,0.2s-0.2-0.1-0.2-0.2C137.6,33.7,137.7,33.7,137.8,33.7 M137.3,34.2c0.1,0,0.2,0.1,0.2,0.2s-0.1,0.2-0.2,0.2
		s-0.2-0.1-0.2-0.2S137.2,34.2,137.3,34.2 M136.8,33.7c0.1,0,0.2,0.1,0.2,0.2s-0.1,0.2-0.2,0.2s-0.2-0.1-0.2-0.2
		S136.6,33.7,136.8,33.7 M136.3,34.2c0.1,0,0.2,0.1,0.2,0.2s-0.1,0.2-0.2,0.2s-0.2-0.1-0.2-0.2C136,34.3,136.1,34.2,136.3,34.2
		 M135.2,34.2c0.1,0,0.2,0.1,0.2,0.2s-0.1,0.2-0.2,0.2s-0.2-0.1-0.2-0.2S135.1,34.2,135.2,34.2 M134.7,34.7c0.1,0,0.2,0.1,0.2,0.2
		s-0.1,0.2-0.2,0.2s-0.2-0.1-0.2-0.2C134.5,34.9,134.6,34.8,134.7,34.7 M134.2,34.3c0.1,0,0.2,0.1,0.2,0.2s-0.1,0.2-0.2,0.2
		c-0.1,0-0.2-0.1-0.2-0.2C134,34.3,134.1,34.3,134.2,34.3 M133.7,34.8c0.1,0,0.2,0.1,0.2,0.2s-0.1,0.2-0.2,0.2s-0.2-0.1-0.2-0.2
		S133.6,34.8,133.7,34.8 M133.1,34.3c0.1,0,0.2,0.1,0.2,0.2s-0.1,0.2-0.2,0.2s-0.2-0.1-0.2-0.2C132.9,34.3,133.1,34.3,133.1,34.3
		 M132.6,34.8c0.1,0,0.2,0.1,0.2,0.2s-0.1,0.2-0.2,0.2s-0.2-0.1-0.2-0.2S132.5,34.8,132.6,34.8 M132.1,34.3c0.1,0,0.2,0.1,0.2,0.2
		s-0.1,0.2-0.2,0.2s-0.2-0.1-0.2-0.2C131.9,34.4,132,34.3,132.1,34.3 M131.6,34.8c0.1,0,0.2,0.1,0.2,0.2s-0.1,0.2-0.2,0.2
		c-0.1,0-0.2-0.1-0.2-0.2C131.4,34.9,131.5,34.8,131.6,34.8 M131.1,35.3c0.1,0,0.2,0.1,0.2,0.2s-0.1,0.2-0.2,0.2s-0.2-0.1-0.2-0.2
		C130.8,35.5,131,35.3,131.1,35.3 M130.1,35.4c0.1,0,0.2,0.1,0.2,0.2s-0.1,0.2-0.2,0.2s-0.2-0.1-0.2-0.2
		C129.8,35.5,129.9,35.4,130.1,35.4 M129.5,34.9c0.1,0,0.2,0.1,0.2,0.2s-0.1,0.2-0.2,0.2s-0.2-0.1-0.2-0.2
		C129.3,34.9,129.4,34.9,129.5,34.9 M129.1,35.4c0.1,0,0.2,0.1,0.2,0.2s-0.1,0.2-0.2,0.2c-0.1,0-0.2-0.1-0.2-0.2
		C128.8,35.5,128.9,35.4,129.1,35.4 M128.5,34.9c0.1,0,0.2,0.1,0.2,0.2s-0.1,0.2-0.2,0.2c-0.1,0-0.2-0.1-0.2-0.2
		C128.2,35,128.4,34.9,128.5,34.9 M128.8,36.1c0,0.1-0.1,0.2-0.2,0.2s-0.2-0.1-0.2-0.2s0.1-0.2,0.2-0.2S128.8,36,128.8,36.1
		 M128,35.4c0.1,0,0.2,0.1,0.2,0.2s-0.1,0.2-0.2,0.2s-0.2-0.1-0.2-0.2C127.7,35.5,127.9,35.4,128,35.4 M127.4,34.9
		c0.1,0,0.2,0.1,0.2,0.2s-0.1,0.2-0.2,0.2s-0.2-0.1-0.2-0.2C127.2,35,127.3,34.9,127.4,34.9 M127.7,36.1c0,0.1-0.1,0.2-0.2,0.2
		s-0.2-0.1-0.2-0.2s0.1-0.2,0.2-0.2S127.7,36,127.7,36.1 M126.5,35.9c0.1,0,0.2,0.1,0.2,0.2s-0.1,0.2-0.2,0.2s-0.2-0.1-0.2-0.2
		C126.2,36,126.3,36,126.5,35.9 M125.9,35.5c0.1,0,0.2,0.1,0.2,0.2s-0.1,0.2-0.2,0.2s-0.2-0.1-0.2-0.2
		C125.6,35.5,125.8,35.5,125.9,35.5 M125.4,36c0.1,0,0.2,0.1,0.2,0.2s-0.1,0.2-0.2,0.2s-0.2-0.1-0.2-0.2C125.2,36,125.3,36,125.4,36
		 M124.9,35.5c0.1,0,0.2,0.1,0.2,0.2s-0.1,0.2-0.2,0.2s-0.2-0.1-0.2-0.2C124.6,35.5,124.7,35.5,124.9,35.5 M125.1,36.7
		c0,0.1-0.1,0.2-0.2,0.2s-0.2-0.1-0.2-0.2c0-0.1,0.1-0.2,0.2-0.2S125.1,36.6,125.1,36.7 M124.4,36c0.1,0,0.2,0.1,0.2,0.2
		s-0.1,0.2-0.2,0.2s-0.2-0.1-0.2-0.2C124.1,36.1,124.2,36,124.4,36 M123.9,35.5c0.1,0,0.2,0.1,0.2,0.2s-0.1,0.2-0.2,0.2
		s-0.2-0.1-0.2-0.2C123.6,35.6,123.7,35.5,123.9,35.5 M124.1,36.7c0,0.1-0.1,0.2-0.2,0.2s-0.2-0.1-0.2-0.2c0-0.1,0.1-0.2,0.2-0.2
		S124.1,36.6,124.1,36.7 M122.8,35.5c0.1,0,0.2,0.1,0.2,0.2s0,0.3-0.2,0.3s-0.2-0.1-0.2-0.2C122.5,35.6,122.7,35.5,122.8,35.5
		 M123,36.8c0,0.1-0.1,0.2-0.2,0.2s-0.2-0.1-0.2-0.2s0.1-0.2,0.2-0.2C123,36.5,123,36.6,123,36.8 M122.3,36c0.1,0,0.2,0.1,0.2,0.2
		s-0.1,0.2-0.2,0.2s-0.2-0.1-0.2-0.2S122.1,36,122.3,36 M121.8,36.6c0.1,0,0.2,0.1,0.2,0.2s-0.1,0.2-0.2,0.2s-0.2-0.1-0.2-0.2
		S121.6,36.6,121.8,36.6 M121.3,36c0.1,0,0.2,0.1,0.2,0.2s-0.1,0.2-0.2,0.2s-0.2-0.1-0.2-0.2S121.1,36,121.3,36 M120.7,36.6
		c0.1,0,0.2,0.1,0.2,0.2s-0.1,0.2-0.2,0.2s-0.2-0.1-0.2-0.2S120.6,36.6,120.7,36.6 M120.2,36c0.1,0,0.2,0.1,0.2,0.2
		s-0.1,0.2-0.2,0.2s-0.2-0.1-0.2-0.2C120,36.2,120.1,36,120.2,36 M120.4,37.3c0,0.1-0.1,0.2-0.2,0.2s-0.2-0.1-0.2-0.2
		s0.1-0.2,0.2-0.2C120.4,37.1,120.4,37.2,120.4,37.3 M119.7,36.6c0.1,0,0.2,0.1,0.2,0.2s-0.1,0.2-0.2,0.2s-0.2-0.1-0.2-0.2
		C119.5,36.7,119.5,36.6,119.7,36.6 M119.2,36c0.1,0,0.2,0.1,0.2,0.2s-0.1,0.2-0.2,0.2s-0.2-0.1-0.2-0.2C118.9,36.2,119,36,119.2,36
		 M119.4,37.3c0,0.1-0.1,0.2-0.2,0.2s-0.2-0.1-0.2-0.2s0.1-0.2,0.2-0.2S119.4,37.2,119.4,37.3 M118.6,36.6c0.1,0,0.2,0.1,0.2,0.2
		s-0.1,0.2-0.2,0.2s-0.2-0.1-0.2-0.2C118.4,36.7,118.5,36.6,118.6,36.6 M118.1,36.1c0.1,0,0.2,0.1,0.2,0.2s-0.1,0.2-0.2,0.2
		s-0.2-0.1-0.2-0.2C117.9,36.2,118,36.1,118.1,36.1 M118.4,37.4c0,0.1-0.1,0.2-0.2,0.2s-0.2-0.1-0.2-0.2s0.1-0.2,0.2-0.2
		C118.3,37.1,118.4,37.2,118.4,37.4 M117.6,36.6c0.1,0,0.2,0.1,0.2,0.2s-0.1,0.2-0.2,0.2s-0.2-0.1-0.2-0.2S117.5,36.6,117.6,36.6
		 M117.1,37.2c0.1,0,0.2,0.1,0.2,0.2s-0.1,0.2-0.2,0.2s-0.2-0.1-0.2-0.2C116.9,37.2,116.9,37.2,117.1,37.2 M116.6,36.6
		c0.1,0,0.2,0.1,0.2,0.2s-0.1,0.2-0.2,0.2s-0.2-0.1-0.2-0.2S116.4,36.6,116.6,36.6 M116.9,37.9c0,0.1-0.1,0.2-0.2,0.2
		s-0.2-0.1-0.2-0.2s0.1-0.2,0.2-0.2C116.7,37.7,116.8,37.8,116.9,37.9 M116,37.2c0.1,0,0.2,0.1,0.2,0.2s-0.1,0.2-0.2,0.2
		s-0.2-0.1-0.2-0.2S115.9,37.2,116,37.2 M115.5,36.6c0.1,0,0.2,0.1,0.2,0.2s-0.1,0.2-0.2,0.2s-0.2-0.1-0.2-0.2
		C115.3,36.8,115.4,36.6,115.5,36.6 M115.8,37.9c0,0.1-0.1,0.2-0.2,0.2s-0.2-0.1-0.2-0.2s0.1-0.2,0.2-0.2
		C115.7,37.7,115.8,37.8,115.8,37.9 M114.5,36.7c0.1,0,0.2,0.1,0.2,0.2s-0.1,0.2-0.2,0.2s-0.2-0.1-0.2-0.2S114.3,36.7,114.5,36.7
		 M114.8,38c0,0.1-0.1,0.2-0.2,0.2s-0.2-0.1-0.2-0.2s0.1-0.2,0.2-0.2C114.6,37.7,114.7,37.8,114.8,38 M114,37.2
		c0.1,0,0.2,0.1,0.2,0.2s-0.1,0.2-0.2,0.2s-0.2-0.1-0.2-0.2S113.8,37.2,114,37.2 M113.4,36.7c0.1,0,0.2,0.1,0.2,0.2
		s-0.1,0.2-0.2,0.2s-0.2-0.1-0.2-0.2C113.2,36.8,113.3,36.7,113.4,36.7 M113.7,38c0,0.1-0.1,0.2-0.2,0.2s-0.2-0.1-0.2-0.2
		s0.1-0.2,0.2-0.2S113.7,37.8,113.7,38 M112.9,37.2c0.1,0,0.2,0.1,0.2,0.2s-0.1,0.2-0.2,0.2s-0.2-0.1-0.2-0.2S112.8,37.2,112.9,37.2
		 M112.4,37.8c0.1,0,0.2,0.1,0.2,0.2s-0.1,0.2-0.2,0.2s-0.2-0.1-0.2-0.2S112.3,37.8,112.4,37.8 M111.9,37.2c0.1,0,0.2,0.1,0.2,0.2
		s-0.1,0.2-0.2,0.2s-0.2-0.1-0.2-0.2C111.7,37.4,111.7,37.2,111.9,37.2 M112.2,38.5c0,0.1-0.1,0.2-0.2,0.2s-0.2-0.1-0.2-0.2
		s0.1-0.2,0.2-0.2C112,38.3,112.2,38.3,112.2,38.5 M111.4,37.8c0.1,0,0.2,0.1,0.2,0.2s-0.1,0.2-0.2,0.2s-0.2-0.1-0.2-0.2
		C111.1,37.9,111.2,37.8,111.4,37.8 M110.8,37.2c0.1,0,0.2,0.1,0.2,0.2s-0.1,0.2-0.2,0.2s-0.2-0.1-0.2-0.2
		C110.6,37.4,110.7,37.2,110.8,37.2 M111.1,38.5c0,0.1-0.1,0.2-0.2,0.2s-0.2-0.1-0.2-0.2s0.1-0.2,0.2-0.2S111.1,38.4,111.1,38.5
		 M110.3,37.8c0.1,0,0.2,0.1,0.2,0.2s-0.1,0.2-0.2,0.2s-0.2-0.1-0.2-0.2C110.1,37.9,110.2,37.8,110.3,37.8 M109.8,37.3
		c0.1,0,0.2,0.1,0.2,0.2s-0.1,0.2-0.2,0.2s-0.2-0.1-0.2-0.2S109.7,37.3,109.8,37.3 M110.1,38.6c0,0.1-0.1,0.2-0.2,0.2
		s-0.2-0.1-0.2-0.2s0.1-0.2,0.2-0.2C110,38.3,110.1,38.4,110.1,38.6 M108.8,37.3c0.1,0,0.2,0.1,0.2,0.2s-0.1,0.2-0.2,0.2
		s-0.2-0.1-0.2-0.2S108.6,37.3,108.8,37.3 M109.1,38.6c0,0.1-0.1,0.2-0.2,0.2s-0.2-0.1-0.2-0.2s0.1-0.2,0.2-0.2
		C108.9,38.3,109.1,38.4,109.1,38.6 M108.2,37.8c0.1,0,0.2,0.1,0.2,0.2s-0.1,0.2-0.2,0.2S108,38.1,108,38
		C108,38,108.1,37.8,108.2,37.8 M107.7,37.3c0.1,0,0.2,0.1,0.2,0.2s-0.1,0.2-0.2,0.2s-0.2-0.1-0.2-0.2
		C107.5,37.5,107.6,37.3,107.7,37.3 M108,38.6c0,0.1-0.1,0.2-0.2,0.2s-0.2-0.1-0.2-0.2s0.1-0.2,0.2-0.2
		C107.9,38.3,108,38.4,108,38.6 M107.2,37.8c0.1,0,0.2,0.1,0.2,0.2s-0.1,0.2-0.2,0.2S107,38.1,107,38C107,38,107.1,37.8,107.2,37.8
		 M106.7,38.3c0.1,0,0.2,0.1,0.2,0.2s-0.1,0.2-0.2,0.2s-0.2-0.1-0.2-0.2C106.5,38.5,106.6,38.3,106.7,38.3 M106.2,37.9
		c0.1,0,0.2,0.1,0.2,0.2s-0.1,0.2-0.2,0.2s-0.2-0.1-0.2-0.2S106.1,37.9,106.2,37.9 M105.6,38.4c0.1,0,0.2,0.1,0.2,0.2
		s-0.1,0.2-0.2,0.2s-0.2-0.1-0.2-0.2S105.6,38.4,105.6,38.4 M105.1,37.9c0.1,0,0.2,0.1,0.2,0.2s-0.1,0.2-0.2,0.2s-0.2-0.1-0.2-0.2
		S105,37.9,105.1,37.9 M104.6,38.4c0.1,0,0.2,0.1,0.2,0.2s-0.1,0.2-0.2,0.2s-0.2-0.1-0.2-0.2S104.5,38.4,104.6,38.4 M104.1,37.9
		c0.1,0,0.2,0.1,0.2,0.2s-0.1,0.2-0.2,0.2s-0.2-0.1-0.2-0.2C103.9,38.1,104,37.9,104.1,37.9 M103.6,38.4c0.1,0,0.2,0.1,0.2,0.2
		s-0.1,0.2-0.2,0.2s-0.2-0.1-0.2-0.2C103.3,38.6,103.5,38.4,103.6,38.4 M103,37.9c0.1,0,0.2,0.1,0.2,0.2s-0.1,0.2-0.2,0.2
		s-0.2-0.1-0.2-0.2C102.8,38.1,103,37.9,103,37.9 M103.3,39.2c0,0.1-0.1,0.2-0.2,0.2s-0.2-0.1-0.2-0.2s0.1-0.2,0.2-0.2
		C103.2,38.9,103.3,39.1,103.3,39.2 M102.5,38.4c0.1,0,0.2,0.1,0.2,0.2s-0.1,0.2-0.2,0.2s-0.2-0.1-0.2-0.2
		C102.3,38.6,102.4,38.4,102.5,38.4 M102,38c0.1,0,0.2,0.1,0.2,0.2s-0.1,0.2-0.2,0.2s-0.2-0.1-0.2-0.2S101.9,38,102,38 M102.3,39.2
		c0,0.1-0.1,0.2-0.2,0.2s-0.2-0.1-0.2-0.2s0.1-0.2,0.2-0.2C102.2,38.9,102.3,39.1,102.3,39.2 M101.5,38.5c0.1,0,0.2,0.1,0.2,0.2
		s-0.1,0.2-0.2,0.2s-0.2-0.1-0.2-0.2S101.4,38.5,101.5,38.5 M101,38c0.1,0,0.2,0.1,0.2,0.2s-0.1,0.2-0.2,0.2s-0.2-0.1-0.2-0.2
		C100.7,38.1,100.9,38,101,38 M101.3,39.2c0,0.1-0.1,0.2-0.2,0.2s-0.2-0.1-0.2-0.2s0.1-0.2,0.2-0.2C101.1,39,101.3,39.1,101.3,39.2
		 M100.4,38.5c0.1,0,0.2,0.1,0.2,0.2s-0.1,0.2-0.2,0.2s-0.2-0.1-0.2-0.2S100.4,38.5,100.4,38.5 M99.9,38c0.1,0,0.2,0.1,0.2,0.2
		s-0.1,0.2-0.2,0.2s-0.2-0.1-0.2-0.2C99.7,38.1,99.8,38,99.9,38 M100.2,39.2c0,0.1-0.1,0.2-0.2,0.2s-0.2-0.1-0.2-0.2s0-0.2,0.2-0.2
		C100.1,39,100.2,39.1,100.2,39.2 M99.4,38.5c0.1,0,0.2,0.1,0.2,0.2s-0.1,0.2-0.2,0.2s-0.2-0.1-0.2-0.2
		C99.2,38.6,99.3,38.5,99.4,38.5 M99,39c0.1,0,0.2,0.1,0.2,0.2s-0.1,0.2-0.2,0.2s-0.2-0.1-0.2-0.2C98.7,39.2,98.8,39,99,39
		 M98.4,38.5c0.1,0,0.2,0.1,0.2,0.2s-0.1,0.2-0.2,0.2s-0.2-0.1-0.2-0.2C98.1,38.6,98.3,38.6,98.4,38.5 M97.9,39.1
		c0.1,0,0.2,0.1,0.2,0.2s-0.1,0.2-0.2,0.2s-0.2-0.1-0.2-0.2C97.6,39.2,97.8,39.1,97.9,39.1 M97.3,38.6c0.1,0,0.2,0.1,0.2,0.2
		s0,0.2-0.2,0.2s-0.2-0.1-0.2-0.2C97.1,38.6,97.2,38.6,97.3,38.6 M96.3,38.6c0.1,0,0.2,0.1,0.2,0.2S96.4,39,96.3,39
		s-0.2-0.1-0.2-0.2C96.1,38.6,96.2,38.6,96.3,38.6 M95.2,38.6c0.1,0,0.2,0.1,0.2,0.2s0,0.2-0.2,0.2S95,38.9,95,38.8
		C95,38.7,95.2,38.6,95.2,38.6 M94.2,38.6c0.1,0,0.2,0.1,0.2,0.2S94.3,39,94.2,39S94,39,94,38.9S94.1,38.6,94.2,38.6 M93.2,38.6
		c0.1,0,0.2,0.1,0.2,0.2S93.3,39,93.2,39S93,38.9,93,38.8S93.1,38.6,93.2,38.6 M92.1,38.6c0.1,0,0.2,0.1,0.2,0.2S92.2,39,92.1,39
		s-0.2-0.1-0.2-0.2C91.9,38.8,92,38.6,92.1,38.6 M91.2,38.6c0.1,0,0.2,0.1,0.2,0.2S91.3,39,91.2,39S91,38.9,91,38.8
		C90.9,38.8,91,38.6,91.2,38.6 M88.5,38.2c0.1,0,0.2,0.1,0.2,0.2s-0.1,0.2-0.2,0.2s-0.2-0.1-0.2-0.2S88.4,38.2,88.5,38.2 M87.4,38.2
		c0.1,0,0.2,0.1,0.2,0.2s-0.1,0.2-0.2,0.2s-0.2-0.1-0.2-0.2C87.2,38.3,87.4,38.2,87.4,38.2 M85.9,38.8c0.1,0,0.2,0.1,0.2,0.2
		s-0.1,0.2-0.2,0.2s-0.2-0.1-0.2-0.2C85.7,38.9,85.8,38.8,85.9,38.8 M85.9,40.3c-0.1,0-0.2-0.1-0.2-0.2s0.1-0.2,0.2-0.2
		s0.2,0.1,0.2,0.2C86.2,40.1,86.1,40.3,85.9,40.3 M86.2,38.5c0-0.1,0.1-0.2,0.2-0.2s0.2,0.1,0.2,0.2s-0.1,0.2-0.2,0.2
		C86.3,38.7,86.2,38.6,86.2,38.5 M86.5,39.3c0.1,0,0.2,0.1,0.2,0.2s-0.1,0.2-0.2,0.2s-0.2-0.1-0.2-0.2
		C86.2,39.4,86.3,39.3,86.5,39.3 M86.5,40.8c-0.1,0-0.2-0.1-0.2-0.2s0.1-0.2,0.2-0.2s0.2,0.1,0.2,0.2S86.6,40.8,86.5,40.8 M87,38.7
		c0.1,0,0.2,0.1,0.2,0.2s-0.1,0.2-0.2,0.2s-0.2-0.1-0.2-0.2C86.7,38.9,86.8,38.7,87,38.7 M87,39.8c0.1,0,0.2,0.1,0.2,0.2
		s-0.1,0.2-0.2,0.2s-0.2-0.1-0.2-0.2C86.8,39.9,86.8,39.8,87,39.8 M87,41.3c-0.1,0-0.2-0.1-0.2-0.2s0.1-0.2,0.2-0.2s0.2,0.1,0.2,0.2
		S87.1,41.2,87,41.3 M87.5,39.2c0.1,0,0.2,0.1,0.2,0.2s-0.1,0.2-0.2,0.2s-0.2-0.1-0.2-0.2C87.2,39.4,87.4,39.2,87.5,39.2 M87.5,40.7
		c-0.1,0-0.2-0.1-0.2-0.2s0.1-0.2,0.2-0.2s0.2,0.1,0.2,0.2S87.7,40.7,87.5,40.7 M88,38.7c0.1,0,0.2,0.1,0.2,0.2s-0.1,0.2-0.2,0.2
		s-0.2-0.1-0.2-0.2C87.7,38.9,87.9,38.7,88,38.7 M88,39.8c0.1,0,0.2,0.1,0.2,0.2s-0.1,0.2-0.2,0.2s-0.2-0.1-0.2-0.2
		C87.8,39.9,87.9,39.8,88,39.8 M88,41.2c-0.1,0-0.2-0.1-0.2-0.2s0.1-0.2,0.2-0.2s0.2,0.1,0.2,0.2C88.3,41.2,88.2,41.2,88,41.2
		 M88.6,39.2c0.1,0,0.2,0.1,0.2,0.2s-0.1,0.2-0.2,0.2s-0.2-0.1-0.2-0.2C88.3,39.3,88.4,39.2,88.6,39.2 M88.6,40.7
		c-0.1,0-0.2-0.1-0.2-0.2s0.1-0.2,0.2-0.2s0.2,0.1,0.2,0.2S88.7,40.7,88.6,40.7 M88.8,38.9c0-0.1,0.1-0.2,0.2-0.2s0.2,0.1,0.2,0.2
		s-0.1,0.2-0.2,0.2C88.9,39.2,88.8,39.1,88.8,38.9 M89.1,39.8c0.1,0,0.2,0.1,0.2,0.2s-0.1,0.2-0.2,0.2s-0.2-0.1-0.2-0.2
		S88.9,39.8,89.1,39.8 M89.1,41.2c-0.1,0-0.2-0.1-0.2-0.2s0.1-0.2,0.2-0.2s0.2,0.1,0.2,0.2C89.3,41.2,89.2,41.2,89.1,41.2
		 M89.6,39.2c0.1,0,0.2,0.1,0.2,0.2s-0.1,0.2-0.2,0.2s-0.2-0.1-0.2-0.2C89.3,39.3,89.4,39.2,89.6,39.2 M89.6,40.7
		c-0.1,0-0.2-0.1-0.2-0.2s0.1-0.2,0.2-0.2s0.2,0.1,0.2,0.2C89.8,40.6,89.7,40.7,89.6,40.7 M89.8,38.9c0-0.1,0.1-0.2,0.2-0.2
		s0.2,0.1,0.2,0.2s-0.1,0.2-0.2,0.2C90,39.2,89.8,39.1,89.8,38.9 M90.1,39.7c0.1,0,0.2,0.1,0.2,0.2s-0.1,0.2-0.2,0.2
		s-0.2-0.1-0.2-0.2S90,39.8,90.1,39.7 M90.1,41.2c-0.1,0-0.2-0.1-0.2-0.2s0.1-0.2,0.2-0.2s0.2,0.1,0.2,0.2
		C90.3,41.1,90.3,41.2,90.1,41.2 M90.6,39.2c0.1,0,0.2,0.1,0.2,0.2s-0.1,0.2-0.2,0.2s-0.2-0.1-0.2-0.2
		C90.3,39.3,90.5,39.2,90.6,39.2 M90.6,40.2c0.1,0,0.2,0.1,0.2,0.2s-0.1,0.2-0.2,0.2s-0.2-0.1-0.2-0.2
		C90.4,40.4,90.5,40.2,90.6,40.2 M90.6,41.8c-0.1,0-0.2-0.1-0.2-0.2s0.1-0.2,0.2-0.2s0.2,0.1,0.2,0.2C90.9,41.6,90.8,41.8,90.6,41.8
		 M91.2,39.7c0.1,0,0.2,0.1,0.2,0.2s-0.1,0.2-0.2,0.2S91,40,91,39.9C90.9,39.8,91,39.7,91.2,39.7 M91.2,41.2c-0.1,0-0.2-0.1-0.2-0.2
		s0.1-0.2,0.2-0.2s0.2,0.1,0.2,0.2C91.4,41.1,91.3,41.2,91.2,41.2 M91.7,39.2c0.1,0,0.2,0.1,0.2,0.2s-0.1,0.2-0.2,0.2
		s-0.2-0.1-0.2-0.2C91.4,39.3,91.5,39.2,91.7,39.2 M91.7,40.2c0.1,0,0.2,0.1,0.2,0.2s-0.1,0.2-0.2,0.2s-0.2-0.1-0.2-0.2
		C91.4,40.4,91.5,40.2,91.7,40.2 M91.7,41.7c-0.1,0-0.2-0.1-0.2-0.2s0.1-0.2,0.2-0.2s0.2,0.1,0.2,0.2S91.8,41.7,91.7,41.7
		 M92.2,39.7c0.1,0,0.2,0.1,0.2,0.2s-0.1,0.2-0.2,0.2s-0.2,0-0.2-0.2C92,39.8,92,39.7,92.2,39.7 M92.2,41.2C92,41.2,92,41.1,92,41
		s0.1-0.2,0.2-0.2s0.2,0.1,0.2,0.2S92.3,41.2,92.2,41.2 M92.4,39.4c0-0.1,0.1-0.2,0.2-0.2s0.2,0.1,0.2,0.2s-0.1,0.2-0.2,0.2
		C92.6,39.6,92.5,39.5,92.4,39.4 M92.7,40.2c0.1,0,0.2,0.1,0.2,0.2s-0.1,0.2-0.2,0.2s-0.2-0.1-0.2-0.2S92.6,40.2,92.7,40.2
		 M92.7,41.7c-0.1,0-0.2-0.1-0.2-0.2s0.1-0.2,0.2-0.2s0.2,0.1,0.2,0.2S92.9,41.7,92.7,41.7 M93.2,39.7c0.1,0,0.2,0.1,0.2,0.2
		s-0.1,0.2-0.2,0.2s-0.2,0-0.2-0.2C93,39.8,93.1,39.7,93.2,39.7 M93.2,41.2c-0.1,0-0.2-0.1-0.2-0.2s0.1-0.2,0.2-0.2s0.2,0.1,0.2,0.2
		C93.5,41,93.4,41.2,93.2,41.2 M93.5,39.4c0-0.1,0.1-0.2,0.2-0.2s0.2,0.1,0.2,0.2s-0.1,0.2-0.2,0.2C93.6,39.6,93.5,39.5,93.5,39.4
		 M93.8,40.2c0.1,0,0.2,0.1,0.2,0.2s-0.1,0.2-0.2,0.2s-0.2-0.1-0.2-0.2S93.6,40.2,93.8,40.2 M93.8,41.7c-0.1,0-0.2-0.1-0.2-0.2
		s0.1-0.2,0.2-0.2s0.2,0.1,0.2,0.2C94,41.5,93.9,41.7,93.8,41.7 M94.3,39.6c0.1,0,0.2,0.1,0.2,0.2S94.4,40,94.3,40s-0.2-0.1-0.2-0.2
		C94.1,39.8,94.1,39.6,94.3,39.6 M94.3,41.2c-0.1,0-0.2-0.1-0.2-0.2s0.1-0.2,0.2-0.2s0.2,0.1,0.2,0.2C94.5,41,94.4,41.2,94.3,41.2
		 M94.5,39.4c0-0.1,0.1-0.2,0.2-0.2s0.2,0.1,0.2,0.2s-0.1,0.2-0.2,0.2C94.6,39.6,94.5,39.5,94.5,39.4 M94.8,40.1
		c0.1,0,0.2,0.1,0.2,0.2s-0.1,0.2-0.2,0.2s-0.2-0.1-0.2-0.2C94.6,40.3,94.6,40.1,94.8,40.1 M94.8,41.6c-0.1,0-0.2-0.1-0.2-0.2
		s0.1-0.2,0.2-0.2s0.2,0.1,0.2,0.2S94.9,41.6,94.8,41.6 M95.3,39.6c0.1,0,0.2,0.1,0.2,0.2S95.4,40,95.3,40s-0.2-0.1-0.2-0.2
		C95.1,39.8,95.2,39.6,95.3,39.6 M95.3,41.1c-0.1,0-0.2-0.1-0.2-0.2s0.1-0.2,0.2-0.2s0.2,0.1,0.2,0.2S95.5,41.1,95.3,41.1
		 M95.5,39.3c0-0.1,0.1-0.2,0.2-0.2s0.2,0.1,0.2,0.2s-0.1,0.2-0.2,0.2C95.7,39.5,95.5,39.5,95.5,39.3 M95.8,40.1
		c0.1,0,0.2,0.1,0.2,0.2s-0.1,0.2-0.2,0.2s-0.2-0.1-0.2-0.2S95.7,40.1,95.8,40.1 M95.8,41.6c-0.1,0-0.2-0.1-0.2-0.2s0.1-0.2,0.2-0.2
		s0.2,0.1,0.2,0.2C96.1,41.5,96,41.6,95.8,41.6 M96.4,39.6c0.1,0,0.2,0.1,0.2,0.2S96.5,40,96.4,40s-0.2-0.1-0.2-0.2
		S96.2,39.6,96.4,39.6 M96.4,41.1c-0.1,0-0.2-0.1-0.2-0.2s0.1-0.2,0.2-0.2s0.2,0.1,0.2,0.2S96.5,41.1,96.4,41.1 M96.6,39.3
		c0-0.1,0.1-0.2,0.2-0.2s0.2,0.1,0.2,0.2s-0.1,0.2-0.2,0.2S96.6,39.5,96.6,39.3 M96.9,40.1c0.1,0,0.2,0.1,0.2,0.2s-0.1,0.2-0.2,0.2
		s-0.2-0.1-0.2-0.2S96.7,40.1,96.9,40.1 M96.9,41.6c-0.1,0-0.2-0.1-0.2-0.2s0.1-0.2,0.2-0.2s0.2,0.1,0.2,0.2S97,41.6,96.9,41.6
		 M97.4,39.6c0.1,0,0.2,0.1,0.2,0.2S97.5,40,97.4,40s-0.2-0.1-0.2-0.2S97.2,39.6,97.4,39.6 M97.4,40.6c0.1,0,0.2,0.1,0.2,0.2
		S97.5,41,97.4,41s-0.2-0.1-0.2-0.2C97.2,40.7,97.2,40.7,97.4,40.6 M97.4,42.1c-0.1,0-0.2-0.1-0.2-0.2s0.1-0.2,0.2-0.2
		s0.2,0.1,0.2,0.2C97.7,42,97.5,42.1,97.4,42.1 M97.9,40.1c0.1,0,0.2,0.1,0.2,0.2s-0.1,0.2-0.2,0.2s-0.2-0.1-0.2-0.2
		C97.7,40.2,97.8,40.1,97.9,40.1 M97.9,41.6c-0.1,0-0.2-0.1-0.2-0.2s0.1-0.2,0.2-0.2s0.2,0.1,0.2,0.2S98.1,41.6,97.9,41.6
		 M98.4,39.5c0.1,0,0.2,0.1,0.2,0.2s0,0.3-0.2,0.3c-0.1,0-0.2-0.1-0.2-0.2C98.2,39.7,98.3,39.5,98.4,39.5 M98.4,40.6
		c0.1,0,0.2,0.1,0.2,0.2s0,0.2-0.2,0.2c-0.1,0-0.2-0.1-0.2-0.2C98.2,40.7,98.3,40.6,98.4,40.6 M98.4,42.1c-0.1,0-0.2-0.1-0.2-0.2
		s0.1-0.2,0.2-0.2s0.2,0.1,0.2,0.2C98.7,42,98.6,42.1,98.4,42.1 M99,40.1c0.1,0,0.2,0.1,0.2,0.2s-0.1,0.2-0.2,0.2s-0.2-0.1-0.2-0.2
		C98.7,40.2,98.8,40.1,99,40.1 M99,41.5c-0.1,0-0.2-0.1-0.2-0.2s0.1-0.2,0.2-0.2s0.2,0.1,0.2,0.2C99.2,41.5,99.1,41.5,99,41.5
		 M99.5,39.5c0.1,0,0.2,0.1,0.2,0.2S99.6,40,99.5,40s-0.2-0.1-0.2-0.2C99.3,39.7,99.3,39.5,99.5,39.5 M99.5,40.6
		c0.1,0,0.2,0.1,0.2,0.2S99.6,41,99.5,41s-0.2-0.1-0.2-0.2C99.3,40.7,99.3,40.6,99.5,40.6 M99.5,42.1c-0.1,0-0.2-0.1-0.2-0.2
		s0.1-0.2,0.2-0.2s0.2,0.1,0.2,0.2C99.8,42,99.6,42.1,99.5,42.1 M100,40.1c0.1,0,0.2,0.1,0.2,0.2s-0.1,0.2-0.2,0.2s-0.2-0.1-0.2-0.2
		C99.8,40.1,99.8,40.1,100,40.1 M100,41.5c-0.1,0-0.2-0.1-0.2-0.2s0.1-0.2,0.2-0.2s0.2,0.1,0.2,0.2S100.1,41.5,100,41.5 M100.5,39.5
		c0.1,0,0.2,0.1,0.2,0.2s-0.1,0.2-0.2,0.2s-0.2-0.1-0.2-0.2S100.4,39.5,100.5,39.5 M100.5,40.6c0.1,0,0.2,0.1,0.2,0.2
		s-0.1,0.2-0.2,0.2s-0.2-0.1-0.2-0.2C100.3,40.7,100.4,40.6,100.5,40.6 M100.5,42.1c-0.1,0-0.2-0.1-0.2-0.2s0.1-0.2,0.2-0.2
		s0.2,0.1,0.2,0.2C100.8,41.9,100.7,42.1,100.5,42.1 M101,40.1c0.1,0,0.2,0.1,0.2,0.2s-0.1,0.2-0.2,0.2s-0.2-0.1-0.2-0.2
		C100.8,40.1,100.9,40.1,101,40.1 M101,41.5c-0.1,0-0.2-0.1-0.2-0.2s0.1-0.2,0.2-0.2s0.2,0.1,0.2,0.2
		C101.3,41.4,101.2,41.5,101,41.5 M101.6,39.5c0.1,0,0.2,0.1,0.2,0.2s-0.1,0.2-0.2,0.2s-0.2-0.1-0.2-0.2S101.4,39.5,101.6,39.5
		 M101.6,40.5c0.1,0,0.2,0.1,0.2,0.2s-0.1,0.2-0.2,0.2s-0.2-0.1-0.2-0.2C101.3,40.7,101.4,40.5,101.6,40.5 M101.6,42.1
		c-0.1,0-0.2-0.1-0.2-0.2s0.1-0.2,0.2-0.2s0.2,0.1,0.2,0.2C101.9,41.9,101.7,42.1,101.6,42.1 M102.1,40c0.1,0,0.2,0.1,0.2,0.2
		s-0.1,0.2-0.2,0.2s-0.2-0.1-0.2-0.2S101.9,40,102.1,40 M102.1,41.5c-0.1,0-0.2-0.1-0.2-0.2s0.1-0.2,0.2-0.2s0.2,0.1,0.2,0.2
		C102.3,41.4,102.2,41.5,102.1,41.5 M102.6,39.5c0.1,0,0.2,0.1,0.2,0.2s-0.1,0.2-0.2,0.2s-0.2-0.1-0.2-0.2
		C102.3,39.6,102.4,39.5,102.6,39.5 M102.6,40.5c0.1,0,0.2,0.1,0.2,0.2s-0.1,0.2-0.2,0.2s-0.2-0.1-0.2-0.2
		C102.4,40.7,102.4,40.5,102.6,40.5 M102.6,42c-0.1,0-0.2-0.1-0.2-0.2s0.1-0.2,0.2-0.2s0.2,0.1,0.2,0.2
		C102.9,41.9,102.7,42,102.6,42 M103.1,40c0.1,0,0.2,0.1,0.2,0.2s-0.1,0.2-0.2,0.2s-0.2-0.1-0.2-0.2S103,40,103.1,40 M103.1,41.5
		c-0.1,0-0.2-0.1-0.2-0.2s0.1-0.2,0.2-0.2s0.2,0.1,0.2,0.2S103.3,41.5,103.1,41.5 M103.6,39.5c0.1,0,0.2,0.1,0.2,0.2
		s-0.1,0.2-0.2,0.2s-0.2-0.1-0.2-0.2C103.3,39.6,103.5,39.5,103.6,39.5 M103.6,41c-0.1,0-0.2-0.1-0.2-0.2s0.1-0.2,0.2-0.2
		s0.2,0.1,0.2,0.2S103.8,41,103.6,41 M103.9,39.2c0-0.1,0.1-0.2,0.2-0.2s0.2,0.1,0.2,0.2s-0.1,0.2-0.2,0.2S103.9,39.3,103.9,39.2
		 M104.2,40c0.1,0,0.2,0.1,0.2,0.2s-0.1,0.2-0.2,0.2s-0.2-0.1-0.2-0.2S104,40,104.2,40 M104.2,41.5c-0.1,0-0.2-0.1-0.2-0.2
		s0.1-0.2,0.2-0.2s0.2,0.1,0.2,0.2C104.4,41.4,104.3,41.5,104.2,41.5 M104.7,39.5c0.1,0,0.2,0.1,0.2,0.2s-0.1,0.2-0.2,0.2
		s-0.2-0.1-0.2-0.2C104.5,39.5,104.5,39.5,104.7,39.5 M104.7,41c-0.1,0-0.2-0.1-0.2-0.2s0.1-0.2,0.2-0.2s0.2,0.1,0.2,0.2
		S104.8,41,104.7,41 M104.9,39.2c0-0.1,0.1-0.2,0.2-0.2s0.2,0.1,0.2,0.2s-0.1,0.2-0.2,0.2S104.9,39.3,104.9,39.2 M105.2,40
		c0.1,0,0.2,0.1,0.2,0.2s-0.1,0.2-0.2,0.2s-0.2-0.1-0.2-0.2S105,40,105.2,40 M105.2,41.5c-0.1,0-0.2-0.1-0.2-0.2s0.1-0.2,0.2-0.2
		s0.2,0.1,0.2,0.2C105.4,41.3,105.3,41.5,105.2,41.5 M105.7,39.4c0.1,0,0.2,0.1,0.2,0.2s-0.1,0.2-0.2,0.2s-0.2-0.1-0.2-0.2
		C105.4,39.5,105.6,39.4,105.7,39.4 M105.7,41c-0.1,0-0.2-0.1-0.2-0.2s0.1-0.2,0.2-0.2s0.2,0.1,0.2,0.2
		C105.9,40.8,105.9,41,105.7,41 M105.9,39.2c0-0.1,0.1-0.2,0.2-0.2s0.2,0.1,0.2,0.2s-0.1,0.2-0.2,0.2L105.9,39.2 M106.2,39.9
		c0.1,0,0.2,0.1,0.2,0.2s-0.1,0.2-0.2,0.2s-0.2-0.1-0.2-0.2C106,40.1,106.1,39.9,106.2,39.9 M106.2,41.5c-0.1,0-0.2-0.1-0.2-0.2
		s0.1-0.2,0.2-0.2s0.2,0.1,0.2,0.2C106.5,41.3,106.4,41.5,106.2,41.5 M106.8,39.4c0.1,0,0.2,0.1,0.2,0.2s-0.1,0.2-0.2,0.2
		s-0.2-0.1-0.2-0.2C106.5,39.5,106.6,39.4,106.8,39.4 M106.8,40.9c-0.1,0-0.2-0.1-0.2-0.2s0.1-0.2,0.2-0.2s0.2,0.1,0.2,0.2
		C107,40.8,106.9,40.9,106.8,40.9 M107,39.1c0-0.1,0.1-0.2,0.2-0.2s0.2,0.1,0.2,0.2s-0.1,0.2-0.2,0.2C107.1,39.4,107,39.2,107,39.1
		 M107.3,39.9c0.1,0,0.2,0.1,0.2,0.2s-0.1,0.2-0.2,0.2s-0.2-0.1-0.2-0.2C107.1,40.1,107.1,39.9,107.3,39.9 M107.3,41.4
		c-0.1,0-0.2-0.1-0.2-0.2s0.1-0.2,0.2-0.2s0.2,0.1,0.2,0.2C107.5,41.3,107.4,41.4,107.3,41.4 M107.8,39.4c0.1,0,0.2,0.1,0.2,0.2
		s-0.1,0.2-0.2,0.2s-0.2-0.1-0.2-0.2C107.5,39.5,107.7,39.4,107.8,39.4 M107.8,40.9c-0.1,0-0.2-0.1-0.2-0.2s0.1-0.2,0.2-0.2
		s0.2,0.1,0.2,0.2C108,40.8,107.9,40.9,107.8,40.9 M108,39.1c0-0.1,0.1-0.2,0.2-0.2s0.2,0.1,0.2,0.2s-0.1,0.2-0.2,0.2
		C108.2,39.3,108,39.2,108,39.1 M108.3,39.9c0.1,0,0.2,0.1,0.2,0.2s-0.1,0.2-0.2,0.2s-0.2-0.1-0.2-0.2S108.2,39.9,108.3,39.9
		 M108.3,41.4c-0.1,0-0.2-0.1-0.2-0.2s0.1-0.2,0.2-0.2s0.2,0.1,0.2,0.2C108.5,41.3,108.5,41.4,108.3,41.4 M108.8,39.4
		c0.1,0,0.2,0.1,0.2,0.2s-0.1,0.2-0.2,0.2s-0.2-0.1-0.2-0.2C108.6,39.5,108.7,39.4,108.8,39.4 M108.8,40.9c-0.1,0-0.2-0.1-0.2-0.2
		s0.1-0.2,0.2-0.2s0.2,0.1,0.2,0.2C109.1,40.7,109,40.9,108.8,40.9 M109.1,38.1c0-0.1,0.1-0.2,0.2-0.2s0.2,0.1,0.2,0.2
		s-0.1,0.2-0.2,0.2S109.1,38.2,109.1,38.1 M109.4,38.9c0.1,0,0.2,0.1,0.2,0.2s-0.1,0.2-0.2,0.2s-0.2-0.1-0.2-0.2
		C109.1,38.9,109.2,38.9,109.4,38.9 M109.4,39.8c0.1,0,0.2,0.1,0.2,0.2s-0.1,0.2-0.2,0.2s-0.2-0.1-0.2-0.2
		C109.1,40,109.2,39.9,109.4,39.8 M109.4,41.4c-0.1,0-0.2-0.1-0.2-0.2s0.1-0.2,0.2-0.2s0.2,0.1,0.2,0.2
		C109.6,41.2,109.5,41.4,109.4,41.4 M109.9,39.3c0.1,0,0.2,0.1,0.2,0.2s-0.1,0.2-0.2,0.2s-0.2-0.1-0.2-0.2
		C109.7,39.5,109.7,39.3,109.9,39.3 M109.9,40.9c-0.1,0-0.2-0.1-0.2-0.2s0.1-0.2,0.2-0.2s0.2,0.1,0.2,0.2
		C110.1,40.7,110,40.9,109.9,40.9 M110.3,38.8c0.1,0,0.2,0.1,0.2,0.2s-0.1,0.2-0.2,0.2s-0.2-0.1-0.2-0.2
		C110.1,38.9,110.3,38.8,110.3,38.8 M110.4,39.8c0.1,0,0.2,0.1,0.2,0.2s-0.1,0.2-0.2,0.2s-0.2-0.1-0.2-0.2
		C110.2,40,110.3,39.8,110.4,39.8 M110.4,41.3c-0.1,0-0.2-0.1-0.2-0.2s0.1-0.2,0.2-0.2s0.2,0.1,0.2,0.2S110.5,41.3,110.4,41.3
		 M110.9,39.3c0.1,0,0.2,0.1,0.2,0.2s-0.1,0.2-0.2,0.2s-0.2-0.1-0.2-0.2C110.6,39.5,110.8,39.3,110.9,39.3 M110.9,40.8
		c-0.1,0-0.2-0.1-0.2-0.2s0.1-0.2,0.2-0.2s0.2,0.1,0.2,0.2S111.1,40.8,110.9,40.8 M111.4,38.8c0.1,0,0.2,0.1,0.2,0.2
		s-0.1,0.2-0.2,0.2s-0.2-0.1-0.2-0.2C111.1,38.9,111.3,38.8,111.4,38.8 M111.4,39.8c0.1,0,0.2,0.1,0.2,0.2s-0.1,0.2-0.2,0.2
		s-0.2-0.1-0.2-0.2C111.2,39.9,111.3,39.8,111.4,39.8 M111.4,41.3c-0.1,0-0.2-0.1-0.2-0.2s0.1-0.2,0.2-0.2s0.2,0.1,0.2,0.2
		S111.6,41.3,111.4,41.3 M112,39.3c0.1,0,0.2,0.1,0.2,0.2s-0.1,0.2-0.2,0.2s-0.2-0.1-0.2-0.2C111.7,39.4,111.8,39.3,112,39.3
		 M112,40.8c-0.1,0-0.2-0.1-0.2-0.2s0.1-0.2,0.2-0.2s0.2,0.1,0.2,0.2S112.1,40.8,112,40.8 M112.5,38.8c0.1,0,0.2,0.1,0.2,0.2
		s-0.1,0.2-0.2,0.2s-0.2-0.1-0.2-0.2C112.2,38.9,112.3,38.8,112.5,38.8 M112.5,40.3c-0.1,0-0.2-0.1-0.2-0.2s0.1-0.2,0.2-0.2
		s0.2,0.1,0.2,0.2S112.6,40.3,112.5,40.3 M112.7,38.5c0-0.1,0.1-0.2,0.2-0.2s0.2,0.1,0.2,0.2s-0.1,0.2-0.2,0.2
		C112.9,38.7,112.7,38.6,112.7,38.5 M113,39.3c0.1,0,0.2,0.1,0.2,0.2s-0.1,0.2-0.2,0.2s-0.2-0.1-0.2-0.2
		C112.7,39.4,112.9,39.3,113,39.3 M113,40.8c-0.1,0-0.2-0.1-0.2-0.2s0.1-0.2,0.2-0.2s0.2,0.1,0.2,0.2S113.2,40.8,113,40.8
		 M113.5,38.8c0.1,0,0.2,0.1,0.2,0.2s-0.1,0.2-0.2,0.2s-0.2-0.1-0.2-0.2C113.2,38.9,113.4,38.8,113.5,38.8 M113.5,40.3
		c-0.1,0-0.2-0.1-0.2-0.2s0.1-0.2,0.2-0.2s0.2,0.1,0.2,0.2C113.7,40.1,113.7,40.3,113.5,40.3 M113.7,38.5c0-0.1,0.1-0.2,0.2-0.2
		s0.2,0.1,0.2,0.2s-0.1,0.2-0.2,0.2C113.9,38.7,113.7,38.6,113.7,38.5 M114,39.2c0.1,0,0.2,0.1,0.2,0.2s-0.1,0.2-0.2,0.2
		s-0.2-0.1-0.2-0.2C113.7,39.4,113.9,39.2,114,39.2 M114,40.8c-0.1,0-0.2-0.1-0.2-0.2s0.1-0.2,0.2-0.2s0.2,0.1,0.2,0.2
		C114.3,40.7,114.2,40.8,114,40.8 M114.6,38.7c0.1,0,0.2,0.1,0.2,0.2s-0.1,0.2-0.2,0.2s-0.2-0.1-0.2-0.2
		C114.3,38.9,114.4,38.7,114.6,38.7 M114.6,40.3c-0.1,0-0.2-0.1-0.2-0.2s0.1-0.2,0.2-0.2s0.2,0.1,0.2,0.2
		C114.8,40.1,114.7,40.2,114.6,40.3 M114.8,37.5c0-0.1,0.1-0.2,0.2-0.2s0.2,0.1,0.2,0.2s-0.1,0.2-0.2,0.2S114.8,37.5,114.8,37.5
		 M115,38.2c0.1,0,0.2,0.1,0.2,0.2s-0.1,0.2-0.2,0.2s-0.2-0.1-0.2-0.2S114.9,38.2,115,38.2 M115.1,39.2c0.1,0,0.2,0.1,0.2,0.2
		s-0.1,0.2-0.2,0.2s-0.2-0.1-0.2-0.2C114.8,39.4,114.9,39.2,115.1,39.2 M115.1,40.7c-0.1,0-0.2-0.1-0.2-0.2s0.1-0.2,0.2-0.2
		s0.2,0.1,0.2,0.2S115.2,40.7,115.1,40.7 M115.5,38.7c0.1,0,0.2,0.1,0.2,0.2s-0.1,0.2-0.2,0.2s-0.2-0.1-0.2-0.2L115.5,38.7
		 M115.6,40.2c-0.1,0-0.2-0.1-0.2-0.2s0.1-0.2,0.2-0.2s0.2,0.1,0.2,0.2S115.8,40.2,115.6,40.2 M116,38.2c0.1,0,0.2,0.1,0.2,0.2
		s-0.1,0.2-0.2,0.2s-0.2-0.1-0.2-0.2S116,38.2,116,38.2 M116.1,39.2c0.1,0,0.2,0.1,0.2,0.2s-0.1,0.2-0.2,0.2s-0.2-0.1-0.2-0.2
		C115.8,39.3,116,39.2,116.1,39.2 M116.1,40.7c-0.1,0-0.2-0.1-0.2-0.2s0.1-0.2,0.2-0.2s0.2,0.1,0.2,0.2
		C116.3,40.7,116.3,40.7,116.1,40.7 M116.6,38.7c0.1,0,0.2,0.1,0.2,0.2s-0.1,0.2-0.2,0.2s-0.2-0.1-0.2-0.2
		C116.3,38.8,116.5,38.7,116.6,38.7 M116.6,40.2c-0.1,0-0.2-0.1-0.2-0.2s0.1-0.2,0.2-0.2s0.2,0.1,0.2,0.2S116.8,40.2,116.6,40.2
		 M117.1,38.2c0.1,0,0.2,0.1,0.2,0.2s-0.1,0.2-0.2,0.2s-0.2-0.1-0.2-0.2S117,38.2,117.1,38.2 M117.2,39.7c-0.1,0-0.2-0.1-0.2-0.2
		s0.1-0.2,0.2-0.2s0.2,0.1,0.2,0.2C117.4,39.5,117.2,39.7,117.2,39.7 M117.4,37.9c0-0.1,0.1-0.2,0.2-0.2s0.2,0.1,0.2,0.2
		s-0.1,0.2-0.2,0.2C117.5,38.1,117.4,38.1,117.4,37.9 M117.7,38.6c0.1,0,0.2,0.1,0.2,0.2s-0.1,0.2-0.2,0.2s-0.2-0.1-0.2-0.2
		C117.4,38.8,117.5,38.6,117.7,38.6 M117.7,40.2c-0.1,0-0.2-0.1-0.2-0.2s0.1-0.2,0.2-0.2s0.2,0.1,0.2,0.2
		C117.9,40.1,117.8,40.2,117.7,40.2 M118.1,38.1c0.1,0,0.2,0.1,0.2,0.2s-0.1,0.2-0.2,0.2s-0.2-0.1-0.2-0.2L118.1,38.1 M118.2,39.7
		c-0.1,0-0.2-0.1-0.2-0.2s0.1-0.2,0.2-0.2s0.2,0.1,0.2,0.2C118.4,39.5,118.4,39.7,118.2,39.7 M118.4,37.9c0-0.1,0.1-0.2,0.2-0.2
		s0.2,0.1,0.2,0.2s-0.1,0.2-0.2,0.2C118.6,38.1,118.4,38,118.4,37.9 M118.6,38.6c0.1,0,0.2,0.1,0.2,0.2s-0.1,0.2-0.2,0.2
		s-0.2-0.1-0.2-0.2L118.6,38.6 M118.7,40.1c-0.1,0-0.2-0.1-0.2-0.2s0.1-0.2,0.2-0.2s0.2,0.1,0.2,0.2
		C118.9,40.1,118.9,40.1,118.7,40.1 M119.2,38.1c0.1,0,0.2,0.1,0.2,0.2s-0.1,0.2-0.2,0.2s-0.2-0.1-0.2-0.2
		C118.9,38.3,119.1,38.1,119.2,38.1 M119.2,39.6c-0.1,0-0.2-0.1-0.2-0.2s0.1-0.2,0.2-0.2s0.2,0.1,0.2,0.2S119.4,39.6,119.2,39.6
		 M119.7,37.6c0.1,0,0.2,0.1,0.2,0.2s-0.1,0.2-0.2,0.2s-0.2-0.1-0.2-0.2C119.5,37.8,119.5,37.6,119.7,37.6 M119.7,38.6
		c0.1,0,0.2,0.1,0.2,0.2s-0.1,0.2-0.2,0.2s-0.2-0.1-0.2-0.2C119.5,38.7,119.6,38.6,119.7,38.6 M119.8,40.1c-0.1,0-0.2-0.1-0.2-0.2
		s0.1-0.2,0.2-0.2s0.2,0.1,0.2,0.2C120,40.1,119.9,40.1,119.8,40.1 M120.2,38.1c0.1,0,0.2,0.1,0.2,0.2s-0.1,0.2-0.2,0.2
		s-0.2-0.1-0.2-0.2S120.1,38.1,120.2,38.1 M120.3,39.6c-0.1,0-0.2-0.1-0.2-0.2s0.1-0.2,0.2-0.2s0.2,0.1,0.2,0.2
		S120.4,39.6,120.3,39.6 M120.7,37.6c0.1,0,0.2,0.1,0.2,0.2s-0.1,0.2-0.2,0.2s-0.2-0.1-0.2-0.2C120.5,37.7,120.6,37.6,120.7,37.6
		 M120.8,39.1c-0.1,0-0.2-0.1-0.2-0.2s0.1-0.2,0.2-0.2s0.2,0.1,0.2,0.2S120.9,39.1,120.8,39.1 M121,37.3c0-0.1,0.1-0.2,0.2-0.2
		s0.2,0.1,0.2,0.2s-0.1,0.2-0.2,0.2S121,37.5,121,37.3 M121.3,38.1c0.1,0,0.2,0.1,0.2,0.2s-0.1,0.2-0.2,0.2s-0.2-0.1-0.2-0.2
		S121.2,38.1,121.3,38.1 M121.3,39.6c-0.1,0-0.2-0.1-0.2-0.2s0.1-0.2,0.2-0.2s0.2,0.1,0.2,0.2S121.5,39.6,121.3,39.6 M121.8,37.5
		c0.1,0,0.2,0.1,0.2,0.2s-0.1,0.2-0.2,0.2s-0.2-0.1-0.2-0.2C121.5,37.7,121.6,37.6,121.8,37.5 M121.8,39.1c-0.1,0-0.2-0.1-0.2-0.2
		s0.1-0.2,0.2-0.2s0.2,0.1,0.2,0.2C122.1,38.9,121.9,39.1,121.8,39.1 M122.1,37.3c0-0.1,0.1-0.2,0.2-0.2s0.2,0.1,0.2,0.2
		s-0.1,0.2-0.2,0.2C122.1,37.5,122.1,37.4,122.1,37.3 M122.3,38.1c0.1,0,0.2,0.1,0.2,0.2s-0.1,0.2-0.2,0.2s-0.2-0.1-0.2-0.2
		C122.1,38.2,122.2,38.1,122.3,38.1 M122.4,39.6c-0.1,0-0.2-0.1-0.2-0.2s0.1-0.2,0.2-0.2s0.2,0.1,0.2,0.2S122.5,39.6,122.4,39.6
		 M122.8,37.5c0.1,0,0.2,0.1,0.2,0.2s0,0.3-0.2,0.3s-0.2-0.1-0.2-0.2C122.6,37.7,122.7,37.5,122.8,37.5 M122.9,39.1
		c-0.1,0-0.2-0.1-0.2-0.2s0.1-0.2,0.2-0.2s0.2,0.1,0.2,0.2C123.1,38.9,123,39,122.9,39.1 M123.1,36.3c0-0.1,0.1-0.2,0.2-0.2
		s0.2,0.1,0.2,0.2s-0.1,0.2-0.2,0.2S123.1,36.3,123.1,36.3 M123.3,37c0.1,0,0.2,0.1,0.2,0.2s-0.1,0.2-0.2,0.2s-0.2-0.1-0.2-0.2
		C123.1,37.2,123.2,37,123.3,37 M123.3,38.1c0.1,0,0.2,0.1,0.2,0.2s-0.1,0.2-0.2,0.2s-0.2-0.1-0.2-0.2
		C123.1,38.2,123.3,38.1,123.3,38.1 M123.4,39.5c-0.1,0-0.2-0.1-0.2-0.2s0.1-0.2,0.2-0.2s0.2,0.1,0.2,0.2
		C123.6,39.5,123.5,39.5,123.4,39.5 M123.9,37.5c0.1,0,0.2,0.1,0.2,0.2S124,38,123.9,38s-0.2-0.1-0.2-0.2S123.7,37.5,123.9,37.5
		 M123.9,39c-0.1,0-0.2-0.1-0.2-0.2s0.1-0.2,0.2-0.2s0.2,0.1,0.2,0.2S124,39,123.9,39 M124.4,37c0.1,0,0.2,0.1,0.2,0.2
		s-0.1,0.2-0.2,0.2s-0.2-0.1-0.2-0.2S124.2,37,124.4,37 M124.4,38.1c0.1,0,0.2,0.1,0.2,0.2s-0.1,0.2-0.2,0.2s-0.2-0.1-0.2-0.2
		S124.3,38.1,124.4,38.1 M124.4,39.5c-0.1,0-0.2-0.1-0.2-0.2s0.1-0.2,0.2-0.2s0.2,0.1,0.2,0.2C124.7,39.5,124.5,39.5,124.4,39.5
		 M124.9,37.5c0.1,0,0.2,0.1,0.2,0.2S125,38,124.9,38s-0.2-0.1-0.2-0.2C124.7,37.6,124.7,37.5,124.9,37.5 M125,39
		c-0.1,0-0.2-0.1-0.2-0.2s0.1-0.2,0.2-0.2s0.2,0.1,0.2,0.2S125,39,125,39 M125.4,37c0.1,0,0.2,0.1,0.2,0.2s-0.1,0.2-0.2,0.2
		s-0.2-0.1-0.2-0.2S125.3,37,125.4,37 M125.4,38.5c-0.1,0-0.2-0.1-0.2-0.2s0.1-0.2,0.2-0.2s0.2,0.1,0.2,0.2
		C125.7,38.3,125.6,38.5,125.4,38.5 M125.7,36.7c0-0.1,0.1-0.2,0.2-0.2s0.2,0.1,0.2,0.2c0,0.1-0.1,0.2-0.2,0.2
		C125.8,36.9,125.7,36.9,125.7,36.7 M125.9,37.5c0.1,0,0.2,0.1,0.2,0.2s-0.1,0.2-0.2,0.2s-0.2-0.1-0.2-0.2
		C125.7,37.6,125.8,37.5,125.9,37.5 M126,39c-0.1,0-0.2-0.1-0.2-0.2s0.1-0.2,0.2-0.2s0.2,0.1,0.2,0.2S126.1,39,126,39 M126.5,36.9
		c0.1,0,0.2,0.1,0.2,0.2s-0.1,0.2-0.2,0.2s-0.2-0.1-0.2-0.2C126.2,37.1,126.3,36.9,126.5,36.9 M126.5,38.5c-0.1,0-0.2-0.1-0.2-0.2
		s0.1-0.2,0.2-0.2s0.2,0.1,0.2,0.2C126.8,38.3,126.6,38.5,126.5,38.5 M126.7,35.7c0-0.1,0.1-0.2,0.2-0.2s0.2,0.1,0.2,0.2
		s-0.1,0.2-0.2,0.2C126.8,35.9,126.8,35.7,126.7,35.7 M127,36.4c0.1,0,0.2,0.1,0.2,0.2s-0.1,0.2-0.2,0.2s-0.2-0.1-0.2-0.2
		C126.8,36.6,126.8,36.4,127,36.4 M127,37.5c0.1,0,0.2,0.1,0.2,0.2s-0.1,0.2-0.2,0.2s-0.2-0.1-0.2-0.2S126.8,37.5,127,37.5
		 M127,38.9c-0.1,0-0.2-0.1-0.2-0.2s0.1-0.2,0.2-0.2s0.2,0.1,0.2,0.2S127.1,38.9,127,38.9 M127.5,36.9c0.1,0,0.2,0.1,0.2,0.2
		s-0.1,0.2-0.2,0.2s-0.2-0.1-0.2-0.2C127.3,37.1,127.3,36.9,127.5,36.9 M127.5,38.4c-0.1,0-0.2-0.1-0.2-0.2s0.1-0.2,0.2-0.2
		s0.2,0.1,0.2,0.2C127.8,38.3,127.6,38.4,127.5,38.4 M128,36.4c0.1,0,0.2,0.1,0.2,0.2s-0.1,0.2-0.2,0.2s-0.2-0.1-0.2-0.2
		C127.8,36.6,127.9,36.4,128,36.4 M128,37.5c0.1,0,0.2,0.1,0.2,0.2s-0.1,0.2-0.2,0.2s-0.2-0.1-0.2-0.2
		C127.8,37.5,127.9,37.5,128,37.5 M128.1,38.9c-0.1,0-0.2-0.1-0.2-0.2s0.1-0.2,0.2-0.2s0.2,0.1,0.2,0.2S128.2,38.9,128.1,38.9
		 M128.5,36.9c0.1,0,0.2,0.1,0.2,0.2s-0.1,0.2-0.2,0.2s-0.2-0.1-0.2-0.2S128.4,36.9,128.5,36.9 M128.5,38.4c-0.1,0-0.2-0.1-0.2-0.2
		s0.1-0.2,0.2-0.2s0.2,0.1,0.2,0.2C128.8,38.3,128.7,38.4,128.5,38.4 M129.1,36.4c0.1,0,0.2,0.1,0.2,0.2s-0.1,0.2-0.2,0.2
		c-0.1,0-0.2-0.1-0.2-0.2S128.9,36.4,129.1,36.4 M129.1,37.9c-0.1,0-0.2-0.1-0.2-0.2s0.1-0.2,0.2-0.2s0.2,0.1,0.2,0.2
		C129.3,37.8,129.2,37.9,129.1,37.9 M129.4,36.1c0-0.1,0.1-0.2,0.2-0.2c0.1,0,0.2,0.1,0.2,0.2s-0.1,0.2-0.2,0.2
		S129.4,36.3,129.4,36.1 M129.6,36.9c0.1,0,0.2,0.1,0.2,0.2s-0.1,0.2-0.2,0.2s-0.2-0.1-0.2-0.2S129.4,36.9,129.6,36.9 M129.6,38.4
		c-0.1,0-0.2-0.1-0.2-0.2s0.1-0.2,0.2-0.2c0.1,0,0.2,0.1,0.2,0.2C129.9,38.3,129.7,38.4,129.6,38.4 M130.1,36.3
		c0.1,0,0.2,0.1,0.2,0.2c0,0.1-0.1,0.2-0.2,0.2s-0.2-0.1-0.2-0.2C129.9,36.5,129.9,36.4,130.1,36.3 M130.1,37.9
		c-0.1,0-0.2-0.1-0.2-0.2s0.1-0.2,0.2-0.2s0.2,0.1,0.2,0.2C130.3,37.8,130.2,37.9,130.1,37.9 M130.3,35.1c0-0.1,0.1-0.2,0.2-0.2
		s0.2,0.1,0.2,0.2s-0.1,0.2-0.2,0.2C130.5,35.3,130.3,35.2,130.3,35.1 M130.6,35.8c0.1,0,0.2,0.1,0.2,0.2s-0.1,0.2-0.2,0.2
		c-0.1,0-0.2-0.1-0.2-0.2C130.4,36,130.5,35.8,130.6,35.8 M130.6,36.9c0.1,0,0.2,0.1,0.2,0.2s-0.1,0.2-0.2,0.2
		c-0.1,0-0.2-0.1-0.2-0.2C130.4,37,130.5,36.9,130.6,36.9 M130.6,38.4c-0.1,0-0.2-0.1-0.2-0.2s0.1-0.2,0.2-0.2s0.2,0.1,0.2,0.2
		C130.9,38.3,130.8,38.3,130.6,38.4 M131.1,36.3c0.1,0,0.2,0.1,0.2,0.2c0,0.1-0.1,0.2-0.2,0.2s-0.2-0.1-0.2-0.2
		C130.9,36.5,131,36.3,131.1,36.3 M131.1,37.8c-0.1,0-0.2-0.1-0.2-0.2s0.1-0.2,0.2-0.2s0.2,0.1,0.2,0.2S131.3,37.8,131.1,37.8
		 M131.7,35.8c0.1,0,0.2,0.1,0.2,0.2s-0.1,0.2-0.2,0.2s-0.2-0.1-0.2-0.2C131.4,36,131.5,35.8,131.7,35.8 M131.7,37.3
		c-0.1,0-0.2-0.1-0.2-0.2s0.1-0.2,0.2-0.2s0.2,0.1,0.2,0.2S131.8,37.3,131.7,37.3 M131.9,35.5c0-0.1,0.1-0.2,0.2-0.2
		s0.2,0.1,0.2,0.2s-0.1,0.2-0.2,0.2C132,35.8,131.9,35.7,131.9,35.5 M132.2,36.3c0.1,0,0.2,0.1,0.2,0.2c0,0.1-0.1,0.2-0.2,0.2
		c-0.1,0-0.2-0.1-0.2-0.2C132,36.4,132,36.3,132.2,36.3 M132.2,37.8c-0.1,0-0.2-0.1-0.2-0.2s0.1-0.2,0.2-0.2s0.2,0.1,0.2,0.2
		S132.3,37.8,132.2,37.8 M132.7,35.8c0.1,0,0.2,0.1,0.2,0.2s-0.1,0.2-0.2,0.2s-0.2-0.1-0.2-0.2S132.5,35.8,132.7,35.8 M132.7,37.3
		c-0.1,0-0.2-0.1-0.2-0.2s0.1-0.2,0.2-0.2s0.2,0.1,0.2,0.2S132.8,37.3,132.7,37.3 M132.9,35.5c0-0.1,0.1-0.2,0.2-0.2
		s0.2,0.1,0.2,0.2s-0.1,0.2-0.2,0.2C133.1,35.7,132.9,35.7,132.9,35.5 M133.2,36.3c0.1,0,0.2,0.1,0.2,0.2c0,0.1-0.1,0.2-0.2,0.2
		s-0.2-0.1-0.2-0.2C133,36.4,133.1,36.3,133.2,36.3 M133.2,37.8c-0.1,0-0.2-0.1-0.2-0.2s0.1-0.2,0.2-0.2s0.2,0.1,0.2,0.2
		S133.4,37.8,133.2,37.8 M133.7,35.8c0.1,0,0.2,0.1,0.2,0.2s-0.1,0.2-0.2,0.2s-0.2-0.1-0.2-0.2S133.6,35.8,133.7,35.8 M133.7,37.3
		c-0.1,0-0.2-0.1-0.2-0.2s0.1-0.2,0.2-0.2c0.1,0,0.2,0.1,0.2,0.2C134,37.2,133.9,37.3,133.7,37.3 M134.3,35.3c0.1,0,0.2,0.1,0.2,0.2
		s-0.1,0.2-0.2,0.2s-0.2-0.1-0.2-0.2C134,35.4,134.1,35.3,134.3,35.3 M134.3,36.3c0.1,0,0.2,0.1,0.2,0.2s-0.1,0.2-0.2,0.2
		s-0.2-0.1-0.2-0.2C134,36.4,134.1,36.3,134.3,36.3 M134.3,37.8c-0.1,0-0.2-0.1-0.2-0.2s0.1-0.2,0.2-0.2s0.2,0.1,0.2,0.2
		S134.4,37.8,134.3,37.8 M134.8,35.7c0.1,0,0.2,0.1,0.2,0.2s-0.1,0.2-0.2,0.2c-0.1,0-0.2-0.1-0.2-0.2
		C134.6,35.9,134.6,35.7,134.8,35.7 M134.8,37.3c-0.1,0-0.2-0.1-0.2-0.2s0.1-0.2,0.2-0.2s0.2,0.1,0.2,0.2S134.9,37.3,134.8,37.3
		 M135.3,35.2c0.1,0,0.2,0.1,0.2,0.2s-0.1,0.2-0.2,0.2s-0.2-0.1-0.2-0.2C135,35.4,135.1,35.2,135.3,35.2 M135.3,36.8
		c-0.1,0-0.2-0.1-0.2-0.2s0.1-0.2,0.2-0.2c0.1,0,0.2,0.1,0.2,0.2C135.5,36.6,135.4,36.7,135.3,36.8 M135.5,34.9
		c0-0.1,0.1-0.2,0.2-0.2s0.2,0.1,0.2,0.2s-0.1,0.2-0.2,0.2C135.7,35.2,135.5,35.1,135.5,34.9 M135.8,35.7c0.1,0,0.2,0.1,0.2,0.2
		s-0.1,0.2-0.2,0.2s-0.2-0.1-0.2-0.2C135.6,35.9,135.7,35.7,135.8,35.7 M135.8,37.2c-0.1,0-0.2-0.1-0.2-0.2s0.1-0.2,0.2-0.2
		s0.2,0.1,0.2,0.2C136,37.2,136,37.2,135.8,37.2 M136.3,35.2c0.1,0,0.2,0.1,0.2,0.2s-0.1,0.2-0.2,0.2c-0.1,0-0.2-0.1-0.2-0.2
		C136,35.3,136.2,35.2,136.3,35.2 M136.3,36.7c-0.1,0-0.2-0.1-0.2-0.2s0.1-0.2,0.2-0.2s0.2,0.1,0.2,0.2S136.5,36.7,136.3,36.7
		 M136.6,34.9c0-0.1,0.1-0.2,0.2-0.2c0.1,0,0.2,0.1,0.2,0.2s-0.1,0.2-0.2,0.2C136.7,35.2,136.6,35.1,136.6,34.9 M136.9,35.7
		c0.1,0,0.2,0.1,0.2,0.2s-0.1,0.2-0.2,0.2s-0.2-0.1-0.2-0.2C136.6,35.8,136.7,35.7,136.9,35.7 M136.9,37.2c-0.1,0-0.2-0.1-0.2-0.2
		s0.1-0.2,0.2-0.2s0.2,0.1,0.2,0.2C137.1,37.2,137,37.2,136.9,37.2 M137.4,35.2c0.1,0,0.2,0.1,0.2,0.2s-0.1,0.2-0.2,0.2
		s-0.2-0.1-0.2-0.2C137.1,35.3,137.2,35.2,137.4,35.2 M137.4,36.7c-0.1,0-0.2-0.1-0.2-0.2s0.1-0.2,0.2-0.2s0.2,0.1,0.2,0.2
		C137.6,36.6,137.5,36.7,137.4,36.7 M137.8,34.7c0.1,0,0.2,0.1,0.2,0.2s-0.1,0.2-0.2,0.2s-0.2-0.1-0.2-0.2S137.7,34.7,137.8,34.7
		 M137.9,35.7c0.1,0,0.2,0.1,0.2,0.2s-0.1,0.2-0.2,0.2c-0.1,0-0.2-0.1-0.2-0.2S137.7,35.7,137.9,35.7 M137.9,37.2
		c-0.1,0-0.2-0.1-0.2-0.2s0.1-0.2,0.2-0.2s0.2,0.1,0.2,0.2C138.1,37.1,138,37.2,137.9,37.2 M138.4,35.2c0.1,0,0.2,0.1,0.2,0.2
		s-0.1,0.2-0.2,0.2s-0.2-0.1-0.2-0.2C138.1,35.3,138.3,35.2,138.4,35.2 M138.4,36.7c-0.1,0-0.2-0.1-0.2-0.2s0.1-0.2,0.2-0.2
		s0.2,0.1,0.2,0.2C138.6,36.6,138.6,36.7,138.4,36.7 M138.9,34.6c0.1,0,0.2,0.1,0.2,0.2S139,35,138.9,35s-0.2-0.1-0.2-0.2
		C138.6,34.8,138.8,34.6,138.9,34.6 M138.9,36.2c-0.1,0-0.2-0.1-0.2-0.2s0.1-0.2,0.2-0.2s0.2,0.1,0.2,0.2
		C139.2,36,139.1,36.2,138.9,36.2 M139.2,34.4c0-0.1,0.1-0.2,0.2-0.2s0.2,0.1,0.2,0.2s-0.1,0.2-0.2,0.2
		C139.3,34.6,139.2,34.5,139.2,34.4 M139.5,35.2c0.1,0,0.2,0.1,0.2,0.2s-0.1,0.2-0.2,0.2s-0.2-0.1-0.2-0.2
		C139.2,35.3,139.3,35.2,139.5,35.2 M139.5,36.6c-0.1,0-0.2-0.1-0.2-0.2s0.1-0.2,0.2-0.2s0.2,0.1,0.2,0.2S139.6,36.6,139.5,36.6
		 M139.9,34.6c0.1,0,0.2,0.1,0.2,0.2S140,35,139.9,35s-0.2-0.1-0.2-0.2C139.7,34.8,139.8,34.6,139.9,34.6 M140,36.1
		c-0.1,0-0.2-0.1-0.2-0.2s0.1-0.2,0.2-0.2s0.2,0.1,0.2,0.2S140.1,36.1,140,36.1 M140.2,34.3c0-0.1,0.1-0.2,0.2-0.2s0.2,0.1,0.2,0.2
		s-0.1,0.2-0.2,0.2C140.4,34.6,140.2,34.5,140.2,34.3 M140.5,35.2c0.1,0,0.2,0.1,0.2,0.2s-0.1,0.2-0.2,0.2s-0.2-0.1-0.2-0.2
		C140.2,35.2,140.4,35.2,140.5,35.2 M140.5,36.6c-0.1,0-0.2-0.1-0.2-0.2s0.1-0.2,0.2-0.2s0.2,0.1,0.2,0.2S140.6,36.6,140.5,36.6
		 M140.9,34.6c0.1,0,0.2,0.1,0.2,0.2S141,35,140.9,35s-0.2-0.1-0.2-0.2C140.7,34.7,140.9,34.6,140.9,34.6 M141,36.1
		c-0.1,0-0.2-0.1-0.2-0.2s0.1-0.2,0.2-0.2s0.2,0.1,0.2,0.2S141.2,36.1,141,36.1 M141.5,34.1c0.1,0,0.2,0.1,0.2,0.2s-0.1,0.2-0.2,0.2
		s-0.2-0.1-0.2-0.2C141.2,34.2,141.4,34.1,141.5,34.1 M141.5,35.2c0.1,0,0.2,0.1,0.2,0.2s-0.1,0.2-0.2,0.2s-0.2-0.1-0.2-0.2
		S141.4,35.2,141.5,35.2 M141.5,36.6c-0.1,0-0.2-0.1-0.2-0.2s0.1-0.2,0.2-0.2s0.2,0.1,0.2,0.2C141.8,36.5,141.7,36.6,141.5,36.6
		 M142,34.6c0.1,0,0.2,0.1,0.2,0.2S142.1,35,142,35s-0.2-0.1-0.2-0.2C141.8,34.7,141.9,34.6,142,34.6 M142.1,36.1
		c-0.1,0-0.2-0.1-0.2-0.2s0.1-0.2,0.2-0.2c0.1,0,0.2,0.1,0.2,0.2S142.2,36.1,142.1,36.1 M142.5,34.1c0.1,0,0.2,0.1,0.2,0.2
		s-0.1,0.2-0.2,0.2c-0.1,0-0.2-0.1-0.2-0.2C142.3,34.2,142.4,34.1,142.5,34.1 M142.6,35.6c-0.1,0-0.2-0.1-0.2-0.2s0.1-0.2,0.2-0.2
		s0.2,0.1,0.2,0.2S142.7,35.6,142.6,35.6 M142.8,33.8c0-0.1,0.1-0.2,0.2-0.2s0.2,0.1,0.2,0.2s0,0.2-0.2,0.2S142.8,33.9,142.8,33.8
		 M143,34.6c0.1,0,0.2,0.1,0.2,0.2s0,0.2-0.2,0.2s-0.2-0.1-0.2-0.2C142.8,34.7,143,34.6,143,34.6 M143.1,36.1
		c-0.1,0-0.2-0.1-0.2-0.2s0.1-0.2,0.2-0.2s0.2,0.1,0.2,0.2S143.2,36.1,143.1,36.1 M143.5,34c0.1,0,0.2,0.1,0.2,0.2s-0.1,0.2-0.2,0.2
		s-0.2-0.1-0.2-0.2C143.3,34.2,143.4,34,143.5,34 M143.6,35.6c-0.1,0-0.2-0.1-0.2-0.2s0.1-0.2,0.2-0.2c0.1,0,0.2,0.1,0.2,0.2
		S143.7,35.5,143.6,35.6 M143.8,33.7c0-0.1,0.1-0.2,0.2-0.2c0.1,0,0.2,0.1,0.2,0.2s-0.1,0.2-0.2,0.2C143.9,34,143.8,33.9,143.8,33.7
		 M144.1,34.6c0.1,0,0.2,0.1,0.2,0.2s-0.1,0.2-0.2,0.2c-0.1,0-0.2-0.1-0.2-0.2C143.8,34.7,144,34.6,144.1,34.6 M144.1,36
		c-0.1,0-0.2-0.1-0.2-0.2s0.1-0.2,0.2-0.2s0.2,0.1,0.2,0.2C144.4,36,144.3,36,144.1,36 M144.6,34c0.1,0,0.2,0.1,0.2,0.2
		s-0.1,0.2-0.2,0.2c-0.1,0-0.2-0.1-0.2-0.2C144.4,34.2,144.5,34,144.6,34 M144.7,35.5c-0.1,0-0.2-0.1-0.2-0.2s0.1-0.2,0.2-0.2
		c0.1,0,0.2,0.1,0.2,0.2S144.7,35.5,144.7,35.5 M145.1,33.5c0.1,0,0.2,0.1,0.2,0.2s-0.1,0.2-0.2,0.2s-0.2-0.1-0.2-0.2
		C144.9,33.6,145,33.5,145.1,33.5 M145.1,34.6c0.1,0,0.2,0.1,0.2,0.2s-0.1,0.2-0.2,0.2s-0.2-0.1-0.2-0.2
		C144.9,34.6,145,34.6,145.1,34.6 M145.2,36c-0.1,0-0.2-0.1-0.2-0.2s0.1-0.2,0.2-0.2c0.1,0,0.2,0.1,0.2,0.2
		C145.4,36,145.3,36,145.2,36 M145.6,34c0.1,0,0.2,0.1,0.2,0.2s-0.1,0.2-0.2,0.2s-0.2-0.1-0.2-0.2S145.6,34,145.6,34 M145.7,35.5
		c-0.1,0-0.2-0.1-0.2-0.2s0.1-0.2,0.2-0.2s0.2,0.1,0.2,0.2S145.8,35.5,145.7,35.5 M146.1,33.5c0.1,0,0.2,0.1,0.2,0.2
		s-0.1,0.2-0.2,0.2s-0.2-0.1-0.2-0.2S146,33.5,146.1,33.5 M146.1,35c-0.1,0-0.2-0.1-0.2-0.2s0.1-0.2,0.2-0.2s0.2,0.1,0.2,0.2
		C146.4,34.9,146.3,35,146.1,35 M146.4,33.2c0-0.1,0.1-0.2,0.2-0.2s0.2,0.1,0.2,0.2s-0.1,0.2-0.2,0.2S146.4,33.4,146.4,33.2
		 M146.7,34c0.1,0,0.2,0.1,0.2,0.2s-0.1,0.2-0.2,0.2s-0.2-0.1-0.2-0.2C146.4,34.1,146.5,34,146.7,34 M146.7,35.5
		c-0.1,0-0.2-0.1-0.2-0.2s0.1-0.2,0.2-0.2s0.2,0.1,0.2,0.2C147,35.4,146.8,35.5,146.7,35.5 M147.2,33.4c0.1,0,0.2,0.1,0.2,0.2
		s-0.1,0.2-0.2,0.2c-0.1,0-0.2-0.1-0.2-0.2C147,33.6,147,33.4,147.2,33.4 M147.2,35c-0.1,0-0.2-0.1-0.2-0.2s0.1-0.2,0.2-0.2
		c0.1,0,0.2,0.1,0.2,0.2C147.5,34.9,147.3,35,147.2,35 M147.5,33.2c0-0.1,0.1-0.2,0.2-0.2c0.1,0,0.2,0.1,0.2,0.2s-0.1,0.2-0.2,0.2
		S147.5,33.3,147.5,33.2 M147.7,34c0.1,0,0.2,0.1,0.2,0.2s-0.1,0.2-0.2,0.2c-0.1,0-0.2-0.1-0.2-0.2S147.6,34,147.7,34 M147.8,35.5
		c-0.1,0-0.2-0.1-0.2-0.2s0.1-0.2,0.2-0.2c0.1,0,0.2,0.1,0.2,0.2S147.9,35.5,147.8,35.5 M148.2,33.4c0.1,0,0.2,0.1,0.2,0.2
		s-0.1,0.2-0.2,0.2c-0.1,0-0.2-0.1-0.2-0.2C148,33.6,148.1,33.4,148.2,33.4 M148.2,34.9c-0.1,0-0.2-0.1-0.2-0.2s0.1-0.2,0.2-0.2
		c0.1,0,0.2,0.1,0.2,0.2C148.5,34.9,148.4,34.9,148.2,34.9 M148.7,32.9c0.1,0,0.2,0.1,0.2,0.2s-0.1,0.2-0.2,0.2s-0.2-0.1-0.2-0.2
		C148.5,33.1,148.6,32.9,148.7,32.9 M148.7,34c0.1,0,0.2,0.1,0.2,0.2s-0.1,0.2-0.2,0.2s-0.2-0.1-0.2-0.2S148.6,34,148.7,34
		 M148.8,35.5c-0.1,0-0.2-0.1-0.2-0.2s0.1-0.2,0.2-0.2s0.2,0.1,0.2,0.2S148.9,35.5,148.8,35.5 M149.3,33.4c0.1,0,0.2,0.1,0.2,0.2
		s-0.1,0.2-0.2,0.2s-0.2-0.1-0.2-0.2S149.1,33.4,149.3,33.4 M149.3,34.9c-0.1,0-0.2-0.1-0.2-0.2s0.1-0.2,0.2-0.2s0.2,0.1,0.2,0.2
		C149.6,34.9,149.4,34.9,149.3,34.9 M149.8,32.9c0.1,0,0.2,0.1,0.2,0.2s-0.1,0.2-0.2,0.2s-0.2-0.1-0.2-0.2S149.6,32.9,149.8,32.9
		 M149.8,34c0.1,0,0.2,0.1,0.2,0.2s-0.1,0.2-0.2,0.2s-0.2-0.1-0.2-0.2S149.6,34,149.8,34 M149.9,35.5c-0.1,0-0.2-0.1-0.2-0.2
		s0.1-0.2,0.2-0.2s0.2,0.1,0.2,0.2C150.1,35.3,149.9,35.5,149.9,35.5 M150.3,33.4c0.1,0,0.2,0.1,0.2,0.2s-0.1,0.2-0.2,0.2
		c-0.1,0-0.2-0.1-0.2-0.2S150.2,33.4,150.3,33.4 M150.3,34.9c-0.1,0-0.2-0.1-0.2-0.2s0.1-0.2,0.2-0.2c0.1,0,0.2,0.1,0.2,0.2
		C150.6,34.8,150.5,34.9,150.3,34.9 M150.8,32.9c0.1,0,0.2,0.1,0.2,0.2s-0.1,0.2-0.2,0.2c-0.1,0-0.2-0.1-0.2-0.2
		S150.7,32.9,150.8,32.9 M150.8,34.4c-0.1,0-0.2-0.1-0.2-0.2s0.1-0.2,0.2-0.2c0.1,0,0.2,0.1,0.2,0.2C151.1,34.3,151,34.4,150.8,34.4
		 M151.3,33.4c0.1,0,0.2,0.1,0.2,0.2s-0.1,0.2-0.2,0.2c-0.1,0-0.2-0.1-0.2-0.2S151.2,33.4,151.3,33.4 M151.3,34.9
		c-0.1,0-0.2-0.1-0.2-0.2s0.1-0.2,0.2-0.2c0.1,0,0.2,0.1,0.2,0.2C151.6,34.8,151.5,34.9,151.3,34.9 M151.9,32.9
		c0.1,0,0.2,0.1,0.2,0.2s-0.1,0.2-0.2,0.2s-0.2-0.1-0.2-0.2C151.6,33,151.7,32.9,151.9,32.9 M151.9,34.4c-0.1,0-0.2-0.1-0.2-0.2
		s0.1-0.2,0.2-0.2s0.2,0.1,0.2,0.2C152.2,34.3,152,34.3,151.9,34.4 M152.4,33.4c0.1,0,0.2,0.1,0.2,0.2s-0.1,0.2-0.2,0.2
		s-0.2-0.1-0.2-0.2S152.2,33.4,152.4,33.4 M152.4,34.9c-0.1,0-0.2-0.1-0.2-0.2s0.1-0.2,0.2-0.2s0.2,0.1,0.2,0.2
		C152.7,34.8,152.5,34.9,152.4,34.9 M152.9,32.9c0.1,0,0.2,0.1,0.2,0.2s-0.1,0.2-0.2,0.2s-0.2-0.1-0.2-0.2S152.8,32.9,152.9,32.9
		 M152.9,34.3c-0.1,0-0.2-0.1-0.2-0.2s0.1-0.2,0.2-0.2s0.2,0.1,0.2,0.2C153.2,34.3,153.1,34.3,152.9,34.3 M153.4,33.4
		c0.1,0,0.2,0.1,0.2,0.2s-0.1,0.2-0.2,0.2s-0.2-0.1-0.2-0.2S153.3,33.4,153.4,33.4 M153.4,34.9c-0.1,0-0.2-0.1-0.2-0.2
		s0.1-0.2,0.2-0.2s0.2,0.1,0.2,0.2C153.7,34.8,153.6,34.9,153.4,34.9 M154,32.9c0.1,0,0.2,0.1,0.2,0.2s-0.1,0.2-0.2,0.2
		c-0.1,0-0.2-0.1-0.2-0.2S153.8,32.9,154,32.9 M154,34.3c-0.1,0-0.2-0.1-0.2-0.2s0.1-0.2,0.2-0.2c0.1,0,0.2,0.1,0.2,0.2
		S154.1,34.3,154,34.3 M154.5,33.3c0.1,0,0.2,0.1,0.2,0.2s-0.1,0.2-0.2,0.2s-0.2-0.1-0.2-0.2C154.2,33.4,154.3,33.4,154.5,33.3
		 M154.5,34.9c-0.1,0-0.2-0.1-0.2-0.2s0.1-0.2,0.2-0.2s0.2,0.1,0.2,0.2C154.8,34.7,154.6,34.9,154.5,34.9 M155,32.8
		c0.1,0,0.2,0.1,0.2,0.2s-0.1,0.2-0.2,0.2s-0.2-0.1-0.2-0.2C154.8,32.9,154.8,32.8,155,32.8 M155,34.3c-0.1,0-0.2-0.1-0.2-0.2
		s0.1-0.2,0.2-0.2s0.2,0.1,0.2,0.2C155.3,34.2,155.1,34.3,155,34.3 M155.5,33.3c0.1,0,0.2,0.1,0.2,0.2s-0.1,0.2-0.2,0.2
		s-0.2-0.1-0.2-0.2C155.3,33.4,155.4,33.3,155.5,33.3 M155.5,34.8c-0.1,0-0.2-0.1-0.2-0.2s0.1-0.2,0.2-0.2s0.2,0.1,0.2,0.2
		C155.8,34.7,155.7,34.8,155.5,34.8 M156,32.8c0.1,0,0.2,0.1,0.2,0.2s-0.1,0.2-0.2,0.2s-0.2-0.1-0.2-0.2
		C155.8,32.9,155.9,32.8,156,32.8 M156,34.3c-0.1,0-0.2-0.1-0.2-0.2s0.1-0.2,0.2-0.2s0.2,0.1,0.2,0.2
		C156.3,34.2,156.2,34.3,156,34.3 M156.6,33.3c0.1,0,0.2,0.1,0.2,0.2s-0.1,0.2-0.2,0.2s-0.2-0.1-0.2-0.2S156.4,33.3,156.6,33.3
		 M156.6,34.8c-0.1,0-0.2-0.1-0.2-0.2s0.1-0.2,0.2-0.2s0.2,0.1,0.2,0.2S156.7,34.8,156.6,34.8 M157.1,32.8c0.1,0,0.2,0.1,0.2,0.2
		s-0.1,0.2-0.2,0.2c-0.1,0-0.2-0.1-0.2-0.2C156.8,32.9,156.9,32.8,157.1,32.8 M157.1,34.3c-0.1,0-0.2-0.1-0.2-0.2s0.1-0.2,0.2-0.2
		c0.1,0,0.2,0.1,0.2,0.2S157.2,34.3,157.1,34.3 M157.6,33.7c-0.1,0-0.2-0.1-0.2-0.2s0.1-0.2,0.2-0.2s0.2,0.1,0.2,0.2
		S157.7,33.7,157.6,33.7 M158.1,32.8c0.1,0,0.2,0.1,0.2,0.2s-0.1,0.2-0.2,0.2s-0.2-0.1-0.2-0.2C157.9,32.9,158,32.8,158.1,32.8
		 M158.1,34.3c-0.1,0-0.2-0.1-0.2-0.2s0.1-0.2,0.2-0.2s0.2,0.1,0.2,0.2C158.4,34.1,158.3,34.3,158.1,34.3 M158.6,33.7
		c-0.1,0-0.2-0.1-0.2-0.2s0.1-0.2,0.2-0.2s0.2,0.1,0.2,0.2C158.9,33.6,158.8,33.7,158.6,33.7 M159.2,32.7c0.1,0,0.2,0.1,0.2,0.2
		s-0.1,0.2-0.2,0.2S159,33,159,32.9C158.9,32.9,159,32.7,159.2,32.7 M159.2,34.3c-0.1,0-0.2-0.1-0.2-0.2s0.1-0.2,0.2-0.2
		s0.2,0.1,0.2,0.2C159.4,34.1,159.3,34.3,159.2,34.3 M159.7,33.7c-0.1,0-0.2-0.1-0.2-0.2s0.1-0.2,0.2-0.2c0.1,0,0.2,0.1,0.2,0.2
		C159.9,33.6,159.8,33.7,159.7,33.7 M160.2,32.7c0.1,0,0.2,0.1,0.2,0.2s-0.1,0.2-0.2,0.2c-0.1,0-0.2-0.1-0.2-0.2
		C160,32.9,160,32.7,160.2,32.7 M160.2,34.2c-0.1,0-0.2-0.1-0.2-0.2s0.1-0.2,0.2-0.2c0.1,0,0.2,0.1,0.2,0.2
		C160.5,34.1,160.3,34.2,160.2,34.2 M161.2,34.2c-0.1,0-0.2-0.1-0.2-0.2s0.1-0.2,0.2-0.2s0.2,0.1,0.2,0.2
		C161.5,34.1,161.4,34.2,161.2,34.2 M162.3,34.2c-0.1,0-0.2-0.1-0.2-0.2s0.1-0.2,0.2-0.2s0.2,0.1,0.2,0.2
		C162.5,34,162.4,34.2,162.3,34.2 M163.3,34.2c-0.1,0-0.2-0.1-0.2-0.2s0.1-0.2,0.2-0.2c0.1,0,0.2,0.1,0.2,0.2
		C163.5,34,163.5,34.2,163.3,34.2 M164.4,34.1c-0.1,0-0.2-0.1-0.2-0.2s0.1-0.2,0.2-0.2s0.2,0.1,0.2,0.2S164.5,34.1,164.4,34.1
		 M165.4,34.1c-0.1,0-0.2-0.1-0.2-0.2s0.1-0.2,0.2-0.2s0.2,0.1,0.2,0.2S165.5,34.1,165.4,34.1 M165.9,34.6c-0.1,0-0.2-0.1-0.2-0.2
		s0.1-0.2,0.2-0.2c0.1,0,0.2,0.1,0.2,0.2C166.2,34.5,166.1,34.6,165.9,34.6 M166.4,34.1c-0.1,0-0.2-0.1-0.2-0.2s0.1-0.2,0.2-0.2
		c0.1,0,0.2,0.1,0.2,0.2C166.7,34,166.6,34.1,166.4,34.1 M170.7,35.1c-0.1,0-0.2-0.1-0.2-0.2s0.1-0.2,0.2-0.2c0.1,0,0.2,0.1,0.2,0.2
		C170.9,34.9,170.7,35.1,170.7,35.1 M98.7,38.3c0,0.1,0.1,0.2,0.2,0.2s0.2-0.1,0.2-0.2c0-0.1-0.1-0.2-0.2-0.2s-0.1,0-0.1,0
		C98.7,38.1,98.7,38.1,98.7,38.3 M97.6,38.3c0,0.1,0.1,0.2,0.2,0.2s0.2-0.1,0.2-0.2c0-0.1-0.1-0.1-0.1-0.2c-0.1,0-0.2,0-0.3,0
		C97.7,38.1,97.6,38.2,97.6,38.3 M96.8,38.5c0.1,0,0.2-0.1,0.2-0.2c0-0.1,0-0.1-0.1-0.1s-0.2,0-0.4,0c0,0.1-0.1,0.1-0.1,0.1
		C96.6,38.4,96.7,38.5,96.8,38.5 M95.8,38.6c0.1,0,0.2-0.1,0.2-0.2c0-0.1,0-0.1-0.1-0.1s-0.2,0-0.4,0l-0.1,0.1
		C95.5,38.4,95.7,38.6,95.8,38.6 M94.7,38.6c0.1,0,0.2-0.1,0.2-0.2s0-0.1-0.1-0.1s-0.3,0-0.4,0c0,0.1,0,0.1,0,0.1
		S94.6,38.6,94.7,38.6 M93.7,38.6c0.1,0,0.2-0.1,0.2-0.2s0-0.1,0-0.1c-0.1,0-0.3,0-0.4,0v0.1C93.5,38.5,93.6,38.6,93.7,38.6
		 M92.6,38.6c0.1,0,0.2-0.1,0.2-0.2c0-0.1,0-0.1-0.1-0.1s-0.3,0-0.4,0v0.1C92.4,38.5,92.6,38.6,92.6,38.6 M91.6,38.6
		c0.1,0,0.2-0.1,0.2-0.2c0-0.1,0-0.1-0.1-0.1s-0.2,0-0.4,0c0,0.1-0.1,0.1-0.1,0.1C91.4,38.5,91.5,38.6,91.6,38.6 M90.3,38.4
		c0,0.1,0.1,0.2,0.2,0.2s0.2-0.1,0.2-0.2c0-0.1,0-0.1-0.1-0.1s-0.2,0-0.4,0C90.4,38.3,90.3,38.3,90.3,38.4 M89.3,38.4
		c0,0.1,0.1,0.2,0.2,0.2s0.2-0.1,0.2-0.2c0-0.1-0.1-0.1-0.1-0.2c-0.1,0-0.1,0-0.2,0C89.4,38.3,89.3,38.3,89.3,38.4 M77,38.4
		c-0.1,0-0.1,0.1-0.2,0.1c0.1,0.1,0.3,0.1,0.4,0.1v-0.1C77.3,38.5,77.2,38.4,77,38.4 M112.2,36.9c0,0.1,0.1,0.2,0.2,0.2
		s0.2-0.1,0.2-0.2c0-0.1-0.1-0.1-0.1-0.2c-0.1,0-0.1,0-0.2,0C112.2,36.8,112.2,36.9,112.2,36.9 M111.4,37.2c0.1,0,0.2-0.1,0.2-0.2
		c0-0.1,0-0.1-0.1-0.1s-0.3,0-0.4,0.1l0,0C111.1,37.1,111.2,37.2,111.4,37.2 M110.3,37.2c0.1,0,0.2-0.1,0.2-0.2l0,0
		c-0.1,0-0.3,0.1-0.4,0.1C110.1,37.2,110.2,37.2,110.3,37.2 M109.3,37.2c0.1,0,0.2-0.1,0.2-0.1c-0.1,0-0.3,0-0.4,0.1
		C109.1,37.2,109.2,37.2,109.3,37.2 M108.4,37.2c-0.1,0-0.2,0-0.3,0c0.1,0,0.1,0.1,0.1,0.1C108.3,37.3,108.4,37.2,108.4,37.2
		 M82.2,37.8C82.3,37.8,82.3,37.8,82.2,37.8c0-0.1-0.1-0.1-0.2-0.2C82.1,37.8,82.2,37.8,82.2,37.8 M81.2,37.8c0.1,0,0.2-0.1,0.2-0.1
		c-0.1,0-0.3-0.1-0.4-0.1l0,0C81,37.7,81,37.8,81.2,37.8 M79.9,37.6c0,0.1,0.1,0.2,0.2,0.2s0.2-0.1,0.2-0.2c0-0.1,0-0.1,0-0.1
		c-0.1,0-0.2-0.1-0.4-0.1C79.9,37.5,79.9,37.5,79.9,37.6 M75,37.5c-0.1,0-0.1,0.1-0.2,0.1c0.1,0.1,0.3,0.1,0.4,0.2v-0.1
		C75.2,37.5,75.1,37.5,75,37.5 M80.5,39.6c0-0.1-0.1-0.2-0.2-0.2S80,39.5,80,39.6c0,0,0,0,0,0.1c0.1,0.1,0.2,0.1,0.4,0.1
		C80.5,39.8,80.5,39.7,80.5,39.6 M72.9,35.9c0.1,0,0.2-0.1,0.2-0.2c-0.1-0.1-0.3-0.1-0.4-0.1l-0.1,0.1
		C72.6,35.8,72.7,35.9,72.9,35.9 M72.1,35.7c0-0.1-0.1-0.2-0.2-0.2s-0.2,0.1-0.2,0.2c0,0.1,0,0.1,0.1,0.1l0.1,0.1H72
		C72,35.9,72.1,35.8,72.1,35.7 M70.8,34.9C70.9,34.9,70.9,34.9,70.8,34.9c0-0.2-0.1-0.2-0.3-0.2C70.5,34.8,70.6,34.9,70.8,34.9
		 M69.7,34.4L69.7,34.4c0.1,0.1,0.1,0.1,0.2,0.2l0,0C70,34.6,69.8,34.4,69.7,34.4 M77,36.9L77,36.9c0,0-0.1-0.1-0.2-0.1
		C76.9,36.8,77,36.9,77,36.9 M76,36.9c0.1,0,0.2-0.1,0.2-0.2l0,0c-0.1,0-0.3-0.1-0.4-0.1l-0.1,0.1C75.8,36.8,75.8,36.9,76,36.9
		 M72.9,36.4C72.8,36.4,72.8,36.4,72.9,36.4c0,0.2,0.1,0.2,0.3,0.3l0,0C73.1,36.6,73,36.4,72.9,36.4 M121.5,35.7
		c0,0.1,0.1,0.2,0.2,0.2s0.2-0.1,0.2-0.2c0-0.1-0.1-0.1-0.1-0.2c-0.1,0-0.1,0-0.3,0C121.5,35.6,121.5,35.7,121.5,35.7 M120.7,36
		c0.1,0,0.2-0.1,0.2-0.2v-0.1c-0.1,0-0.3,0.1-0.4,0.1c0,0,0,0,0,0.1C120.5,35.9,120.6,36,120.7,36 M119.7,36c0.1,0,0.2-0.1,0.2-0.2
		c-0.1,0-0.3,0.1-0.4,0.1C119.5,36,119.5,36,119.7,36 M118.8,36c-0.1,0-0.2,0-0.4,0.1c0.1,0,0.1,0.1,0.1,0.1
		C118.7,36,118.8,36,118.8,36 M89.8,41.5c0-0.1-0.1-0.2-0.2-0.2s-0.2,0.1-0.2,0.2c0,0.1,0,0.1,0.1,0.1S89.7,41.6,89.8,41.5
		C89.9,41.6,89.8,41.6,89.8,41.5 M88.6,41.3c-0.1,0-0.2,0.1-0.2,0.2c0.1,0,0.3,0.1,0.4,0.1v-0.1C88.8,41.4,88.7,41.3,88.6,41.3
		 M87.5,41.3C87.4,41.3,87.4,41.3,87.5,41.3c0,0.1,0.2,0.2,0.3,0.2C87.7,41.4,87.7,41.3,87.5,41.3 M115.5,40.9c0.1,0,0.2,0,0.4-0.1
		c-0.1,0-0.1-0.1-0.1-0.1C115.5,40.8,115.5,40.8,115.5,40.9 M114.6,40.8c-0.1,0-0.2,0.1-0.2,0.2c0.1,0,0.3-0.1,0.4-0.1L114.6,40.8
		 M113.5,40.8c-0.1,0-0.2,0.1-0.2,0.2v0.1c0.1,0,0.3-0.1,0.4-0.1l0,0C113.7,41,113.7,40.8,113.5,40.8 M112.5,40.9
		c-0.1,0-0.2,0.1-0.2,0.2c0,0.1,0,0.1,0.1,0.1s0.2,0,0.4-0.1l0.1-0.1C112.7,41,112.6,40.9,112.5,40.9 M83.3,40.4
		c-0.1,0-0.2,0.1-0.2,0.2c0.1,0,0.3,0.1,0.4,0.1v-0.1C83.6,40.5,83.5,40.4,83.3,40.4 M123.7,39.7c0.1,0,0.2,0,0.3-0.1
		c-0.1,0-0.1,0-0.1,0C123.9,39.6,123.8,39.6,123.7,39.7 M122.9,39.6c-0.1,0-0.2,0.1-0.2,0.2c0.1,0,0.3-0.1,0.4-0.1
		C123,39.7,123,39.6,122.9,39.6 M121.8,39.6c-0.1,0-0.2,0.1-0.2,0.2c0,0.1,0,0.1,0.1,0.1s0.3-0.1,0.4-0.1v-0.1
		C122.1,39.8,122,39.6,121.8,39.6 M121,39.9c0-0.1-0.1-0.2-0.2-0.2s-0.2,0.1-0.2,0.2c0,0.1,0.1,0.2,0.2,0.2h0.1
		C121,40.1,121,40,121,39.9 M85.9,40.8c-0.1,0-0.2,0.1-0.2,0.2c0,0,0,0,0,0.1c0.1,0,0.3,0.1,0.4,0.1c0-0.1,0.1-0.1,0.1-0.1
		C86.2,41,86.1,40.8,85.9,40.8 M84.9,40.9C84.8,40.9,84.8,40.9,84.9,40.9c0,0.1,0.2,0.2,0.3,0.2C85.1,41,85,40.9,84.9,40.9
		 M120.1,40.2c0.1,0,0.1,0,0.2,0H120.1C120.2,40.2,120.2,40.2,120.1,40.2 M119.2,40.2c-0.1,0-0.2,0.1-0.2,0.2c0.1,0,0.3-0.1,0.4-0.1
		C119.4,40.3,119.3,40.2,119.2,40.2 M118.2,40.2c-0.1,0-0.2,0.1-0.2,0.2v0.1c0.1,0,0.3-0.1,0.4-0.1l0,0
		C118.4,40.3,118.4,40.2,118.2,40.2 M117.2,40.2c-0.1,0-0.2,0.1-0.2,0.2c0,0.1,0.1,0.1,0.1,0.2c0.1,0,0.2,0,0.3-0.1
		c0-0.1,0.1-0.1,0.1-0.1S117.3,40.2,117.2,40.2 M81.8,39.9c-0.1,0-0.2,0.1-0.2,0.2c0,0,0,0,0,0.1c0.1,0.1,0.3,0.1,0.4,0.1
		c0.1-0.1,0.1-0.1,0.1-0.1C82,40,81.9,39.9,81.8,39.9 M125.5,39c-0.1,0-0.2,0.1-0.2,0.2c0,0.1,0,0.1,0.1,0.1s0.3-0.1,0.4-0.1v-0.1
		C125.7,39.2,125.6,39,125.5,39 M105.7,41.5c-0.1,0-0.2,0.1-0.2,0.2c0,0.1,0,0.1,0.1,0.1s0.2,0,0.4,0c0-0.1,0.1-0.1,0.1-0.1
		C105.9,41.6,105.9,41.5,105.7,41.5 M105,41.8c0-0.1-0.1-0.2-0.2-0.2s-0.2,0.1-0.2,0.2c0,0.1,0.1,0.1,0.1,0.2c0.1,0,0.2,0,0.3,0
		C104.9,41.9,105,41.8,105,41.8 M103.9,41.8c0-0.1-0.1-0.2-0.2-0.2s-0.2,0.1-0.2,0.2c0,0.1,0.1,0.2,0.2,0.2s0.1,0,0.1,0
		C103.9,42,103.9,41.8,103.9,41.8 M96.7,41.9c0-0.1-0.1-0.2-0.2-0.2s-0.2,0.1-0.2,0.2s0.1,0.2,0.1,0.2h0.1
		C96.6,42.1,96.7,42,96.7,41.9 M95.6,41.9c0-0.1-0.1-0.2-0.2-0.2s-0.2,0.1-0.2,0.2c0,0.1,0,0.1,0.1,0.1S95.5,42,95.6,41.9
		C95.5,42.1,95.6,42,95.6,41.9 M94.3,41.7c-0.1,0-0.2,0.1-0.2,0.2c0,0.1,0,0.1,0,0.1c0.1,0,0.3,0,0.4,0c0-0.1,0.1-0.1,0.1-0.1
		C94.5,41.8,94.4,41.7,94.3,41.7 M93.2,41.7c-0.1,0-0.2,0.1-0.2,0.2l0,0c0.1,0,0.3,0,0.4,0v-0.1C93.5,41.8,93.4,41.7,93.2,41.7
		 M92.2,41.8c-0.1,0-0.2,0.1-0.2,0.1c0.1,0,0.3,0,0.4,0C92.4,41.8,92.3,41.8,92.2,41.8 M91.2,41.8C91.1,41.8,91.1,41.8,91.2,41.8
		c0,0.1,0.1,0.1,0.3,0.1C91.3,41.8,91.2,41.8,91.2,41.8 M109.9,41.4c-0.1,0-0.1,0.1-0.2,0.1c0.1,0,0.3,0,0.4,0
		C110,41.5,110,41.4,109.9,41.4 M108.8,41.4c-0.1,0-0.2,0.1-0.2,0.2c0.1,0,0.3,0,0.4-0.1C109.1,41.5,109,41.4,108.8,41.4
		 M107.8,41.5c-0.1,0-0.2,0.1-0.2,0.2l0,0c0.1,0,0.3,0,0.4-0.1l0,0C108,41.5,107.9,41.5,107.8,41.5 M106.8,41.5
		c-0.1,0-0.2,0.1-0.2,0.2v0.1c0.1,0,0.3,0,0.4,0v-0.1C107,41.5,106.9,41.5,106.8,41.5 M84.8,38.2c0.1,0,0.2-0.1,0.2-0.2
		c-0.1,0-0.3,0-0.4-0.1c0,0,0,0,0,0.1S84.8,38.2,84.8,38.2 M83.8,38.3c0.1,0,0.2-0.1,0.2-0.2c0-0.1,0-0.1,0-0.1c-0.1,0-0.3,0-0.4,0
		c0,0.1-0.1,0.1-0.1,0.1C83.6,38.1,83.7,38.3,83.8,38.3 M76.8,38.1c0-0.1-0.1-0.2-0.2-0.2s-0.2,0.1-0.2,0.2c0,0.1,0.1,0.1,0.1,0.2
		h0.1h0.1C76.7,38.4,76.8,38.3,76.8,38.1 M75.5,37.9L75.5,37.9c0.1,0,0.1,0.1,0.2,0.1C75.6,38,75.5,37.9,75.5,37.9 M106.5,37.6
		c0,0.1,0.1,0.2,0.2,0.2s0.2-0.1,0.2-0.2c0-0.1-0.1-0.1-0.1-0.2c-0.1,0-0.1,0-0.2,0C106.5,37.5,106.5,37.5,106.5,37.6 M105.6,37.8
		c0.1,0,0.2-0.1,0.2-0.2c0-0.1,0-0.1-0.1-0.1s-0.3,0-0.4,0.1v0.1C105.4,37.8,105.5,37.8,105.6,37.8 M104.6,37.8
		c0.1,0,0.2-0.1,0.2-0.2c0,0,0,0,0-0.1c-0.1,0-0.3,0-0.4,0.1l0,0C104.4,37.8,104.5,37.8,104.6,37.8 M103.6,37.9
		c0.1,0,0.2-0.1,0.2-0.2c-0.1,0-0.3,0-0.4,0.1C103.3,37.8,103.5,37.9,103.6,37.9 M102.5,37.9c0.1,0,0.1-0.1,0.2-0.1
		c-0.1,0-0.3,0-0.4,0C102.4,37.8,102.4,37.9,102.5,37.9 M101.7,37.8c-0.1,0-0.2,0-0.4,0c0.1,0.1,0.1,0.1,0.1,0.1
		C101.6,37.9,101.6,37.9,101.7,37.8 M100.6,37.9c-0.1,0-0.1,0-0.2,0H100.6C100.5,37.9,100.5,37.9,100.6,37.9 M86.9,38.2
		C87,38.2,87,38.2,86.9,38.2c0-0.1-0.1-0.1-0.3-0.1C86.8,38.2,86.8,38.2,86.9,38.2 M85.9,38.2c0.1,0,0.1-0.1,0.2-0.1
		c-0.1,0-0.3,0-0.4,0C85.7,38.1,85.8,38.2,85.9,38.2 M78.6,37.3c0.1,0,0.1-0.1,0.2-0.1c-0.1,0-0.3-0.1-0.4-0.1
		C78.4,37.2,78.4,37.3,78.6,37.3 M74.7,37.2c0-0.1-0.1-0.2-0.2-0.2s-0.2,0.1-0.2,0.2c0,0.1,0.1,0.1,0.1,0.2c0,0,0,0,0.1,0h0.1
		C74.6,37.4,74.7,37.3,74.7,37.2 M117.1,36.6c0.1,0,0.2-0.1,0.2-0.2c0-0.1-0.1-0.1-0.1-0.2c-0.1,0-0.2,0-0.3,0.1
		c-0.1,0.1-0.1,0.1-0.1,0.1C116.9,36.5,116.9,36.6,117.1,36.6 M116,36.6c0.1,0,0.2-0.1,0.2-0.2v-0.1c-0.1,0-0.3,0.1-0.4,0.1
		c0,0,0,0,0,0.1C115.8,36.5,115.9,36.6,116,36.6 M115,36.6c0.1,0,0.2-0.1,0.2-0.2c-0.1,0-0.3,0.1-0.4,0.1
		C114.8,36.6,114.9,36.6,115,36.6 M114,36.6c0.1,0,0.1-0.1,0.2-0.1c-0.1,0-0.2,0-0.4,0.1C113.8,36.6,113.9,36.6,114,36.6 M78.7,38.9
		c-0.1,0-0.2,0.1-0.2,0.2c0.1,0.1,0.3,0.1,0.4,0.1c0.1-0.1,0.1-0.1,0.1-0.1C78.9,39,78.7,38.9,78.7,38.9 M71,35.2
		c0,0.1,0.1,0.2,0.2,0.2s0.2-0.1,0.2-0.2v-0.1C71.3,35,71.2,35,71.1,35C71.1,35,71,35.1,71,35.2 M123.3,35.5c0.1,0,0.1-0.1,0.2-0.1
		c-0.1,0-0.2,0-0.4,0.1C123.2,35.4,123.3,35.5,123.3,35.5 M124.4,35.5c0.1,0,0.2-0.1,0.2-0.2c-0.1,0-0.3,0.1-0.4,0.1
		C124.1,35.4,124.2,35.5,124.4,35.5 M125.4,35.4c0.1,0,0.2-0.1,0.2-0.2c0-0.1,0-0.1,0-0.1c-0.1,0-0.3,0.1-0.4,0.1v0.1
		C125.1,35.3,125.3,35.4,125.4,35.4 M126.2,35.2c0,0.1,0.1,0.2,0.2,0.2s0.2-0.1,0.2-0.2c0-0.1-0.1-0.1-0.1-0.2c-0.1,0-0.1,0-0.2,0
		S126.2,35.1,126.2,35.2 M72.6,36.2c0-0.1-0.1-0.2-0.2-0.2s-0.2,0.1-0.2,0.2c0.1,0.1,0.2,0.1,0.4,0.2C72.6,36.3,72.6,36.3,72.6,36.2
		 M74.4,36.3c0.1,0,0.2-0.1,0.2-0.2C74.5,36,74.4,36,74.2,36l0,0C74.2,36.3,74.3,36.3,74.4,36.3 M69.5,34.2
		c-0.1-0.1-0.2-0.1-0.4-0.2l0,0C69.2,34,69.3,34.2,69.5,34.2C69.4,34.3,69.5,34.2,69.5,34.2L69.5,34.2z M168.5,34
		c0.1,0,0.1-0.1,0.2-0.1c-0.1,0-0.3-0.1-0.4-0.1C168.3,34,168.4,34,168.5,34 M167.3,33.8c0,0.1,0.1,0.2,0.2,0.2
		c0.1,0,0.2-0.1,0.2-0.2s0-0.1-0.1-0.1s-0.2-0.1-0.3-0.1C167.3,33.7,167.3,33.7,167.3,33.8 M137.4,37.3c-0.1,0-0.2,0.1-0.2,0.1
		c0.1,0,0.3-0.1,0.4-0.1C137.5,37.3,137.5,37.2,137.4,37.3 M136.3,37.3c-0.1,0-0.2,0.1-0.2,0.2v0.1c0.1,0,0.3-0.1,0.4-0.1l0,0
		C136.6,37.4,136.5,37.3,136.3,37.3 M135.5,37.5c0-0.1-0.1-0.2-0.2-0.2c-0.1,0-0.2,0.1-0.2,0.2c0,0.1,0.1,0.1,0.1,0.2
		c0.1,0,0.1,0,0.2-0.1C135.5,37.7,135.5,37.6,135.5,37.5 M163.3,33.1c0.1,0,0.1-0.1,0.2-0.1c-0.1,0-0.3,0-0.4-0.1
		C163.1,33.1,163.2,33.1,163.3,33.1 M162.3,33.1c0.1,0,0.2-0.1,0.2-0.2l0,0c-0.1,0-0.3-0.1-0.4-0.1v0.1
		C162.1,33.1,162.1,33.1,162.3,33.1 M161,32.9c0,0.1,0.1,0.2,0.2,0.2c0.1,0,0.2-0.1,0.2-0.2c0-0.1,0-0.1-0.1-0.1
		S161.1,32.8,161,32.9C161,32.8,161,32.9,161,32.9 M144.7,36.1c-0.1,0-0.2,0.1-0.2,0.1c0.1,0,0.3-0.1,0.4-0.1
		C144.8,36.1,144.7,36.1,144.7,36.1 M143.6,36.1c-0.1,0-0.2,0.1-0.2,0.2v0.1c0.1,0,0.3-0.1,0.4-0.1l0,0
		C143.8,36.2,143.8,36.1,143.6,36.1 M142.6,36.1c-0.1,0-0.2,0.1-0.2,0.2c0,0.1,0.1,0.1,0.1,0.2c0.1,0,0.2,0,0.3-0.1
		c0-0.1,0.1-0.1,0.1-0.1C142.8,36.3,142.7,36.1,142.6,36.1 M171.6,35c0.1,0,0.2-0.1,0.2-0.1c-0.1-0.1-0.3-0.1-0.4-0.1v0.1
		C171.4,34.9,171.6,35,171.6,35 M169.9,34.9c0-0.1-0.1-0.2-0.2-0.2c-0.1,0-0.2,0.1-0.2,0.2c0,0.1,0,0.1,0,0.1c0.1,0,0.2,0,0.4,0.1
		C169.8,34.9,169.9,34.9,169.9,34.9 M168.5,34.6c-0.1,0-0.2,0.1-0.2,0.2c0.1,0,0.3,0,0.4,0.1l0,0C168.8,34.7,168.7,34.6,168.5,34.6
		 M167.5,34.6c-0.1,0-0.1,0.1-0.1,0.1c0.1,0,0.3,0,0.4,0C167.7,34.7,167.6,34.6,167.5,34.6 M131,38.5c0.1,0,0.1,0,0.2-0.1L131,38.5
		C131.1,38.4,131.1,38.4,131,38.5 M130.1,38.4c-0.1,0-0.2,0.1-0.2,0.2c0.1,0,0.3-0.1,0.4-0.1C130.3,38.5,130.2,38.4,130.1,38.4
		 M129.1,38.4c-0.1,0-0.2,0.1-0.2,0.2s0,0.1,0.1,0.1s0.3-0.1,0.4-0.1v-0.1C129.4,38.6,129.2,38.4,129.1,38.4 M130.8,34.6
		c0,0.1,0.1,0.2,0.2,0.2s0.2-0.1,0.2-0.2c0-0.1-0.1-0.1-0.1-0.2c-0.1,0-0.1,0-0.2,0C130.9,34.4,130.8,34.5,130.8,34.6 M130,34.8
		c0.1,0,0.2-0.1,0.2-0.2c0-0.1,0-0.1,0-0.1c-0.1,0-0.3,0.1-0.4,0.1v0.1C129.8,34.7,129.9,34.8,130,34.8 M129,34.8
		c0.1,0,0.2-0.1,0.2-0.2l0,0c-0.1,0-0.3,0.1-0.4,0.1C128.8,34.7,128.9,34.8,129,34.8 M127.9,34.9c0.1,0,0.1-0.1,0.2-0.1
		c-0.1,0-0.3,0-0.4,0.1C127.9,34.8,127.9,34.9,127.9,34.9 M142.3,33.3c0,0.1,0.1,0.2,0.2,0.2s0.2-0.1,0.2-0.2c0-0.1-0.1-0.2-0.1-0.2
		c-0.1,0-0.1,0-0.1,0S142.3,33.2,142.3,33.3 M141.5,33.5c0.1,0,0.2-0.1,0.2-0.2c0-0.1,0-0.1-0.1-0.1s-0.2,0-0.4,0.1l-0.1,0.1
		C141.2,33.4,141.3,33.5,141.5,33.5 M140.4,33.6c0.1,0,0.2-0.1,0.2-0.2v-0.1c-0.1,0-0.3,0-0.4,0.1c0,0,0,0,0,0.1
		C140.2,33.4,140.3,33.6,140.4,33.6 M139.4,33.6c0.1,0,0.2-0.1,0.2-0.2l0,0c-0.1,0-0.3,0-0.4,0.1C139.2,33.5,139.3,33.6,139.4,33.6
		 M138.3,33.6c0.1,0,0.1-0.1,0.2-0.1c-0.1,0-0.3,0-0.4,0.1C138.2,33.6,138.3,33.6,138.3,33.6 M137.5,33.6c-0.1,0-0.1,0-0.3,0h0.1
		C137.4,33.6,137.5,33.6,137.5,33.6 M154.8,34.9c0.1,0,0.2,0,0.4,0c-0.1-0.1-0.1-0.1-0.1-0.1C154.9,34.9,154.9,34.9,154.8,34.9
		 M154,34.9c-0.1,0-0.2,0.1-0.2,0.1c0.1,0,0.3,0,0.4-0.1C154.2,34.9,154.1,34.9,154,34.9 M152.9,34.9c-0.1,0-0.2,0.1-0.2,0.2l0,0
		c0.1,0,0.3,0,0.4-0.1C153.2,35,153.1,34.9,152.9,34.9 M151.9,34.9c-0.1,0-0.2,0.1-0.2,0.2c0,0.1,0,0.1,0,0.1c0.1,0,0.3,0,0.4-0.1
		V35C152.2,35,152,34.9,151.9,34.9 M151.1,35.2c0-0.1-0.1-0.2-0.2-0.2c-0.1,0-0.2,0.1-0.2,0.2c0,0.1,0.1,0.1,0.1,0.2
		c0.1,0,0.1,0,0.2,0C151.1,35.3,151.1,35.2,151.1,35.2 M141,36.7c-0.1,0-0.1,0.1-0.2,0.1c0.1,0,0.3-0.1,0.4-0.1
		C141.2,36.7,141.1,36.7,141,36.7 M140,36.7c-0.1,0-0.2,0.1-0.2,0.2V37c0.1,0,0.3-0.1,0.4-0.1C140.2,36.8,140.1,36.7,140,36.7
		 M138.9,36.7c-0.1,0-0.2,0.1-0.2,0.2s0.1,0.1,0.1,0.2c0.1,0,0.2,0,0.3-0.1c0-0.1,0.1-0.1,0.1-0.1C139.2,36.8,139.1,36.7,138.9,36.7
		 M149.1,35.6c0.1,0,0.2,0,0.4-0.1c-0.1-0.1-0.1-0.1-0.1-0.1C149.2,35.5,149.1,35.5,149.1,35.6 M148.3,35.5c-0.1,0-0.2,0.1-0.2,0.2
		c0.1,0,0.3-0.1,0.4-0.1C148.5,35.6,148.4,35.5,148.3,35.5 M147.3,35.5c-0.1,0-0.2,0.1-0.2,0.2c0,0.1,0,0.1,0,0.1
		c0.1,0,0.3-0.1,0.4-0.1v-0.1C147.5,35.6,147.3,35.5,147.3,35.5 M146.4,35.7c0-0.1-0.1-0.2-0.2-0.2c-0.1,0-0.2,0.1-0.2,0.2
		c0,0.1,0.1,0.2,0.1,0.2c0.1,0,0.1,0,0.2,0C146.4,36,146.4,35.9,146.4,35.7 M127.3,39.1c0.1,0,0.2,0,0.3-0.1c-0.1,0-0.1,0-0.1,0
		C127.5,39,127.4,39,127.3,39.1 M126.5,39c-0.1,0-0.2,0.1-0.2,0.2c0.1,0,0.3-0.1,0.4-0.1C126.7,39.1,126.6,39,126.5,39 M133.7,37.8
		c-0.1,0-0.2,0.1-0.2,0.2c0.1,0,0.3-0.1,0.4-0.1C134,37.9,133.8,37.8,133.7,37.8 M132.7,37.9c-0.1,0-0.2,0.1-0.2,0.2
		c0,0.1,0,0.1,0,0.1c0.1,0,0.3-0.1,0.4-0.1c0,0,0,0,0-0.1C132.9,38,132.8,37.9,132.7,37.9 M132,38.1c0-0.1-0.1-0.2-0.2-0.2
		s-0.2,0.1-0.2,0.2c0,0.1,0.1,0.2,0.2,0.2c0.1,0,0.1,0,0.1,0C131.9,38.3,132,38.2,132,38.1 M132.6,34.3c0.1,0,0.1-0.1,0.2-0.1
		c-0.1,0-0.2,0-0.4,0.1C132.5,34.2,132.5,34.3,132.6,34.3 M133.7,34.2c0.1,0,0.2-0.1,0.2-0.2c-0.1,0-0.3,0-0.4,0.1
		C133.5,34.1,133.6,34.2,133.7,34.2 M134.7,34.2c0.1,0,0.2-0.1,0.2-0.2v-0.1c-0.1,0-0.3,0-0.4,0.1c0,0,0,0,0,0.1
		C134.5,34.1,134.6,34.2,134.7,34.2 M135.7,34.2c0.1,0,0.2-0.1,0.2-0.2c0-0.1-0.1-0.1-0.1-0.1c-0.1,0-0.2,0-0.3,0
		c0,0.1-0.1,0.1-0.1,0.1L135.7,34.2 M157.9,34.6c0-0.1-0.1-0.2-0.2-0.2c-0.1,0-0.2,0.1-0.2,0.2c0,0.1,0.1,0.1,0.1,0.2
		c0.1,0,0.1,0,0.3,0C157.8,34.7,157.9,34.6,157.9,34.6 M158.6,34.3c-0.1,0-0.2,0.1-0.2,0.2c0,0.1,0,0.1,0.1,0.1s0.2,0,0.4,0
		c0-0.1,0.1-0.1,0.1-0.1S158.8,34.3,158.6,34.3 M159.7,34.3c-0.1,0-0.2,0.1-0.2,0.2c0,0.1,0,0.1,0.1,0.1s0.3,0,0.4,0v-0.1
		C160,34.3,159.8,34.3,159.7,34.3 M144.2,32.9c-0.1,0-0.2,0-0.3,0c0.1,0,0.1,0,0.1,0C144.1,33,144.1,32.9,144.2,32.9 M145.1,32.9
		c0.1,0,0.1-0.1,0.2-0.1c-0.1,0-0.3,0-0.4,0C145,32.9,145,32.9,145.1,32.9 M146.1,32.9c0.1,0,0.2-0.1,0.2-0.1c-0.1,0-0.3,0-0.4,0
		C145.9,32.9,146.1,32.9,146.1,32.9 M147.2,32.9c0.1,0,0.2-0.1,0.2-0.2c-0.1,0-0.3,0-0.4,0C147,32.9,147,32.9,147.2,32.9
		 M148.2,32.9c0.1,0,0.2-0.1,0.2-0.2l0,0c-0.1,0-0.3,0-0.4,0C148,32.8,148.1,32.9,148.2,32.9 M149.3,32.9c0.1,0,0.2-0.1,0.2-0.2
		c0,0,0,0,0-0.1c-0.1,0-0.3,0-0.4,0v0.1C149,32.8,149.1,32.9,149.3,32.9 M150.3,32.9c0.1,0,0.2-0.1,0.2-0.2v-0.1c-0.1,0-0.3,0-0.4,0
		v0.1C150.1,32.8,150.2,32.9,150.3,32.9 M151.3,32.9c0.1,0,0.2-0.1,0.2-0.2v-0.1c-0.1,0-0.3,0-0.4,0v0.1
		C151.1,32.7,151.2,32.9,151.3,32.9 M152.4,32.9c0.1,0,0.2-0.1,0.2-0.2v-0.1c-0.1,0-0.3,0-0.4,0v0.1
		C152.2,32.7,152.2,32.9,152.4,32.9 M153.4,32.8c0.1,0,0.2-0.1,0.2-0.2v-0.1c-0.1,0-0.3,0-0.4,0v0.1
		C153.2,32.7,153.3,32.8,153.4,32.8 M154.5,32.8c0.1,0,0.2-0.1,0.2-0.2v-0.1h-0.4v0.1C154.2,32.7,154.3,32.8,154.5,32.8 M155.5,32.8
		c0.1,0,0.2-0.1,0.2-0.2l0,0c-0.1,0-0.3,0-0.4,0c0,0,0,0,0,0.1C155.3,32.6,155.4,32.8,155.5,32.8 M156.6,32.7c0.1,0,0.2-0.1,0.2-0.2
		c-0.1,0-0.3,0-0.4,0l0,0C156.3,32.6,156.4,32.7,156.6,32.7 M157.6,32.7c0.1,0,0.2-0.1,0.2-0.2c-0.1,0-0.3,0-0.4,0
		C157.4,32.6,157.4,32.7,157.6,32.7 M158.6,32.7c0.1,0,0.1-0.1,0.2-0.1c-0.1,0-0.3,0-0.4,0C158.4,32.6,158.6,32.7,158.6,32.7
		 M159.8,32.6c-0.1,0-0.2,0-0.3,0c0.1,0,0.1,0.1,0.1,0.1C159.7,32.7,159.7,32.6,159.8,32.6 M160.7,33.2c-0.1,0-0.2,0.1-0.2,0.2
		s0.1,0.2,0.2,0.2c0.1,0,0.2-0.1,0.2-0.2S160.9,33.2,160.7,33.2 M161.8,33.2c-0.1,0-0.2,0.1-0.2,0.2c0,0.1,0.1,0.2,0.2,0.2
		c0.1,0,0.2-0.1,0.2-0.2S161.9,33.2,161.8,33.2 M162.8,33.1c-0.1,0-0.2,0.1-0.2,0.2s0.1,0.2,0.2,0.2c0.1,0,0.2-0.1,0.2-0.2
		S162.9,33.1,162.8,33.1 M163.8,33.1c-0.1,0-0.2,0.1-0.2,0.2s0.1,0.2,0.2,0.2c0.1,0,0.2-0.1,0.2-0.2C164.1,33.2,164,33.1,163.8,33.1
		 M164.7,33.4c0,0.1,0.1,0.2,0.2,0.2s0.2-0.1,0.2-0.2c0-0.1,0-0.1-0.1-0.1s-0.2,0-0.3-0.1C164.7,33.2,164.7,33.3,164.7,33.4
		 M167,33.6c-0.1,0-0.1,0-0.2-0.1C166.9,33.5,166.9,33.6,167,33.6L167,33.6 M165.9,33.6c0.1,0,0.2-0.1,0.2-0.2
		c-0.1,0-0.3-0.1-0.4-0.1c0,0,0,0,0,0.1C165.7,33.5,165.8,33.6,165.9,33.6 M167,34.1c-0.1,0-0.2,0.1-0.2,0.2s0.1,0.2,0.2,0.2
		c0.1,0,0.2-0.1,0.2-0.2C167.3,34.3,167.1,34.1,167,34.1 M168,34.1c-0.1,0-0.2,0.1-0.2,0.2s0.1,0.2,0.2,0.2c0.1,0,0.2-0.1,0.2-0.2
		C168.3,34.2,168.1,34.1,168,34.1 M169,34.1c-0.1,0-0.2,0.1-0.2,0.2s0.1,0.2,0.2,0.2c0.1,0,0.2-0.1,0.2-0.2
		C169.3,34.2,169.2,34.1,169,34.1 M170.1,34.6c0.1,0,0.2-0.1,0.2-0.1c-0.1-0.1-0.3-0.1-0.4-0.1v0.1C169.9,34.4,170,34.6,170.1,34.6
		 M173.3,35.5c0.1,0,0.1-0.1,0.1-0.1c-0.1-0.1-0.3-0.1-0.4-0.1l0,0C173,35.4,173.1,35.5,173.3,35.5 M175.6,36.3
		c-0.1-0.1-0.3-0.1-0.4-0.2v0.1C175.3,36.3,175.4,36.3,175.6,36.3L175.6,36.3z M160.7,34.3c-0.1,0-0.2,0.1-0.2,0.2
		c0,0.1,0,0.1,0,0.1c0.1,0,0.3,0,0.4,0v-0.1C161,34.3,160.9,34.3,160.7,34.3 M161.8,34.3c-0.1,0-0.2,0.1-0.2,0.2v0.1
		c0.1,0,0.3,0,0.4,0v-0.1C162.1,34.3,161.9,34.2,161.8,34.3 M162.8,34.2c-0.1,0-0.2,0.1-0.2,0.2c0,0.1,0,0.1,0,0.1
		c0.1,0,0.3,0,0.4,0v-0.1C163.1,34.3,162.9,34.2,162.8,34.2 M163.8,34.2c-0.1,0-0.2,0.1-0.2,0.2c0,0.1,0,0.1,0.1,0.1s0.2,0,0.4,0
		c0-0.1,0.1-0.1,0.1-0.1C164.1,34.3,164,34.2,163.8,34.2 M165.2,34.4c0-0.1-0.1-0.2-0.2-0.2s-0.2,0.1-0.2,0.2c0,0.1,0,0.1,0.1,0.1
		S165.1,34.5,165.2,34.4C165.1,34.6,165.2,34.5,165.2,34.4 M171.1,35.1c-0.1,0-0.1,0.1-0.2,0.1c0.1,0,0.3,0.1,0.4,0.1
		C171.3,35.2,171.3,35.1,171.1,35.1 M172.5,35.3c0-0.1-0.1-0.2-0.2-0.2c-0.1,0-0.2,0.1-0.2,0.2v0.1c0.1,0,0.3,0.1,0.4,0.1
		C172.4,35.5,172.5,35.4,172.5,35.3 M174,35.7c0-0.1,0-0.1-0.1-0.1s-0.1-0.1-0.2-0.1s-0.1,0.1-0.2,0.2c0.1,0.1,0.3,0.1,0.4,0.1
		C174,35.8,174,35.8,174,35.7 M77.6,36.9c0.1,0,0.2,0.1,0.2,0.2s-0.1,0.2-0.2,0.2s-0.2-0.1-0.2-0.2C77.3,37,77.4,36.9,77.6,36.9"/>
</g>
<g>
	<path class="st0" d="M88.8,48.8L88.8,48.8L88.8,48.8L88.8,48.8z"/>
	<path class="st0" d="M88.8,29.6L88.8,29.6L88.8,29.6L88.8,29.6z"/>
	<path class="st0" d="M88.7,29.6L88.7,29.6C88.8,29.6,88.8,29.6,88.7,29.6C88.8,29.6,88.8,29.6,88.7,29.6z"/>
	<path class="st0" d="M65.8,45.7c-0.5-0.6-0.9-1.2-1.4-1.8s-1-1.2-1.5-1.8S62,41,61.6,40.5s-0.7-0.9-0.9-1.1
		c0.5-0.1,1.1-0.2,1.7-0.4c0.6-0.2,1.2-0.5,1.8-0.9s1-0.9,1.4-1.5s0.6-1.4,0.6-2.2s-0.1-1.5-0.4-2s-0.7-1-1.2-1.3s-1.1-0.6-1.8-0.7
		s-1.4-0.2-2.1-0.2c-0.5,0-1,0-1.5,0.1c-0.5,0-1,0.1-1.5,0.1s-1,0-1.5,0s-1-0.1-1.5-0.1c0.1,1.2,0.1,2.3,0.1,3.5
		c0,1.1,0.1,2.3,0.1,3.5v4.6c0,1.2,0,2.3-0.1,3.5c0,1.1-0.1,2.3-0.1,3.4c0.4,0,0.9-0.1,1.3-0.1c0.5,0,0.9,0,1.3,0.1
		c-0.1-1.1-0.1-2.2-0.1-3.4c0-1.1-0.1-2.3-0.1-3.5v-2h1c0.6,0.6,1.2,1.3,1.9,2.2s1.4,1.7,2,2.6c0.7,0.9,1.3,1.7,1.8,2.4
		c0.5,0.8,1,1.3,1.2,1.7c0.3,0,0.5-0.1,0.8-0.1h0.8h0.8c0.3,0,0.5,0,0.8,0.1c-0.3-0.3-0.6-0.6-1-1.1C66.7,46.9,66.2,46.3,65.8,45.7z
		 M58.7,38.6c-0.4,0-0.7,0-1,0s-0.6-0.1-0.8-0.1V37c0-1,0-1.9,0.1-2.9c0-1,0.1-1.9,0.1-2.9c0.3,0,0.6-0.1,1-0.1s0.9,0,1.6,0
		c0.5,0,0.9,0.1,1.4,0.1c0.5,0.1,0.9,0.3,1.3,0.6c0.4,0.3,0.7,0.6,1,1.1s0.4,1,0.4,1.7c0,0.8-0.2,1.5-0.5,2s-0.7,0.9-1.2,1.3
		c-0.5,0.3-1.1,0.5-1.7,0.7C59.9,38.5,59.3,38.6,58.7,38.6z"/>
	<path class="st0" d="M47.6,33.5c0-1.1,0.1-2.3,0.1-3.5c-0.2,0-0.5,0.1-0.7,0.1s-0.4,0-0.6,0c-0.2,0-0.4,0-0.6,0
		c-0.2,0-0.4-0.1-0.7-0.1c0.1,1.2,0.1,2.3,0.1,3.5c0,1.1,0.1,2.3,0.1,3.5v4.6c0,1.2,0,2.3-0.1,3.5c0,1.1-0.1,2.3-0.1,3.4
		c0.4,0,0.8-0.1,1.3-0.1s0.9,0,1.3,0.1c-0.1-1.1-0.1-2.2-0.1-3.4c0-1.1-0.1-2.3-0.1-3.5V37C47.6,35.8,47.6,34.6,47.6,33.5z"/>
	<path class="st0" d="M38.3,43.7c-0.5-1-0.9-2.2-1.5-3.4c-0.5-1.2-1-2.4-1.6-3.7c-0.5-1.2-1-2.5-1.5-3.7s-1-2.3-1.4-3.4h-0.5
		c-1.4,3.2-2.8,6.4-4.2,9.5c-1.4,3.1-2.8,6.2-4.2,9.4c0.3,0,0.6-0.1,1-0.1s0.7,0,1,0.1c0.2-0.8,0.6-1.9,1-3.1c0.5-1.3,1-2.6,1.6-4
		c0.6,0,1.1,0,1.6,0s1.1,0,1.6,0c0.6,0,1.2,0,1.8,0c0.6,0,1.2,0,1.7,0c0.2,0.6,0.5,1.2,0.8,1.9s0.5,1.3,0.8,1.9
		c0.3,0.6,0.5,1.2,0.7,1.8s0.4,1.1,0.5,1.5c0.3,0,0.5-0.1,0.7-0.1H39h0.7c0.2,0,0.5,0,0.7,0.1c-0.2-0.4-0.5-1.1-0.9-1.9
		S38.7,44.8,38.3,43.7z M32.9,40.1c-0.5,0-1,0-1.5,0s-1,0-1.5,0s-1,0-1.5,0l2.9-6.8l3,6.8C33.9,40.1,33.4,40.1,32.9,40.1z"/>
	<path class="st0" d="M88.7,48.8C88.8,48.8,88.8,48.8,88.7,48.8C88.8,48.8,88.8,48.8,88.7,48.8L88.7,48.8z"/>
	<path class="st0" d="M157.1,43.5c-1-1.7-2.1-3.4-3.1-5.1c0.9-1.4,1.9-2.9,2.8-4.2c1-1.4,2-2.7,3-4.2c-0.4,0.1-0.7,0.1-1,0.1
		s-0.6,0-1-0.1c-0.8,1.4-1.5,2.6-2.2,3.8s-1.5,2.3-2.3,3.6c-0.8-1.4-1.6-2.6-2.3-3.8s-1.3-2.4-1.9-3.6c-0.3,0-0.5,0.1-0.7,0.1
		s-0.5,0-0.7,0c-0.3,0-0.5,0-0.7,0s-0.5-0.1-0.7-0.1c1,1.6,1.9,3.1,2.9,4.6c0.9,1.5,1.9,3.1,2.8,4.6c-1,1.6-2,3.1-3.1,4.6
		c-1,1.5-2.1,3-3.1,4.5c0.2,0,0.4-0.1,0.5-0.1h0.5h0.5c0.2,0,0.3,0,0.5,0.1c0.8-1.3,1.5-2.6,2.3-4s1.6-2.7,2.6-4.1
		c0.9,1.4,1.7,2.7,2.4,4.1c0.7,1.3,1.4,2.7,2.1,4c0.2,0,0.5-0.1,0.8-0.1h0.8h0.8c0.2,0,0.5,0,0.7,0.1
		C159.1,46.8,158.1,45.1,157.1,43.5z"/>
	<path class="st0" d="M96,32.2c-0.9-0.8-1.9-1.4-3.2-1.9c-1.2-0.4-2.5-0.6-4-0.6v1l0,0c1,0,2,0.2,2.9,0.5s1.7,0.9,2.4,1.6
		c0.7,0.7,1.2,1.6,1.6,2.7c0.4,1.1,0.6,2.4,0.6,3.9s-0.2,2.8-0.6,3.9c-0.4,1.1-0.9,2-1.6,2.7s-1.5,1.2-2.4,1.6
		c-0.9,0.3-1.9,0.5-2.9,0.5c0,0,0,0,0.1,0V49c1.5,0,2.8-0.2,4-0.6c1.2-0.4,2.3-1,3.2-1.8c0.9-0.8,1.6-1.8,2.1-3s0.7-2.6,0.7-4.1
		s-0.2-2.9-0.7-4.1C97.6,34,96.9,33,96,32.2z"/>
	<path class="st0" d="M114.9,31.4c-0.3-0.3-0.7-0.6-1.2-0.8c-0.4-0.2-0.9-0.3-1.3-0.4s-0.9-0.2-1.2-0.2c-0.4,0-0.7,0-1,0
		c-0.2,0-0.4,0-0.7,0c-0.3,0-0.6,0-0.9,0s-0.6,0-0.9,0s-0.6,0-0.8,0c-0.4,0-0.9,0-1.3,0s-0.9-0.1-1.3-0.1c0.1,1.2,0.1,2.3,0.2,3.5
		c0,1.1,0.1,2.3,0.1,3.5v4.6c0,1.2,0,2.3-0.1,3.5c0,1.1-0.1,2.3-0.2,3.4c0.4,0,0.9-0.1,1.3-0.1c0.5,0,0.9,0,1.3,0.1
		c-0.1-1.1-0.1-2.2-0.1-3.4c0-1.1-0.1-2.3-0.1-3.5V40c0.4,0,0.7,0.1,1,0.1s0.7,0,1.1,0c0.6,0,1.4-0.1,2.2-0.2
		c0.8-0.1,1.6-0.4,2.4-0.8c0.7-0.4,1.4-1,1.9-1.7s0.8-1.7,0.8-2.9c0-0.7-0.1-1.4-0.3-1.9C115.5,32.1,115.2,31.7,114.9,31.4z
		 M113.1,36.9c-0.3,0.6-0.7,1-1.2,1.4c-0.5,0.3-1,0.6-1.6,0.7c-0.6,0.1-1.2,0.2-1.7,0.2c-0.7,0-1.3-0.1-1.9-0.2v-8h2.4
		c0.7,0,1.3,0.1,1.9,0.1c0.6,0.1,1,0.3,1.4,0.6c0.4,0.3,0.7,0.6,0.9,1.1c0.2,0.5,0.3,1.1,0.3,1.9C113.6,35.6,113.4,36.3,113.1,36.9z
		"/>
	<path class="st0" d="M140.4,33.5c0-1.1,0.1-2.3,0.1-3.5c-0.2,0-0.5,0.1-0.7,0.1s-0.4,0-0.6,0c-0.2,0-0.4,0-0.6,0
		c-0.2,0-0.4-0.1-0.7-0.1c0.1,1.2,0.1,2.3,0.1,3.5c0,1.1,0.1,2.3,0.1,3.5v4.6c0,1.2,0,2.3-0.1,3.5c0,1.1-0.1,2.3-0.1,3.4
		c0.4,0,0.9-0.1,1.3-0.1c0.5,0,0.9,0,1.3,0.1c-0.1-1.1-0.1-2.2-0.1-3.4c0-1.1-0.1-2.3-0.1-3.5V37C140.3,35.8,140.3,34.6,140.4,33.5z
		"/>
	<path class="st0" d="M129.6,30.1c-1.1,0-2.3,0-3.5,0s-2.3,0-3.5,0c-1.1,0-2.3-0.1-3.5-0.1c0.1,0.4,0.1,0.6,0.1,0.8
		c0,0.3,0,0.5-0.1,0.9c0.4-0.1,0.8-0.1,1.3-0.1s1-0.1,1.5-0.1s1,0,1.5-0.1c0.5,0,1,0,1.5,0c0.1,1.8,0.1,3.7,0.1,5.6v4.6
		c0,1.2,0,2.3-0.1,3.5c0,1.1-0.1,2.3-0.1,3.4c0.4,0,0.8-0.1,1.3-0.1s0.9,0,1.3,0.1c-0.1-1.1-0.1-2.2-0.2-3.4c0-1.1-0.1-2.3-0.1-3.5
		V37c0-1.9,0-3.7,0.1-5.6c0.5,0,1,0,1.5,0s1,0,1.5,0.1c0.5,0,1,0.1,1.5,0.1s0.9,0.1,1.3,0.1c-0.1-0.3-0.1-0.6-0.1-0.8
		c0-0.2,0-0.5,0.1-0.9C131.9,30,130.7,30.1,129.6,30.1z"/>
	<path class="st0" d="M88.8,47.9L88.8,47.9v0.9c0,0,0,0,0.1,0l0,0L88.8,47.9L88.8,47.9z"/>
	<path class="st0" d="M88.8,30.6L88.8,30.6v-1c0,0,0,0-0.1,0l0,0L88.8,30.6L88.8,30.6z"/>
</g>
<g>
	<path class="st0" d="M164.7,29.6c1.8,0,3.3,1.5,3.3,3.3c0,1.8-1.5,3.3-3.3,3.3s-3.3-1.5-3.3-3.3C161.4,31.1,162.9,29.6,164.7,29.6z
		 M164.7,35.9c1.6,0,2.9-1.3,2.9-3c0-1.6-1.3-3-2.9-3c-1.6,0-2.9,1.3-2.9,3C161.8,34.6,163.1,35.9,164.7,35.9z M163.5,32.1
		c0-0.4,0-0.9-0.1-1.3c0.3,0,0.5,0,0.8,0s0.5,0,0.8,0c0.6,0,1.2,0.3,1.2,0.9c0,0.8-0.8,1.1-1.3,1.1c0.5,0.6,1.3,1.7,1.6,2l0,0
		c-0.1,0-0.2,0-0.4,0c-0.1,0-0.2,0-0.4,0c-0.5-0.7-1-1.3-1.5-2H164v0.6c0,0.4,0,0.9,0.1,1.3c-0.1,0-0.2,0-0.3,0s-0.3,0-0.4,0
		c0-0.4,0.1-0.9,0.1-1.3L163.5,32.1L163.5,32.1z M164,32.7c0.1,0,0.2,0,0.4,0c0.6,0,1.2-0.3,1.2-0.9c0-0.5-0.4-0.8-0.9-0.8
		c-0.2,0-0.5,0-0.6,0c0,0.3-0.1,0.6-0.1,0.9L164,32.7L164,32.7z"/>
</g>
</svg>
