<?xml version="1.0" encoding="utf-8"?>
<!-- Generator: Adobe Illustrator 23.0.4, SVG Export Plug-In . SVG Version: 6.00 Build 0)  -->
<svg version="1.1" id="Layer_1" xmlns="http://www.w3.org/2000/svg" xmlns:xlink="http://www.w3.org/1999/xlink" x="0px" y="0px"
	 viewBox="0 0 191 78" style="enable-background:new 0 0 191 78;" xml:space="preserve">
<style type="text/css">
	.st0{fill:#919497;}
</style>
<g>
	<path class="st0" d="M53.5,46.2c0,0.3-0.1,0.5-0.4,0.5h-0.4h-1.3h-0.3c-0.3,0-0.5-0.1-0.5-0.5V30.9c0-0.3,0.2-0.4,0.5-0.5h2.2
		c0.3,0,0.4,0.2,0.4,0.5v5.5h0.1c1.7-1.2,4-1.8,7-1.8c3.1,0,5.6,0.6,7.5,1.7c1.8,1.1,2.6,2.5,2.6,4.2s-0.7,3.1-2.2,4.3
		C66.8,46.2,64,47,60.3,47c-2.9,0-5.2-0.6-6.7-1.8h-0.1V46.2z M60.5,36.3c-4.7,0-7,1.7-7,5c0,1.4,0.8,2.5,2.5,3.2
		c1.3,0.5,2.8,0.8,4.6,0.8c2.3,0,4-0.4,5.3-1.3c1.1-0.8,1.7-1.9,1.7-3.2C67.6,37.8,65.2,36.3,60.5,36.3z"/>
	<path class="st0" d="M95.1,39.5c0,0.5-0.2,0.9-0.5,1.2s-0.8,0.5-1.2,0.5H76.7c0,2.6,2.5,3.8,7.6,3.8c2.8,0,4.9-0.3,6.2-1
		c0.4-0.2,0.8-0.5,1.3-0.9c0.1-0.2,0.2-0.2,0.4-0.2h0.1l1.6,0.5c0.2,0.1,0.3,0.2,0.3,0.4c0,0.1,0,0.2-0.1,0.3l0,0
		c-0.9,0.8-2,1.4-3.3,1.8c-1.7,0.6-4,0.8-7,0.8c-3.3,0-5.9-0.6-7.8-1.7c-1.8-1.1-2.7-2.5-2.7-4.2c0-2,0.9-3.5,2.6-4.6
		c2-1.3,4.9-1.9,8.7-1.9c2.7,0,5,0.4,6.8,1.1c1.8,0.8,3,1.8,3.6,3.2C95,39,95.1,39.2,95.1,39.5z M91.8,39.7
		c-0.3-2.3-2.8-3.5-7.6-3.5c-2.1,0-3.8,0.4-5.3,1.1s-2.2,1.5-2.2,2.4H91.8z"/>
	<path class="st0" d="M100.4,46.2c0,0.3-0.1,0.5-0.4,0.5h-0.4h-1.3H98c-0.3,0-0.5-0.1-0.5-0.5V30.9c0-0.3,0.2-0.4,0.5-0.5h2.2
		c0.3,0,0.4,0.2,0.4,0.5v5.5h0.1c1.7-1.2,4-1.8,7-1.8c3.1,0,5.6,0.6,7.5,1.7c1.8,1.1,2.6,2.5,2.6,4.2s-0.7,3.1-2.2,4.3
		c-1.9,1.5-4.7,2.2-8.4,2.2c-2.9,0-5.2-0.6-6.7-1.8h-0.1C100.4,45.2,100.4,46.2,100.4,46.2z M107.4,36.3c-4.7,0-7,1.7-7,5
		c0,1.4,0.8,2.5,2.5,3.2c1.3,0.5,2.8,0.8,4.6,0.8c2.3,0,4-0.4,5.3-1.3c1.1-0.8,1.7-1.9,1.7-3.2C114.5,37.8,112.1,36.3,107.4,36.3z"
		/>
	<path class="st0" d="M142,39.5c0,0.5-0.2,0.9-0.5,1.2s-0.8,0.5-1.2,0.5h-16.7c0,2.6,2.5,3.8,7.6,3.8c2.8,0,4.9-0.3,6.2-1
		c0.4-0.2,0.8-0.5,1.3-0.9c0.1-0.2,0.2-0.2,0.4-0.2h0.1l1.6,0.5c0.2,0.1,0.3,0.2,0.3,0.4c0,0.1,0,0.2-0.1,0.3l0,0
		c-0.9,0.8-2,1.4-3.3,1.8c-1.7,0.6-4,0.8-7,0.8c-3.3,0-5.9-0.6-7.8-1.7c-1.8-1.1-2.7-2.5-2.7-4.2c0-2,0.9-3.5,2.6-4.6
		c2-1.3,4.9-1.9,8.7-1.9c2.7,0,5,0.4,6.8,1.1c1.8,0.8,3,1.8,3.6,3.2C141.9,39,142,39.2,142,39.5z M138.7,39.7
		c-0.3-2.3-2.8-3.5-7.6-3.5c-2.1,0-3.8,0.4-5.3,1.1c-1.5,0.7-2.2,1.5-2.2,2.4H138.7z"/>
</g>
</svg>
