<?xml version="1.0" encoding="utf-8"?>
<!-- Generator: Adobe Illustrator 23.0.4, SVG Export Plug-In . SVG Version: 6.00 Build 0)  -->
<svg version="1.1" id="Layer_1" xmlns="http://www.w3.org/2000/svg" xmlns:xlink="http://www.w3.org/1999/xlink" x="0px" y="0px"
	 viewBox="0 0 191 78" style="enable-background:new 0 0 191 78;" xml:space="preserve">
<style type="text/css">
	.st0{fill:#919497;}
</style>
<g>
	<path class="st0" d="M53.4,47.3c-2.2,2.2-5,2-9.4,2h-2.8V27.1h5.6c2.3,0,4.2,0.1,5.8,1.6c1.1,1.1,1.7,2.6,1.7,4.3
		c0,2.5-1.5,4.5-3.8,4.9c2.9,0.5,4.5,2.2,4.5,5.1C55,44.6,54.5,46.2,53.4,47.3z M51,30.1c-1.4-1.4-3.8-1.3-6-1.3h-1.7v8.3h2.2
		c1.9,0,4.2-0.2,5.5-1.5c0.7-0.7,1.1-1.6,1.1-2.8S51.7,30.8,51,30.1z M51.7,40.3c-1.6-1.6-4.4-1.4-6.7-1.4h-1.7v8.6h2.4
		c2.9,0,4.6-0.2,6-1.6c0.7-0.7,1.1-2,1.1-2.9C52.9,42.1,52.6,41.1,51.7,40.3z"/>
	<path class="st0" d="M60.2,29.3c-0.7,0-1.3-0.6-1.3-1.3c0-0.7,0.6-1.3,1.3-1.3s1.3,0.6,1.3,1.3C61.5,28.7,60.9,29.3,60.2,29.3z
		 M59.2,49.3v-16h2v16H59.2z"/>
	<path class="st0" d="M72.2,49.7c-4.4,0-7.2-3.3-7.2-8.4s2.8-8.4,7.4-8.4c4.3,0,7.1,3.2,7.1,8.5C79.5,46.4,76.6,49.7,72.2,49.7z
		 M72.2,34.7c-3.2,0-5.2,2.6-5.2,6.6s2.2,6.7,5.2,6.7c3.3,0,5.2-2.6,5.2-6.5C77.4,37.4,75.1,34.7,72.2,34.7z"/>
	<path class="st0" d="M92,27.4c-0.2-0.1-1.2-0.7-2.4-0.7c-0.9,0-1.7,0.3-2.2,0.8c-0.9,0.9-0.9,2.4-0.9,3.3v2.6h5.1V35h-5.1v14.3h-2
		V35h-2.8v-1.6h2.8v-2.6c0-1.3,0.1-3.2,1.5-4.6c0.8-0.8,2-1.3,3.4-1.3c1.9,0,3.2,0.9,3.4,1L92,27.4z"/>
	<path class="st0" d="M96.1,29.3c-0.7,0-1.3-0.6-1.3-1.3c0-0.7,0.6-1.3,1.3-1.3c0.7,0,1.3,0.6,1.3,1.3
		C97.4,28.7,96.8,29.3,96.1,29.3z M95.1,49.3v-16h2v16H95.1z"/>
	<path class="st0" d="M112.1,49.3V40c0-2,0-3.4-0.9-4.4c-0.6-0.6-1.5-0.9-2.5-0.9c-2.4,0-4.8,1.5-4.9,1.6v13h-2v-16h1.9v1.2
		c0.3-0.2,2.6-1.6,5.3-1.6c1.1,0,2.6,0.3,3.7,1.3c1.2,1.2,1.5,2.5,1.5,5.4v9.6h-2.1V49.3z"/>
	<path class="st0" d="M119.5,29.3c-0.7,0-1.3-0.6-1.3-1.3c0-0.7,0.6-1.3,1.3-1.3c0.7,0,1.3,0.6,1.3,1.3
		C120.8,28.7,120.2,29.3,119.5,29.3z M118.5,49.3v-16h2v16H118.5z"/>
	<path class="st0" d="M130.5,49.7c-1.5,0-2.5-0.4-3.3-1.1c-0.9-0.9-0.9-2.2-0.9-4.1V35h-2.8v-1.6h2.8v-4.5h2v4.5h5.1V35h-5.1v9
		c0,2.2-0.2,3.9,2.5,3.9c1.2,0,2.2-0.5,2.4-0.5l0.5,1.5C133.4,49,132.3,49.7,130.5,49.7z"/>
	<path class="st0" d="M144.5,50.4c-1,2.7-1.8,3.9-2.8,5c-1,1-2.5,1.5-3.9,1.5c-1.6,0-2.7-0.5-2.9-0.6l0.5-1.6c0.2,0.1,1,0.4,2.3,0.4
		c1,0,2-0.3,2.6-0.9c1-1,1.5-2.3,2.4-4.4l-6.6-16.4h2.2l5.5,13.8l5-13.8h2.1L144.5,50.4z"/>
	<path class="st0" d="M155.9,38.1c-2,0-3.5-1.6-3.5-3.5c0-2,1.6-3.5,3.5-3.5c2,0,3.5,1.6,3.5,3.5C159.5,36.6,157.9,38.1,155.9,38.1z
		 M155.9,31.8c-1.6,0-2.8,1.2-2.8,2.8s1.2,2.8,2.8,2.8s2.8-1.2,2.8-2.8S157.5,31.8,155.9,31.8z M156.9,36.5l-0.5-1
		c-0.3-0.6-0.3-0.6-0.9-0.6h-0.2v1.6h-0.7v-3.9h0.9c0.5,0,0.9,0,1.3,0.3c0.2,0.2,0.3,0.5,0.3,0.8c0,0.4-0.2,0.8-0.8,0.9
		c0.3,0,0.4,0.3,0.5,0.5l0.6,1.3h-0.5L156.9,36.5L156.9,36.5z M155.7,33.2h-0.3v1.1c0.4,0,1.2,0.1,1.2-0.6
		C156.6,33.2,156.1,33.2,155.7,33.2z"/>
</g>
</svg>
