<?xml version="1.0" encoding="utf-8"?>
<!-- Generator: Adobe Illustrator 23.0.4, SVG Export Plug-In . SVG Version: 6.00 Build 0)  -->
<svg version="1.1" id="Layer_1" xmlns="http://www.w3.org/2000/svg" xmlns:xlink="http://www.w3.org/1999/xlink" x="0px" y="0px"
	 viewBox="0 0 191 78" style="enable-background:new 0 0 191 78;" xml:space="preserve">
<style type="text/css">
	.st0{fill:#919497;}
</style>
<g>
	<g>
		<g>
			<path class="st0" d="M56.7,34.9c0.4,0.1,0.8,0.3,1.2,0.4c3.6,1.4,5.5,4.6,5.1,8.4c-0.2,1.7-0.6,3.2-1.6,4.6
				c-1.3,1.8-3.2,2.7-5.3,3.1c-0.9,0.2-1.8,0.3-2.8,0.3c-2.7,0-5.3,0-8,0c-1,0-1.3-0.3-1.3-1.3c0-9.2,0-18.5,0-27.7
				c0-0.5-0.1-0.7-0.6-0.8c-0.3-0.1-0.6-0.2-0.9-0.4c-0.4-0.2-0.5-0.5-0.3-0.8s0.5-0.4,0.8-0.2c1.2,0.5,2.4,0.5,3.6,0.5
				c2.1,0,4.2,0,6.3,0c1.7,0,3.3,0.3,4.7,1c1.8,0.9,2.9,2.4,3.3,4.3c0.4,1.7,0.3,3.4-0.5,5.1c-0.7,1.6-1.9,2.7-3.5,3.3
				C56.9,34.8,56.8,34.8,56.7,34.9L56.7,34.9z M45.5,43L45.5,43c0,2.3,0,4.5,0,6.8c0,0.6,0.1,0.6,0.6,0.6c2.3,0,4.6,0,7,0
				c1.4,0,2.8-0.1,4.1-0.6c1.9-0.7,3.3-1.8,4-3.7c0.3-0.9,0.5-1.8,0.6-2.7c0.3-3.3-1.4-6-4.5-7.1c-1.1-0.4-2.2-0.6-3.3-0.7
				c-2.5,0-5.1,0-7.6,0c-0.7,0-0.8,0-0.8,0.8C45.5,38.7,45.5,40.8,45.5,43z M45.5,28.3L45.5,28.3c0,1.7,0,3.5,0,5.2
				c0,0.1,0,0.2,0,0.4c0,0.4,0.1,0.5,0.5,0.5c0.1,0,0.3,0,0.4,0c2.1,0,4.2,0,6.4,0c0.6,0,1.3,0,1.9-0.1c2.1-0.3,3.9-1.3,4.7-3.4
				c0.5-1.3,0.6-2.6,0.4-4c-0.3-2-1.5-3.3-3.4-4.1c-1.1-0.4-2.2-0.6-3.4-0.6c-2.3,0-4.6,0-6.8,0c-0.7,0-0.7,0-0.7,0.7
				C45.5,24.8,45.5,26.5,45.5,28.3z"/>
			<path class="st0" d="M74.6,40.2c0-2.6,0.5-5.1,1.8-7.4c3.3-5.7,10.7-5.9,14.5-2.2c1.5,1.4,2.5,3.2,3,5.2
				c0.9,3.7,0.9,7.4-0.8,10.9c-3,6.4-10.2,6.7-14.1,3.9c-2.2-1.5-3.4-3.7-4-6.2c-0.2-0.7-0.3-1.4-0.4-2.1
				C74.7,41.6,74.7,40.9,74.6,40.2z M93.2,40.2c0-2.2-0.3-4.2-1.1-6c-1.3-2.9-3.6-4.6-6.8-4.9c-3.2-0.2-5.8,1-7.5,3.8
				c-1,1.7-1.5,3.5-1.7,5.4c-0.2,2.5,0,4.9,1,7.3c1.4,3.2,3.8,5.1,7.4,5.1c3.6,0.1,6.1-1.7,7.6-4.9C92.9,44.2,93.2,42.2,93.2,40.2z"
				/>
			<path class="st0" d="M142.4,42.3c-1.8,0-3.5,0-5.3,0c-0.6,0-0.7,0-0.6,0.7c0.1,1.6,0.5,3.2,1.5,4.5c1,1.4,2.3,2.1,4.1,2.1
				c1.5,0,3-0.3,4.3-1.1c0.2-0.1,0.3-0.2,0.5-0.3c0.4-0.2,0.7-0.1,0.8,0.2s0.1,0.6-0.3,0.8c-0.7,0.3-1.3,0.7-2.1,0.9
				c-1.4,0.5-2.8,0.7-4.2,0.5c-2-0.2-3.5-1.3-4.6-3c-0.8-1.3-1.2-2.7-1.4-4.2c-0.3-2.2-0.1-4.3,0.7-6.4c0.8-1.8,2-3.2,3.9-4
				c3.2-1.2,6.6,0.3,8.1,3.5c0.7,1.5,0.9,3,0.9,4.7c0,0.6-0.3,0.9-1,0.9C146,42.3,144.2,42.3,142.4,42.3z M141.9,41.1
				c1.7,0,3.3,0,5,0c0.5,0,0.6-0.1,0.5-0.5c-0.1-1.1-0.3-2.3-0.8-3.3c-0.8-1.8-2-2.9-4-3.1c-2.1-0.2-3.8,0.6-5,2.4
				c-0.7,1.2-1.1,2.4-1.2,3.8c-0.1,0.6,0,0.7,0.6,0.7C138.7,41.1,140.3,41.1,141.9,41.1z"/>
			<path class="st0" d="M131,48.2c-0.3,0.4-0.6,0.7-0.9,1c-1.1,1-2.4,1.5-3.9,1.6c-0.9,0-1.8,0-2.6-0.2c-2.1-0.5-3.5-1.9-4-4
				c-0.2-0.8-0.3-1.7-0.3-2.5c0-3.3,0-6.7,0-10c0-0.1,0-0.2,0-0.3c0.1-0.3,0.3-0.5,0.7-0.5c0.3,0,0.5,0.2,0.6,0.5c0,0.1,0,0.3,0,0.4
				c0,3.1,0,6.2,0,9.3c0,0.7,0.1,1.5,0.2,2.2c0.5,2.4,1.7,3.5,4.2,3.8c1.3,0.2,2.6-0.1,3.8-0.8c1.5-1,2.1-2.5,2.2-4.2
				c0.1-2.6,0.1-5.1,0.1-7.7c0-1,0-1.9,0-2.9c0-0.4,0.3-0.7,0.7-0.7s0.6,0.3,0.7,0.7c0,0.1,0,0.3,0,0.4c0,4.1,0,8.3,0,12.4
				c0,1,0.2,2,0.6,3c0.2,0.5,0.2,0.8-0.2,1c-0.3,0.2-0.7,0.1-1-0.3c-0.2-0.3-0.3-0.7-0.5-1C131.2,49,131.1,48.6,131,48.2z"/>
			<path class="st0" d="M98.6,41.4c0-2.2,0-4.3,0-6.5c0-0.4-0.1-0.5-0.5-0.5c-0.3,0-0.7,0-1,0c-0.4,0-0.6-0.2-0.7-0.6
				c0-0.3,0.2-0.6,0.6-0.6c0.1,0,0.3,0,0.4,0c1.1,0,1.1,0,1.1-1.1c0-1.2,0-2.5,0-3.7c0-0.1,0-0.2,0-0.4c0-0.3,0.2-0.5,0.6-0.6
				c0.3,0,0.6,0.1,0.7,0.5c0,0.1,0,0.3,0,0.4c0,1.4,0,2.9,0,4.3c0,0.4,0.1,0.5,0.5,0.5c1.1,0,2.3,0,3.4,0c0.1,0,0.3,0,0.4,0
				c0.3,0,0.5,0.2,0.5,0.5c0,0.4-0.2,0.5-0.5,0.6c-0.1,0-0.2,0-0.4,0c-1.2,0-2.4,0-3.5,0c-0.3,0-0.4,0.1-0.4,0.4c0,4.3,0,8.6,0,12.9
				c0,1.3,0.7,2,2.1,1.8c0.7-0.1,1.5-0.3,2.2-0.5c0.3-0.1,0.5-0.1,0.7,0.2s0.1,0.6-0.2,0.8c0,0-0.1,0-0.1,0.1
				c-1.3,0.6-2.6,0.9-4.1,0.6c-1.2-0.3-1.9-1.3-1.9-2.8C98.5,45.7,98.6,43.5,98.6,41.4L98.6,41.4z"/>
			<path class="st0" d="M109.3,35.2c0.1-0.1,0.1-0.1,0.2-0.2c1.3-1.7,3.1-2.3,5.2-2.1c0.6,0.1,1.2,0.2,1.8,0.3
				c0.2,0,0.4,0.2,0.5,0.3c0.1,0.2,0.2,0.5,0.1,0.7c-0.1,0.3-0.3,0.4-0.6,0.4c-0.2,0-0.4-0.1-0.5-0.2c-1-0.3-2.1-0.5-3.2-0.2
				c-1.8,0.5-2.8,1.7-3.2,3.4c-0.2,0.7-0.3,1.5-0.3,2.2c0,3.2,0,6.5,0,9.7c0,0.2,0,0.4-0.1,0.6c-0.1,0.3-0.3,0.5-0.6,0.5
				c-0.3,0-0.6-0.2-0.6-0.6c0-0.1,0-0.3,0-0.4c0-5.2,0-10.4,0-15.6c0-0.1,0-0.2,0-0.4c0.1-0.3,0.3-0.6,0.6-0.6
				c0.4,0,0.6,0.2,0.7,0.5c0,0.3,0,0.6,0,0.9c0,0.2,0,0.3,0,0.5C109.2,35.2,109.2,35.2,109.3,35.2z"/>
			<path class="st0" d="M69.8,40.2c0,3.5,0,7,0,10.5c0,0.2,0,0.3,0,0.5c-0.1,0.3-0.3,0.5-0.6,0.6c-0.3,0-0.6-0.1-0.7-0.5
				c0-0.2,0-0.3,0-0.5c0-7.1,0-14.2,0-21.2v-0.1c0-0.5,0.3-0.9,0.7-0.9c0.4,0,0.7,0.3,0.7,0.9C69.8,33,69.8,36.6,69.8,40.2z"/>
		</g>
	</g>
	<g>
		<path class="st0" d="M68.9,21.2c1.9,1.7,2.2,4.8,0,4.8"/>
		<path class="st0" d="M68.9,21.2c-1.9,1.7-2.2,4.8,0,4.8"/>
	</g>
	<g>
		<path class="st0" d="M149.1,49.7h-0.4v-0.2h1v0.2h-0.4v1h-0.2L149.1,49.7L149.1,49.7z"/>
		<path class="st0" d="M149.9,49.5h0.2l0.4,0.6l0.4-0.6h0.2v1.2h-0.2v-0.8l-0.4,0.6l0,0l-0.4-0.5v0.8h-0.2V49.5z"/>
	</g>
</g>
</svg>
