<?xml version="1.0" encoding="utf-8"?>
<!-- Generator: Adobe Illustrator 23.0.4, SVG Export Plug-In . SVG Version: 6.00 Build 0)  -->
<svg version="1.1" id="Layer_1" xmlns="http://www.w3.org/2000/svg" xmlns:xlink="http://www.w3.org/1999/xlink" x="0px" y="0px"
	 viewBox="0 0 191 78" style="enable-background:new 0 0 191 78;" xml:space="preserve">
<style type="text/css">
	.st0{fill:#919497;}
</style>
<g>
	<g>
		<path class="st0" d="M36.5,31.6c2.6,0,4.5,1,6.1,3.3l0.1,0.1h2.6l-0.1-0.3c-1.7-3.3-4.9-5.2-8.6-5.2c-2.6,0-4.8,0.9-6.6,2.7
			c-2,1.9-3,4.3-3,6.9c0,5.6,4.2,9.9,9.7,9.9c3.6,0,6.6-1.8,8.3-5l0.2-0.3h-2.6l-0.1,0.1c-1.5,2.1-3.5,3.1-6,3.1
			c-4.1,0-7.3-3.4-7.3-7.7C29.3,35,32.6,31.6,36.5,31.6"/>
	</g>
	<path class="st0" d="M53,32.3l3.2,8.5h-6.4L53,32.3z M51.8,29.8l-7.3,18.8h2.3l2.2-5.8h8l2.2,5.8h2.3l-7.2-18.7v-0.1
		C54.3,29.8,51.8,29.8,51.8,29.8z"/>
	<polygon class="st0" points="62,29.8 62,48.6 70.6,48.6 70.6,46.4 64.2,46.4 64.2,29.8 	"/>
	<polygon class="st0" points="81.1,29.8 75.4,45.2 69.7,29.8 67.5,29.8 74.6,48.6 76.2,48.6 83.3,29.8 	"/>
	<rect x="83.7" y="29.8" class="st0" width="2.2" height="18.8"/>
	<polygon class="st0" points="100.5,29.8 100.7,45.5 90.9,29.9 90.9,29.8 88.4,29.8 88.4,48.6 90.6,48.6 90.4,32.8 100.2,48.6 
		102.7,48.6 102.7,29.8 	"/>
	<polygon class="st0" points="121.2,29.8 113,39.7 113,29.8 110.8,29.8 110.8,48.6 113,48.6 113,42.8 114.9,40.6 121,48.6 
		123.7,48.6 116.3,38.9 123.9,29.8 	"/>
	<polygon class="st0" points="124.3,29.8 124.3,48.6 133,48.6 133,46.4 126.5,46.4 126.5,29.8 	"/>
	<polygon class="st0" points="134.5,29.8 134.5,48.6 144.5,48.6 144.5,46.4 136.7,46.4 136.7,40.3 144.5,40.3 144.5,38.1 
		136.7,38.1 136.7,32 144.5,32 144.5,29.8 	"/>
	<rect x="147" y="29.8" class="st0" width="2.2" height="18.8"/>
	<polygon class="st0" points="163.8,29.8 164,45.5 154.3,29.9 154.2,29.8 151.8,29.8 151.8,48.6 153.9,48.6 153.7,32.8 163.5,48.5 
		163.5,48.6 166,48.6 166,29.8 	"/>
</g>
</svg>
