<?xml version="1.0" encoding="utf-8"?>
<!-- Generator: Adobe Illustrator 23.0.4, SVG Export Plug-In . SVG Version: 6.00 Build 0)  -->
<svg version="1.1" id="Layer_1" xmlns="http://www.w3.org/2000/svg" xmlns:xlink="http://www.w3.org/1999/xlink" x="0px" y="0px"
	 viewBox="0 0 191 78" style="enable-background:new 0 0 191 78;" xml:space="preserve">
<style type="text/css">
	.st0{fill:#919497;}
</style>
<g>
	<path class="st0" d="M135.9,42.5l2-5.6l2,5.6H135.9z M136.8,34.1L132,47.2h2.2l1-2.7h5.4l1,2.7h2.2L139,34.1H136.8z M121,42.5
		l2-5.6l2,5.6H121z M122,34.1l-4.8,13.1h2.2l1-2.7h5.4l1,2.7h2.2l-4.8-13.1H122z M42.5,45.3c-2.5,0-4.3-2.1-4.3-4.7
		c0-2.6,1.8-4.7,4.3-4.7c1.6,0,2.6,0.7,3.5,1.8l1.5-1.4c-1.2-1.4-2.9-2.4-5-2.4c-3.7,0-6.5,3-6.5,6.7s2.8,6.7,6.5,6.7
		c2.4,0,4.3-1.2,5.5-3l-1.6-1.2C45.6,44.4,44.3,45.3,42.5,45.3 M155.9,34.1v9.2l-5.2-9.2h-2.3v13.1h2.1v-9l5.2,9h2.3V34.1H155.9z
		 M110.1,39.6h-5.4v-5.5h-2.1v13.1h2.1v-5.6h5.4v5.6h2.1V34.1h-2.1V39.6z M84.2,41.6h3v-2h-3v-3.5h6.1v-2h-8.2v13.1h8.3v-2h-6.2
		C84.2,45.2,84.2,41.6,84.2,41.6z M71.2,34.1h-2.1v13.1H77v-2h-5.7V34.1H71.2z M58,45.3c-2.5,0-4.3-2.1-4.3-4.7S55.5,36,58,36
		s4.3,2.1,4.3,4.7S60.5,45.3,58,45.3 M58,34c-3.7,0-6.5,3-6.5,6.7s2.8,6.7,6.5,6.7s6.5-3,6.5-6.7S61.7,34,58,34"/>
</g>
</svg>
