<?xml version="1.0" encoding="utf-8"?>
<!-- Generator: Adobe Illustrator 23.0.4, SVG Export Plug-In . SVG Version: 6.00 Build 0)  -->
<svg version="1.1" id="Layer_1" xmlns="http://www.w3.org/2000/svg" xmlns:xlink="http://www.w3.org/1999/xlink" x="0px" y="0px"
	 viewBox="0 0 191 78" style="enable-background:new 0 0 191 78;" xml:space="preserve">
<style type="text/css">
	.st0{fill:#919497;}
</style>
<g>
	<g>
		<g>
			<path class="st0" d="M58.8,46.5c-2.3,2.2-4.9,2.8-8.6,2.8h-6.5V28.5h7.1c3.5,0,5.8,0.7,7.8,2.4c1.9,1.7,3.2,4.6,3.2,7.9
				C61.8,42,60.6,44.7,58.8,46.5z M55.9,32.7c-1.8-1.9-4.2-2.1-6.3-2.1c0,0-0.3,0-2.5,0V47h2.8c2.3,0,4-0.3,5.5-1.5
				c1.4-1.1,2.8-3.3,2.8-6.6C58.2,36,57.1,33.9,55.9,32.7z"/>
			<path class="st0" d="M77,49.3l-2.3-5.4h-8.3l-2.2,5.4h-3l9.2-20.8h1.4l9,20.8H77z M70.6,34l-3.2,7.7h6.5L70.6,34z"/>
			<path class="st0" d="M83.5,49.3V28.5h3.4v20.8H83.5z"/>
			<path class="st0" d="M91.9,49.3V28.5h3.4V47h9.8v2.3H91.9z"/>
			<path class="st0" d="M107.1,49.3V28.5h3.4v20.8H107.1z"/>
			<path class="st0" d="M115.6,49.3V28.5h13.2v2.2H119v6.6h8.3v2.2H119V47h10.5v2.3H115.6z"/>
			<path class="st0" d="M138.5,49.9c-3.8,0-6.5-1.9-7.5-5.5l0.9-0.3c1.6,2.6,3.8,3.6,6.3,3.6c2.7,0,4.4-1.7,4.4-3.8s-1.2-3-4-3.6
				c-0.7-0.1-1.9-0.4-2.4-0.6c-2.9-0.8-4.9-2.6-4.9-5.6c0-3.5,3-6.2,7.1-6.2c3.9,0,6.1,2.1,6.7,5.2l-0.9,0.3c-1-2-2.6-3.5-5.2-3.3
				c-2.4,0.1-4.1,1.4-4.2,3c-0.1,1.6,0.2,2.8,2.8,3.6c0.6,0.2,2.3,0.5,3.1,0.7c4.1,0.9,5.3,3.2,5.4,5.9
				C146,47.2,143,49.9,138.5,49.9z"/>
		</g>
	</g>
	<g>
		<path class="st0" d="M147.8,28.8h0.9c0.2,0,0.4,0.1,0.6,0.2c0.1,0.1,0.2,0.3,0.2,0.4l0,0c0,0.3-0.2,0.5-0.5,0.6l0.5,0.7H149
			l-0.5-0.7h-0.4v0.7h-0.3V28.8z M148.6,29.8c0.2,0,0.4-0.1,0.4-0.3l0,0c0-0.2-0.2-0.3-0.4-0.3h-0.5v0.7h0.5V29.8z"/>
	</g>
	<path class="st0" d="M148.5,32.1c-1.2,0-2.2-1-2.2-2.2s1-2.2,2.2-2.2s2.2,1,2.2,2.2C150.7,31.1,149.7,32.1,148.5,32.1z M148.5,28.2
		c-1,0-1.7,0.8-1.7,1.7s0.8,1.7,1.7,1.7s1.7-0.8,1.7-1.7S149.5,28.2,148.5,28.2z"/>
</g>
</svg>
