<?xml version="1.0" encoding="utf-8"?>
<!-- Generator: Adobe Illustrator 23.0.4, SVG Export Plug-In . SVG Version: 6.00 Build 0)  -->
<svg version="1.1" id="Layer_1" xmlns="http://www.w3.org/2000/svg" xmlns:xlink="http://www.w3.org/1999/xlink" x="0px" y="0px"
	 viewBox="0 0 191 78" style="enable-background:new 0 0 191 78;" xml:space="preserve">
<style type="text/css">
	.st0{fill:#919497;}
</style>
<path class="st0" d="M89,33.4c-1-0.9-2.4-1.3-3.7-1.2h-8.5v16.2h2.4v-6h5.6c0.7,0.6,1.2,1.4,1.6,2.3l1.7,3.8h2.4l-2-4.4
	c-0.3-0.7-0.6-1.4-1.1-2c0.1-0.1,0.3-0.1,0.4-0.1c0.8-0.3,1.5-0.9,1.9-1.6c0.5-0.8,0.8-1.6,0.7-2.5v-1.1
	C90.4,35.3,89.9,34.2,89,33.4z M88,37.7c0.1,0.7-0.3,1.4-0.8,1.8c-0.6,0.4-1.4,0.7-2.2,0.6h-5.9v-6h5.8c2,0,3.1,0.8,3.1,2.4V37.7z"
	/>
<path class="st0" d="M71.4,33.1c-1.7-0.7-3.4-1.1-5.2-1h-5.4v16.2h5.1c1,0,2,0,2.9-0.1c0.6-0.1,1.1-0.3,1.7-0.5c1-0.4,2-1,2.7-1.7
	c0.8-0.7,1.3-1.6,1.8-2.6c1-2.4,0.8-5.1-0.5-7.4C73.7,34.8,72.6,33.8,71.4,33.1z M71.4,44.5c-0.4,0.3-0.8,0.6-1.1,0.9
	c-0.5,0.3-1,0.4-1.6,0.6c-0.9,0.2-1.8,0.3-2.7,0.3h-2.9v-12H66c0.8,0,1.6,0,2.4,0.1c0.6,0.1,1.1,0.3,1.6,0.5c0.6,0.3,1,0.6,1.5,1
	c1.1,1.1,1.8,2.7,1.8,4.4C73.2,41.8,72.6,43.4,71.4,44.5z"/>
<path class="st0" d="M115.3,42.3h3.1v3.5l-0.3,0.1c-1.1,0.4-2.2,0.6-3.3,0.6c-1.7,0.1-3.4-0.6-4.6-1.7c-1.2-1.1-1.8-2.8-1.8-4.5
	c-0.1-1.7,0.6-3.2,1.8-4.4c1.1-1.2,2.8-1.8,4.5-1.8c2,0.1,4,0.6,5.7,1.7v-2.4c-1-0.4-2-0.8-3.1-1.1c-0.8-0.2-1.7-0.3-2.6-0.3
	c-2.3-0.1-4.6,0.8-6.2,2.4c-1.7,1.5-2.5,3.8-2.5,6c-0.1,2.2,0.8,4.3,2.4,5.7c1.6,1.5,3.8,2.4,6.4,2.3c2,0,4.1-0.4,6-1.3v-6.8h-5.5
	V42.3z"/>
<path class="st0" d="M130.7,32c-2.3-0.1-4.5,0.8-6.2,2.4c-1.6,1.5-2.5,3.7-2.5,6c-0.1,2.2,0.8,4.3,2.4,5.9c1.7,1.5,3.8,2.4,6.1,2.3
	c2.4,0.1,4.6-0.8,6.4-2.3c1.7-1.5,2.6-3.6,2.5-5.9c0.1-2.2-0.8-4.4-2.5-5.9C135.3,32.7,133,31.9,130.7,32z M135.2,44.6
	c-2.5,2.4-6.4,2.4-9,0.1c-1.2-1.1-1.8-2.7-1.8-4.3c-0.1-1.7,0.6-3.2,1.8-4.4c1.2-1.1,2.9-1.8,4.5-1.7c1.7-0.1,3.2,0.6,4.5,1.7
	c1.2,1.1,1.8,2.7,1.8,4.3C137,41.9,136.4,43.5,135.2,44.6z"/>
<path class="st0" d="M91,48.3h2.4l1.8-4h7.8l1.8,4h2.4L100,32.2h-1.7L91,48.3z M96.1,42.3l3-6.6l3,6.6H96.1z"/>
<polygon class="st0" points="153.1,32.2 153.1,44.5 142.5,32.2 140.5,32.2 140.5,48.3 143,48.3 143,36.2 153.5,48.3 155.5,48.3 
	155.5,32.2 "/>
<path class="st0" d="M158.7,46.2c0.5,0.4,0.5,1.3,0.1,1.7c0,0,0,0-0.1,0.1c-0.3,0.3-0.6,0.4-0.9,0.4c-0.3,0-0.6-0.1-0.9-0.4
	c-0.3-0.3-0.4-0.6-0.4-0.9c0-0.3,0.1-0.6,0.4-0.9C157.4,45.7,158.2,45.7,158.7,46.2L158.7,46.2z M158.6,46.2
	c-0.2-0.2-0.5-0.3-0.8-0.3s-0.6,0.1-0.8,0.3s-0.3,0.5-0.3,0.8s0.1,0.6,0.3,0.8s0.5,0.3,0.8,0.3s0.6-0.1,0.8-0.3s0.3-0.4,0.3-0.8
	C158.9,46.7,158.8,46.5,158.6,46.2z M158.4,46.7c0,0.2-0.1,0.4-0.3,0.4l0.3,0.6h-0.3l-0.3-0.6h-0.3v0.6h-0.3v-1.4h0.5
	C158.2,46.3,158.4,46.4,158.4,46.7z M157.5,46.4v0.5h0.3c0.3,0,0.4-0.1,0.4-0.3s-0.1-0.3-0.4-0.3L157.5,46.4L157.5,46.4z"/>
<path class="st0" d="M43,29.7c-5.7,0-10.3,4.6-10.3,10.3S37.3,50.3,43,50.3S53.3,45.7,53.3,40S48.6,29.7,43,29.7z M43,49.3
	c-5.2,0-9.4-4.2-9.4-9.4s4.2-9.4,9.4-9.4s9.4,4.2,9.4,9.4l0,0C52.3,45.1,48.1,49.3,43,49.3z"/>
<path class="st0" d="M49.9,37.1c0.4,0.3,0.8,0.6,1.1,1.1c-0.6-2.9-2.8-5.2-5.6-6l-1.8,1.7l1.7-0.7c1.5,0.7,2.7,2.2,3,3.8
	c0.2,1,0.1,1.9-0.2,2.8c0,0-0.2,0.4-1,0.3c-0.8-0.1-1.2-0.2-2.5,0.5l-0.1,0.1c0.1,1.2,0.6,2.4,1.2,3.4c-0.1-0.1-2.4-2.6-2.2-5.4
	c0-0.2,0.1-0.4,0.1-0.6c0,0,0.2,0.2,0.4,0.4c0.7-2,1.1-1.5,1.1-1.5c0.1-0.3,0.1-0.5,0-0.7c-0.6,0.2-1.1,0.6-1.6,1l0,0
	c0.2-0.4,0.5-0.9,1-1.1c1.1-0.3,1.1-0.8,1.1-1s0-0.4-0.1-0.6c-0.1,0.5-0.4,1-0.9,1.2c-0.2,0.1-0.4,0.1-0.6,0.2
	c0.2-0.4,0.3-0.6,0.3-0.6c0.1-0.1,0.1-0.1,0.3-0.1c0.1,0,0.1,0.1,0.1,0.1c0.1-0.3-0.1-0.6-0.3-0.9c-0.6,0.4-1.1,0.9-1.6,1.5
	c-0.2,0.1-0.4,0.1-0.6,0.3c-0.1,0.1-0.1,0.1-0.1,0.1L42,36.6c-0.4,0.1-0.7,0.3-1.1,0.4l0.5,0.4l-0.1,0.2c-0.3,0.1-0.6,0.4-1,0.6
	l0.6,0.3l-0.1,0.3c-0.3,0.2-0.5,0.4-0.8,0.7l0.6,0.2c0,0.1-0.1,0.3-0.1,0.4v0.1c-0.6-0.3-1.3-0.4-2-0.3c-0.8,0.1-0.9-0.3-0.9-0.3
	c-0.3-0.9-0.4-1.8-0.2-2.8c0.3-1.7,1.5-3.1,3-3.8l1.7,0.7L40.6,32c-2.9,0.8-5,3.2-5.6,6c0.3-0.4,0.6-0.8,1.1-1.1
	c-1.3,1.9-1.5,4.3-0.5,6.4c-0.4-2.7,0.7-4.2,0.7-4.2c-1,2.9,0.1,6.2,2.7,7.9c-0.9-1-1.5-2.2-1.7-3.6c0.4,0.6,0.9,1.1,1.5,1.7
	c0.1,0.7,0.9,3,4.1,3.1c1.1,0,2.1-0.4,2.9-1.1c0.1,0.1,0.2,0.1,0.3,0.1c0.4-0.4,0.9-1,1.2-1.6c-0.6,0.4-1.1,0.8-1.8,1
	c0,0.1,0.1,0.2,0.1,0.3c-0.7,0.4-1.5,0.6-2.3,0.6c-0.8,0.1-1.7-0.4-2-1.1c0.5,0.1,1,0.2,1.5,0.2c2.3,0,4.4-1.1,5.7-3.1
	c-0.2,1.3-0.8,2.6-1.7,3.6c2.6-1.7,3.8-5,2.7-7.9c0,0,1.1,1.5,0.7,4.2C51.4,41.4,51.2,39,49.9,37.1z"/>
</svg>
