<?xml version="1.0" encoding="utf-8"?>
<!-- Generator: Adobe Illustrator 23.0.4, SVG Export Plug-In . SVG Version: 6.00 Build 0)  -->
<svg version="1.1" id="Layer_1" xmlns="http://www.w3.org/2000/svg" xmlns:xlink="http://www.w3.org/1999/xlink" x="0px" y="0px"
	 viewBox="0 0 191 78" style="enable-background:new 0 0 191 78;" xml:space="preserve">
<style type="text/css">
	.st0{fill:#919497;}
</style>
<g>
	<g>
		<g>
			<path class="st0" d="M92.1,39"/>
		</g>
		<g>
			<path class="st0" d="M25.7,41.4c1,0,2.2,1.6,2.9,0.3c0.2-0.4,0.3-3.3,0.2-4.9c-0.1-2.5,0.1-3.2,2-4.8c1.8-1.4,3.4-2.6,5.2-3.6
				c0.4-0.1,0.9,0,1.1,0.2c0.3,0.2,0.4,0.7,0,1.2c-1.5,1.5-2.7,2.2-4.2,3.4c-0.5,0.4-1.4,1-1.5,1.8c-0.1,3.4,1.4,7.6-2.2,10
				c-1.7,0.8-3.7,0.1-4.9-1.1c-0.2-0.2-0.3-0.7-0.2-0.9C24.6,42.2,25,41.5,25.7,41.4z"/>
			<path class="st0" d="M44.7,45.8c-0.6,0.6-1.5,0.7-1.6,0.7c-0.2-0.1-0.2-0.1-0.3-0.2c-0.1-0.1-0.3-0.6-0.5-0.9
				c-0.4-0.8-0.5-1.7-0.9-2.7c0,0,0-0.1-0.1-0.1c0,0-0.1,0-0.2,0c-1,1-2,2.1-3.3,2.5c-0.5,0.1-0.9-0.3-1.1-0.7
				c-0.2-0.3-0.4-0.8-0.5-0.7c-1.2,0.8-2.7,2-4.2,1c-0.7-0.6-0.5-1.8-0.2-2.4c0.8-1.9,2-3.3,4.1-4.3c0.5-0.2,1.2-0.2,1.6,0
				c1.3,1,0.7,2.7,0.9,4c0.2,0.3,0.5,0.4,0.9,0.2c0.6-0.4,1.5-1,1.8-1.5c0-4.5,0.9-8.7,4.3-11.7c0.4-0.3,0.9-0.3,1.1-0.1
				c1.1,0.9,1.2,2.9,0.7,4.7c-0.7,2.4-2.1,4.7-3.8,6.7c0,1.8,0.7,3.3,1.3,5C45,45.6,44.8,45.7,44.7,45.8z M34.1,42.4
				c0,0.3,0.3,0.5,0.6,0.5c0.9-0.2,1.5-1.1,1.8-1.9c0.1-0.4,0.3-1.1-0.1-1.5c-0.2-0.1-0.4-0.1-0.7,0.1
				C34.8,40.3,34.1,41.2,34.1,42.4z M43.6,35.6c0,0.4-0.2,1.2-0.1,1.6c0.9-0.7,1.3-1.7,1.8-2.8c0.4-0.9,0.9-2.6,0.2-3.3
				c-0.2-0.1-0.6,0.3-0.7,0.5C44.2,32.8,43.9,34.2,43.6,35.6z"/>
			<path class="st0" d="M46.9,44.8c-0.7-1.9-1.3-4.7-1.3-5.3c0-0.7,0.5-1.1,1-1.5c0.3-0.2,0.7-0.4,1-0.2s0.6,2.3,1,3.4
				c0.1,0.1,0.2,0,0.3-0.1c1.6-1.5,3-4.6,5.7-3.5c1.1,0.4,2.7-0.9,3.4,0.5c0.7,1.3-0.3,3,0.4,4.4c0.2,0.9,2.3,0,1.3,1.2
				C59,44.5,58,45,57,44.6c-0.6-0.1-0.9-1-1.3-0.8c-1,0.7-2.3,1.4-3.5,0.8c-0.3-0.2-0.6-0.6-0.6-1.1c0.1-1.9,0.8-3.1,1.7-4.2
				c0-0.1,0.1-0.2,0-0.3c-0.2-0.2-0.5,0-0.8,0.2c-1.8,1.6-3.2,3.6-4.7,5.4c-0.2,0.2-0.3,0.3-0.6,0.3C47.1,45,47,44.9,46.9,44.8z
				 M54,42.3c0.1,0.2,0.4,0.3,0.7,0.2c1-0.4,1.6-1.5,1.8-2.5c0-0.3-0.2-0.5-0.5-0.5C54.8,39.8,53.9,41.1,54,42.3z"/>
			<path class="st0" d="M67.3,39.2C67.2,39,66.9,39,66.7,39c-1.1,0-1.2-0.4-1.5,0.6C64.5,41.2,64,43,63,44.4c-0.2,0.3-0.7,0.4-1,0.3
				c-0.7-0.3-1-1.1-1.3-1.7c-0.6-1.8-1.3-3.6-1.6-5.5c0-0.5,0-1.3,0.7-1.6c0.9-0.3,3.1,0.6,4.2,0.8c0.1,0,0.2,0,0.3-0.7
				c0.4-2.2,0.9-4.4,1.2-6.7c0.1-0.3,0.3-0.6,0.7-0.6c0.5,0,1,0.2,1.3,0.6c0.1,0.1,0.1,0.4,0.1,0.6c-0.2,2.4-0.9,4.7-1.5,7
				c-0.1,0.4,0.5,0.4,0.9,0.5c1.9,0.5,3.3,0,5-0.5c0.5-0.1,0.7-0.3,1,0c0.8,0.7,2,0.4,2.2,1.5c0.3,1.3,0.1,3.2,1.2,3.9
				c0.3,0.2,0.6-0.1,0.8-0.2c0.6-0.4,0-0.3,0.4-2c0.2-1.1,1.1-2.3,2.3-2.8c0.7-0.2,1.4-0.2,2.1,0c0.8,0.5,1.2,1.4,1.1,2.3
				c-0.2,1.6-1.6,1.7-2.4,2.5c-0.1,0.2,0.2,0.6,0.5,0.6c1.7,0.4,4.1-1.2,5.8,0.4c0.4,0.3-0.4,1.1-0.6,1.3c-0.1,0.1-0.3,0.1-0.4,0
				c-0.7-0.3-1.8-0.8-2.7-0.3c-1.3,0.5-3,1.4-4.3,0.3c-0.4-0.2-0.5-0.9-1-0.7c-1,0.4-2.4,1.6-3.1,0.9c-1.3-1.6-1-3.8-1.9-5.5
				c-0.2-0.3-0.6-0.5-0.9-0.3s0.3,0.7,0.3,1.5c0.1,1.8-0.9,3.5-2.6,4.3C69,45,67.7,45,66.9,44.4c-0.8-0.7-0.9-2-0.7-3
				c0.2-0.6,0.6-1.3,1-1.8C67.3,39.4,67.3,39.3,67.3,39.2z M61.7,40.6c0,0.2,0.1,0.5,0.2,0.7c0,0.2,0.2,0.6,0.4,0.7
				c0.1,0,0.1,0,0.3-0.2c0.5-0.8,0.7-1.6,0.9-2.6c0-0.2,0-0.2-0.1-0.3c-0.6-0.4-1.2-0.5-1.9-0.7c-0.2,0-0.2,0.1-0.2,0.3
				c0,0.1,0,0.2,0.1,0.4C61.3,38.9,61.6,39.7,61.7,40.6z M68.1,41.9c0,0.4,0.1,0.8,0.5,0.9c0.3,0.1,0.7,0,0.9-0.1
				c0.4-0.2,0.8-0.7,0.9-1.1c0.1-0.6,0.2-1.4-0.3-1.9c-0.3-0.2-0.7-0.2-1,0C68.4,40.2,68.2,41.1,68.1,41.9z M79.9,40.6
				c0.6-0.1,1.3-0.5,1.7-1.1c0.2-0.2,0.1-0.7-0.2-0.9c-0.2-0.2-0.5-0.2-0.7-0.1C79.9,39,79.6,39.9,79.9,40.6z"/>
		</g>
		<path class="st0" d="M170.9,37.3c0.5,0,1.1,0.4,1.1,1.1c0,0.7-0.3,1-1,1l-0.8-0.1c-2.1-0.3-4.4-0.3-6.6-0.4c-0.1,0-0.3,0-0.3,0
			c-0.2,0.2,0,0.1,0.1,1.2c0.1,1.7-0.6,3.4-2.2,4.2c-1,0.5-2.5,0.4-3.4-0.1c-0.6-0.5-0.9-1-1-1.7c-0.1-0.5-0.5-0.1-0.7,0.1
			c-1.1,0.9-2.9,2-3.5,2.1c-0.4,0.1-0.6-0.2-0.8-0.5c-0.2-0.9,0.3-1.5,0.2-2.2c-0.1-0.1-0.1-0.1-0.2,0c-1.2,1.1-2.5,3-3.9,2.7
			c-1-0.7-0.3-1.9-0.5-2.9c0-0.1,0-0.2-0.2-0.1c-0.8,0.6-1.5,1.3-2.3,1.9c-0.6,0.4-1.9,1.6-2.7,1c-0.5-0.4-0.3-2-0.3-2.7
			c0-0.1,0-0.2-0.1-0.1c-0.9,0.8-1.8,2.2-3,2.7c-0.6,0.1-1-0.4-1.3-0.8c-0.1-0.2-0.1-0.3-0.3-0.5c0,0-0.1-0.1-0.2,0
			c-1,0.6-1.9,1.7-3.3,1.4c-0.4-0.1-0.8-0.5-1-0.9s0-0.9-0.3-1.3c-0.1-0.1-0.1-0.1-0.2,0c-0.7,0.6-1.3,1.3-1.9,2
			c-0.7,4.4-1.9,9.3-5.7,11.6c-0.4,0.2-1,0.3-1.5,0.1c-0.9-0.6-1.1-1.6-0.9-2.6c0.8-2.6,2.6-4.8,4.3-7.1l1.8-2.2
			c0.2-0.2,0-0.1-0.1-0.1c-1,0.3-2.1,0.9-3.1,0.3c-0.4-0.2-0.5-1-0.9-0.7c-0.7,0.5-1.4,1.3-2.4,1c-0.6-0.2-0.7-0.8-1-1.2
			c-0.1-0.1-0.2-0.2-0.3-0.1c-0.6,0.4-1.4,1.4-2.4,1.3c-0.5,0-1.1-0.3-1.3-0.8c-0.1-0.2-0.1-0.6-0.3-0.5c-1.1,0.5-1.4,2.6-2.7,2
			c-1.5-1.4-1.1-3.7-1.1-5.7c0-0.2-0.1-0.4-0.2-0.4c-0.5-0.1-0.2,0.3-0.7,1.6c-0.5,1.6-1.7,3.7-3.6,4.1c-0.5,0-0.9-0.3-1.1-0.7
			c-0.7-1.3-0.2-3-0.2-4.4c0-0.1-0.1-0.2-0.1-0.2c-0.1,0-0.1,0-0.2,0.1c-0.2,0.6-0.5,1.2-0.7,1.9c-0.6,1.4-2.3,2.9-3.6,3.2
			c-1.8,0.3-3.5-0.5-4.5-2.1c-0.2-0.3-0.4-1.3-0.5-1.4c-0.1-0.5-0.3-0.5-0.4-0.5s0,0-0.3-0.1c-0.9-0.3-1.8-0.5-2.7-0.6
			c-0.2,0-0.3,0.1-0.3,0.2c-0.9,2-1.4,4.2-2.3,6.2c-0.3,0.5-1,0.4-1.4,0.3c-0.3-0.1-0.5-0.2-0.8-0.4C89,46.4,89,46.1,89,45.9
			c0.4-1.5,0.9-2.6,1.4-4.1c-0.2-1.4-1-2.6-1.2-4c0-0.3,0.2-0.6,0.5-0.7c0.6-0.1,1,0,1.6,0.1c0.1,0,0.2-0.1,0.1-0.2
			c-0.9-2.5-1.6-4.8-2-7.5c0-0.4,0.1-0.9,0.5-1.1c0.1-0.1,0.3-0.2,0.6-0.1c7.8,0.3,15.9,0.7,23.4,1.1c0.6,0.1,0.8,0.2,0.6,1
			c-0.4,1.4-1.6,1.1-4.2,1.1c-6.2-0.2-12.3-0.9-18.3-1.4c-0.3,0-0.6-0.1-0.6,0.3c0,0.2,0,0.5,0.1,0.7c0.3,1.1,0.5,2.1,1.3,3.1
			c0.1,0.1,0.2,0,0.2,0c0.6-0.7,1.1-2,1.9-2.5c0.3-0.1,0.8,0,1,0.5c0,0.1,0.1,0.5,0,0.7l-1.3,4.4c-0.1,0.3,0,0.9,0.4,1
			c0.1,0,0.5,0.2,0.5,0.2c0.2,0.1,1.5,0.5,1.6,0.6c0.2,0.1,0.3,0,0.4-0.1c1-1.2,2-2.1,3.6-2c0.9,0,1.6,0.6,2,1.4
			c0.3,0.6,0.3,1.4-0.1,2c-0.7,1.2-1.9,1.5-3.2,1.5c-0.4,0.1,0,0.6,0.2,0.8c0.7,0.7,1.8,1,2.8,0.6c1.3-0.6,2.2-2,2.3-3.3
			c0-0.1,0-0.2-0.1-0.3c-0.3-0.2-0.8-0.7-0.8-1.3c0-0.4,0.1-0.7,0.4-1c0.4-0.4,0.9-0.4,1.4-0.3c0.3,0.1,0.6,0.4,1.1,0.5
			c0.7,0.1,0.8-0.2,1.1-0.2c0.3,0,0.5,0.2,0.5,0.5c-0.1,1.5-0.9,3.2-0.1,4.5c0.2,0.2,0.4,0.2,0.7,0.2c0.9-0.5,1.1-2.2,0.8-2.7
			c-0.3-0.6-0.9-1.1-0.6-1.9c0.2-0.4,0.4-0.6,0.8-0.7c0.9-0.3,1.7,0.9,2.8,0.6c0.6-0.1,1-0.9,1.7-0.5c0.1,0.1,0.4,0.3,0.2,0.7
			c-0.5,1.6-0.8,3.2-0.6,4.9c0,0.2,0.2,0.5,0.5,0.4c1.7-2.1,2.5-5,5.4-5.8c1.3-0.3,1.8,1.7,2,2.6c0.1,0.9,0.3,2,0.7,2.6
			c0.2,0.2,0.7-0.3,0.9-0.7c0.9-1.4,1.9-3.9,2.9-4.2c0.9-0.3,2.2-0.1,2.9,0.9c0.5,0.7,0.7,2.2,0.7,3.3c0.1,0.3,0.4,0.1,0.5,0
			c1.8-1.5,3.4-3.7,5.7-4.3c0.4-0.1,1,0.1,1.2,0.4c0.8,1.1,0.7,2.6,1.2,3.9c0.2,0.3,0.5,0.6,0.9,0.4c1.5-1.3,2.5-4,3.7-4.5
			c0.2-0.2,0.8,0.1,0.8,0.5c0.3,1.5-0.3,2.8-0.4,4.3c0,0.3,0.4,0,0.6-0.1c1.7-1.3,2.5-2.5,3.7-4.2c0.3-0.5,0.7-0.8,1.2-0.4
			c0.6,0.7,0.2,2.4,0.2,2.7l-0.4,2.1c0,0.2,0.3,0,0.5-0.1c1.8-1.3,2.5-3.7,4.2-4.5c0.4-0.2,0.8,0,1,0.4c0.3,0.7-0.6,2.8-0.8,4.2
			c0,0.1,0.1,0.2,0,0.2c0.2,0.1,1-0.5,1.4-0.8c2.2-1.5,3.8-4.3,6.9-4L170.9,37.3z M99.9,38.9c-0.3,0.3-0.2,0.8,0.2,0.8
			c0.5,0.1,1.1,0,1.5-0.3c0.2-0.1,0.4-0.5,0.2-0.9c-0.2-0.3-0.4-0.6-0.9-0.4C100.5,38.3,100.1,38.6,99.9,38.9z M118.5,40.8
			c-0.1,0.4-0.2,0.8,0.2,1.2c0.5,0.2,1-0.2,1.3-0.4c0.4-0.5,0.6-1.1,0.5-1.9c0-0.3-0.3-0.8-0.7-0.6
			C119.2,39.5,118.8,40.1,118.5,40.8z M127.5,47.6c-1.3,1.5-2.4,3-3.1,4.7c-0.1,0.2-0.3,0.6-0.1,0.8c0.3,0.2,0.7-0.2,1-0.4
			c1.5-1.4,2.3-3.3,2.5-5.3C127.7,47.4,127.6,47.5,127.5,47.6z M126.8,40.1c-0.3,0.9-0.7,2,0.1,2.8c0.2,0.1,0.7,0.1,0.9,0
			c1.1-0.7,0.9-2,0.8-3c-0.1-0.4-0.3-0.8-0.7-0.7C127.5,39.3,127,39.7,126.8,40.1z M134.9,40.6c-0.2,0.5-0.1,1.2,0.4,1.5
			c0.3,0.2,0.8-0.1,1.1-0.3c0.6-0.7,0.9-1.5,0.6-2.4c-0.1-0.3-0.5-0.6-0.8-0.4C135.5,39.4,135.2,40,134.9,40.6z M158.9,41.8
			c0.1,0.3,0.2,0.5,0.5,0.6c0.6,0.1,1.1,0,1.5-0.4c0.4-0.5,0.4-1.4,0.3-2c-0.1-0.3-0.5-0.7-0.9-0.4
			C159.6,40.1,158.8,40.8,158.9,41.8z"/>
	</g>
</g>
</svg>
