<?xml version="1.0" encoding="utf-8"?>
<!-- Generator: Adobe Illustrator 23.0.4, SVG Export Plug-In . SVG Version: 6.00 Build 0)  -->
<svg version="1.1" id="Layer_1" xmlns="http://www.w3.org/2000/svg" xmlns:xlink="http://www.w3.org/1999/xlink" x="0px" y="0px"
	 viewBox="0 0 191 78" style="enable-background:new 0 0 191 78;" xml:space="preserve">
<style type="text/css">
	.st0{fill:#919497;}
</style>
<g>
	<path class="st0" d="M49.8,48.9c-2.3,0-8.8-1.5-8.8-8.4s6.2-8.4,8.7-8.4s5.1,0.5,6.7,1.5v3.2c0,0.4-0.5,0.4-0.5,0
		c0-0.5-1.5-3.8-5.2-3.8c-4,0.1-6.6,3.2-6.6,7.3s2.6,7.6,6.5,7.5c1.3,0,2.6-0.4,3.2-1v-3.6c0-1-0.6-1.4-1.2-1.4
		c-0.4,0-0.4-0.6,0-0.6h5.3c0.4,0,0.4,0.6,0,0.6c-0.6,0-1.2,0.4-1.2,1.4V47C55.3,48.2,52.2,48.9,49.8,48.9z"/>
	<path class="st0" d="M99.3,48.9c2.3,0,5.4-1.2,7-2.4v-3c0-0.4-0.3-0.5-0.4,0s-2,4.4-5.9,4.5s-6.5-3.5-6.5-7.6s2.7-7.3,6.6-7.4
		c3.7-0.1,5.1,3.3,5.2,3.9c0,0.4,0.4,0.4,0.4,0v-3.2c-1.5-1-4.1-1.6-6.6-1.6s-8.6,1.6-8.6,8.5S97,48.9,99.3,48.9z"/>
	<path class="st0" d="M144.3,47.9c-0.6,0-1.2-0.4-1.2-1.4V34.3c0-1,0.6-1.4,1.2-1.4c0.6,0,0.6-0.5,0-0.5h-5.4c-0.6,0-0.6,0.5,0,0.5
		s1.2,0.4,1.2,1.4v12.2c0,1-0.6,1.4-1.2,1.4c-0.6,0-0.6,0.7,0,0.7h5.4C144.8,48.7,144.8,47.9,144.3,47.9z"/>
	<path class="st0" d="M65.8,33c0.6,0,1.2,0.4,1.2,1.4v8c0,3.8,3,6.6,6.8,6.6s6.9-2.8,6.9-6.6l0.1-8c0-1,0.6-1.4,1.2-1.4
		s0.6-0.5,0-0.5h-3.7c-0.6,0-0.6,0.5,0,0.5s1.2,0.4,1.2,1.4l0.1,8.4c0,2.7-2.2,5.4-4.9,5.4c-2.7,0-4.9-2.2-4.9-4.9v-8.9
		c0-1,0.6-1.4,1.2-1.4s0.6-0.5,0-0.5h-5.4C65.3,32.4,65.3,33,65.8,33z"/>
	<path class="st0" d="M124.5,48.9c2.3,0,5.4-1.2,7-2.4v-3c0-0.4-0.3-0.5-0.4,0s-2,4.4-5.9,4.5s-6.5-3.5-6.5-7.6s2.7-7.3,6.6-7.4
		c3.7-0.1,5.1,3.3,5.2,3.9c0,0.4,0.4,0.4,0.4,0v-3.2c-1.5-1-4.1-1.6-6.6-1.6s-8.6,1.6-8.6,8.5S122.2,48.9,124.5,48.9z"/>
</g>
</svg>
