<?xml version="1.0" encoding="utf-8"?>
<!-- Generator: Adobe Illustrator 23.0.4, SVG Export Plug-In . SVG Version: 6.00 Build 0)  -->
<svg version="1.1" id="Layer_1" xmlns="http://www.w3.org/2000/svg" xmlns:xlink="http://www.w3.org/1999/xlink" x="0px" y="0px"
	 viewBox="0 0 191 78" style="enable-background:new 0 0 191 78;" xml:space="preserve">
<style type="text/css">
	.st0{fill:#919497;}
</style>
<g>
	<path class="st0" d="M51.9,35.1l2.4,5.3h-4.7L51.9,35.1z M37.8,33h-2.1v11.9h8.4V43h-6.3V33z M101,34.9v10h2.1v-10h4.2V33H96.9v1.9
		H101z M78.4,43c-2.4,0-4.1-1.8-4.1-4.1s1.8-4.1,4.1-4.1c2.4,0,4.1,1.8,4.1,4.1C82.6,41.3,80.8,43,78.4,43 M65.8,34.9
		c1.8,0,2.8,1,3.4,1.5l1.5-1.5c-0.5-0.5-1.9-2.1-4.9-2.1c-3.4,0-6.4,2.3-6.4,6.2s3,6.2,6.4,6.2c2.6,0,4.4-1.4,5-1.9l-1.2-1.7
		c-0.9,0.8-2.4,1.5-3.8,1.5c-2.4,0-4.1-1.8-4.1-4.1C61.6,36.7,63.4,34.9,65.8,34.9 M86.5,43.7c0.5,0.4,1.9,1.4,4.5,1.4
		s4.6-1.4,4.6-3.6c0-4.5-6.6-3.1-6.6-5.6c0-0.7,0.6-1.3,2.1-1.3c1.8,0,3,0.8,3.4,1.2l0.9-1.8c-0.5-0.5-2.2-1.4-4.3-1.4
		c-3.2,0-4.5,1.8-4.5,3.5c0,4.1,6.6,2.9,6.6,5.4c0,1-1,1.5-2.2,1.5c-1.8,0-3.2-0.8-3.8-1.2L86.5,43.7z M118.1,33h-9v11.9h9.2V43
		h-7.1v-3.1h6V38h-6v-3.1h6.9V33z M56.4,44.9h2.5L53.2,33h-2.4l-5.3,11.9h2.2l1.1-2.7h6.3L56.4,44.9z M78.4,45.2
		c3.4,0,6.4-2.3,6.4-6.2s-3-6.2-6.4-6.2C75,32.7,72,35,72,39S75,45.2,78.4,45.2"/>
	<path class="st0" d="M145.8,38.3c0,0.2-0.1,0.4-0.1,0.6c0,0.1-0.1,0.1-0.1,0.1c-0.2-0.1-0.5-0.2-0.7-0.4c-0.1,0-0.1-0.1,0-0.1
		C145.1,38.4,145.4,38.3,145.8,38.3L145.8,38.3 M144.4,37.8c0,0.2-0.1,0.4-0.1,0.6c0,0.1-0.1,0.1-0.1,0.1c-0.2-0.1-0.5-0.2-0.7-0.4
		c-0.1,0-0.1-0.1,0-0.1C143.7,37.9,144,37.8,144.4,37.8L144.4,37.8 M144,39.8c0,0.1-0.1,0.1-0.1,0.1c-0.2-0.1-0.5-0.2-0.7-0.4
		c-0.1,0-0.1-0.1,0-0.1c0.3-0.1,0.6-0.2,0.9-0.3c0.1,0,0.1,0,0.1,0.1C144.1,39.4,144,39.6,144,39.8 M142.9,37.6
		c0,0.2-0.1,0.4-0.1,0.6c0,0.1-0.1,0.1-0.1,0.1c-0.2-0.1-0.5-0.2-0.7-0.4c-0.1,0-0.1-0.1,0-0.1C142.2,37.7,142.5,37.6,142.9,37.6
		C142.9,37.5,143,37.6,142.9,37.6 M142.6,38.9c0,0.2-0.1,0.4-0.1,0.6c0,0.1-0.1,0.1-0.1,0.1c-0.2-0.1-0.5-0.2-0.7-0.4
		c-0.1,0-0.1-0.1,0-0.1C141.9,39,142.2,38.9,142.6,38.9C142.6,38.8,142.7,38.8,142.6,38.9 M142.4,40.2c-0.1,0.2-0.1,0.4-0.1,0.6
		c0,0.1-0.1,0.1-0.1,0.1c-0.2-0.1-0.5-0.2-0.7-0.4c-0.1,0-0.1-0.1,0-0.1C141.7,40.3,142,40.2,142.4,40.2
		C142.3,40.1,142.4,40.2,142.4,40.2 M141.3,38.2c0,0.1-0.1,0.1-0.1,0.1c-0.2-0.1-0.5-0.2-0.7-0.4c-0.1,0-0.1-0.1,0-0.1
		c0.3-0.1,0.6-0.2,0.9-0.3c0.1,0,0.1,0,0.1,0.1C141.4,37.8,141.3,38,141.3,38.2 M141.1,38.9c0,0.2-0.1,0.4-0.1,0.6
		c0,0.1-0.1,0.1-0.1,0.1c-0.2-0.1-0.5-0.2-0.7-0.4c-0.1,0-0.1-0.1,0-0.1C140.4,38.9,140.7,38.8,141.1,38.9
		C141.1,38.8,141.1,38.8,141.1,38.9 M140.8,40.2c0,0.2-0.1,0.4-0.1,0.6c0,0.1-0.1,0.1-0.1,0.1c-0.2-0.1-0.5-0.2-0.7-0.4
		c-0.1,0-0.1-0.1,0-0.1C140.1,40.2,140.4,40.1,140.8,40.2C140.8,40.1,140.9,40.1,140.8,40.2 M139.7,38.4c-0.2-0.1-0.5-0.2-0.7-0.4
		c-0.1,0-0.1-0.1,0-0.1c0.3-0.1,0.6-0.2,0.9-0.3c0.1,0,0.1,0,0.1,0.1c-0.1,0.2-0.1,0.4-0.1,0.6C139.8,38.4,139.7,38.4,139.7,38.4
		 M139.6,39c0,0.2-0.1,0.4-0.1,0.6c0,0.1-0.1,0.1-0.1,0.1c-0.2-0.1-0.5-0.2-0.7-0.4c-0.1,0-0.1-0.1,0-0.1
		C138.9,39.1,139.2,39,139.6,39C139.6,38.9,139.6,39,139.6,39 M139.3,40.3c0,0.2-0.1,0.4-0.1,0.6c0,0.1-0.1,0.1-0.1,0.1
		c-0.2-0.1-0.5-0.2-0.7-0.4c-0.1,0-0.1-0.1,0-0.1C138.6,40.4,138.9,40.3,139.3,40.3C139.3,40.2,139.3,40.3,139.3,40.3 M138.1,38.6
		c-0.2-0.1-0.5-0.2-0.7-0.4c-0.1,0-0.1-0.1,0-0.1c0.3-0.1,0.6-0.2,0.9-0.3c0.1,0,0.1,0,0.1,0.1c0,0.2-0.1,0.4-0.1,0.6
		C138.2,38.6,138.2,38.7,138.1,38.6 M137.9,40c0,0.1-0.1,0.1-0.1,0.1c-0.2-0.1-0.5-0.2-0.7-0.4c-0.1,0-0.1-0.1,0-0.1
		c0.3-0.1,0.6-0.2,0.9-0.3c0.1,0,0.1,0,0.1,0.1C138,39.5,138,39.7,137.9,40 M137.6,41.3c0,0.1-0.1,0.1-0.1,0.1
		c-0.2-0.1-0.5-0.2-0.7-0.4c-0.1,0-0.1-0.1,0-0.1c0.3-0.1,0.6-0.2,0.9-0.3c0.1,0,0.1,0,0.1,0.1C137.7,40.9,137.7,41.1,137.6,41.3
		 M136.7,38.9c0,0.1-0.1,0.1-0.1,0.1c-0.2-0.1-0.5-0.2-0.7-0.4c-0.1,0-0.1-0.1,0-0.1c0.3-0.1,0.6-0.2,0.9-0.3c0.1,0,0.1,0,0.1,0.1
		C136.8,38.5,136.7,38.7,136.7,38.9 M136.5,39.7c0,0.2-0.1,0.4-0.1,0.6c0,0.1-0.1,0.1-0.1,0.1c-0.2-0.1-0.5-0.2-0.7-0.4
		c-0.1,0-0.1-0.1,0-0.1C135.8,39.8,136.1,39.7,136.5,39.7L136.5,39.7 M136.2,41.1c0,0.2-0.1,0.4-0.1,0.6c0,0.1-0.1,0.1-0.1,0.1
		c-0.2-0.1-0.5-0.2-0.7-0.4c-0.1,0-0.1-0.1,0-0.1C135.5,41.2,135.8,41.1,136.2,41.1C136.2,41,136.2,41.1,136.2,41.1 M135.1,39.4
		c-0.2-0.1-0.5-0.2-0.7-0.4c-0.1,0-0.1-0.1,0-0.1c0.3-0.1,0.6-0.2,0.9-0.3c0.1,0,0.1,0,0.1,0.1c-0.1,0.2-0.1,0.4-0.1,0.6
		C135.2,39.4,135.1,39.4,135.1,39.4 M135,40.1c-0.1,0.2-0.1,0.4-0.1,0.6c0,0.1-0.1,0.1-0.1,0.1c-0.2-0.1-0.5-0.2-0.7-0.4
		c-0.1,0-0.1-0.1,0-0.1C134.3,40.2,134.6,40.1,135,40.1C135,40,135,40.1,135,40.1 M133.7,39.5c0,0.1-0.1,0.1-0.1,0.1
		c-0.2-0.1-0.5-0.2-0.7-0.4c-0.1,0-0.1-0.1,0-0.1c0.3-0.1,0.6-0.2,0.9-0.3c0.1,0,0.1,0,0.1,0.1C133.8,39.1,133.7,39.3,133.7,39.5
		 M133.4,40.8c0,0.1-0.1,0.1-0.1,0.1c-0.2-0.1-0.5-0.2-0.7-0.4c-0.1,0-0.1-0.1,0-0.1c0.3-0.1,0.6-0.2,0.9-0.3c0.1,0,0.1,0,0.1,0.1
		C133.5,40.4,133.4,40.6,133.4,40.8 M132,38.3C131.9,38.2,131.9,38.2,132,38.3c0.3-0.2,0.6-0.3,0.9-0.4c0.1,0,0.1,0,0.1,0.1
		c-0.1,0.2-0.1,0.4-0.1,0.6c0,0.1-0.1,0.1-0.1,0.1C132.5,38.5,132.2,38.4,132,38.3 M132,40.1c0,0.1-0.1,0.1-0.1,0.1
		c-0.2-0.1-0.5-0.2-0.7-0.4c-0.1,0-0.1-0.1,0-0.1c0.3-0.1,0.6-0.2,0.9-0.3c0.1,0,0.1,0,0.1,0.1C132.1,39.7,132.1,39.9,132,40.1
		 M130.4,38.6C130.4,38.6,130.4,38.5,130.4,38.6c0.3-0.2,0.6-0.3,0.9-0.4c0.1,0,0.1,0,0.1,0.1c-0.1,0.2-0.1,0.4-0.1,0.6
		c0,0.1-0.1,0.1-0.1,0.1C130.9,38.8,130.7,38.7,130.4,38.6 M130.3,37.2c0.3-0.1,0.6-0.2,0.9-0.3c0.1,0,0.1,0,0.1,0.1
		c-0.1,0.2-0.1,0.4-0.1,0.6c0,0.1-0.1,0.1-0.1,0.1C130.8,37.6,130.5,37.5,130.3,37.2C130.2,37.3,130.2,37.3,130.3,37.2 M130.6,36
		c0.3-0.1,0.6-0.2,0.9-0.3c0.1,0,0.1,0,0.1,0.1c-0.1,0.2-0.1,0.4-0.1,0.6c0,0.1-0.1,0.1-0.1,0.1C131.1,36.3,130.9,36.2,130.6,36
		C130.6,36.1,130.6,36,130.6,36 M131.6,34.9c0.3-0.1,0.6-0.2,0.9-0.3c0.1,0,0.1,0,0.1,0.1c0,0.2-0.1,0.4-0.1,0.6
		c0,0.1-0.1,0.1-0.1,0.1C132.1,35.3,131.8,35.1,131.6,34.9C131.5,35,131.5,35,131.6,34.9 M132.8,36.7c-0.1,0.2-0.1,0.4-0.1,0.6
		c0,0.1-0.1,0.1-0.1,0.1c-0.2-0.1-0.5-0.2-0.7-0.4c-0.1,0-0.1-0.1,0-0.1C132.1,36.8,132.4,36.7,132.8,36.7
		C132.8,36.6,132.8,36.7,132.8,36.7 M133.4,35.5C133.4,35.5,133.5,35.5,133.4,35.5c0,0.3,0,0.5-0.1,0.7c0,0.1-0.1,0.1-0.1,0.1
		c-0.2-0.1-0.5-0.2-0.7-0.4c-0.1,0-0.1-0.1,0-0.1C132.8,35.7,133.1,35.6,133.4,35.5 M132.8,34.1c0.3-0.1,0.6-0.2,0.9-0.3
		c0.1,0,0.1,0,0.1,0.1c-0.1,0.2-0.1,0.4-0.1,0.6c0,0.1-0.1,0.1-0.1,0.1C133.3,34.4,133,34.3,132.8,34.1
		C132.7,34.2,132.7,34.1,132.8,34.1 M134.1,33.5c0.3-0.1,0.6-0.2,0.9-0.3c0.1,0,0.1,0,0.1,0.1c-0.1,0.2-0.1,0.4-0.1,0.6
		c0,0.1-0.1,0.1-0.1,0.1C134.7,33.8,134.4,33.7,134.1,33.5L134.1,33.5 M151.4,37.3c0.4,0,0.7,0.3,0.7,0.5c0,0-0.6,0.1-0.9,0.2
		c-0.2,0-0.3,0-0.3-0.2S151,37.3,151.4,37.3 M152.9,37.3c0.1-0.2,0.2-0.3,0.3-0.3c0.2,0,0.4,0.3,0.4,0.4l-0.6,0.1
		C152.8,37.6,152.9,37.5,152.9,37.3 M159.6,42.4c-0.3-0.2-0.5-0.2-0.7-0.3c-0.3-0.1-0.4-0.5-0.5-0.5c-0.2-0.1-0.5,0.3-0.6,0.2
		c-0.1,0-0.2-0.5-0.3-0.6c-0.2-0.1-0.5,0.3-0.6,0.2c-0.1,0-0.2-0.5-0.3-0.6c-0.2-0.1-0.5,0.3-0.6,0.2c-0.1,0-0.2-0.5-0.3-0.6
		c-0.3-0.1-0.5,0.3-0.7,0.3c-0.1,0-0.5-0.1-0.9-0.4c-0.1-0.1-0.4-0.3-0.4-0.3s-0.1,0-0.1,0.2c0.1,0.5,0.9,0.9,1.9,1.1
		c1,0.3,2,0.6,2.6,0.8c0.4,0.2,0.5,0.4,0.4,0.6c-0.1,0.2-0.4,0.2-0.6,0c-0.3-0.1-0.3-0.4-0.5-0.4c-0.2-0.1-0.5,0.4-0.7,0.3
		c-0.2-0.1-0.3-0.5-0.5-0.6c-0.3-0.1-0.6,0.3-0.8,0.3s-0.2-0.6-0.4-0.6c-0.3-0.1-0.6,0.4-0.8,0.3c-0.2,0-0.3-0.6-0.4-0.6
		c-0.3-0.1-0.7,0.3-1.1,0.1c-1.3-0.9-1-1.3-2-1.6c-0.5-0.1-1.1,0-1.5,0.1c-0.9,0.1-0.8-0.7-0.8-0.7c0.3,0.1,0.6,0.2,1.2,0
		c0.7-0.3,1.1-0.3,2,0c0.8,0.3,1.2,0,1.5,0c0.1,0,0.2-0.1,0.5,0.1c0.2,0.2,0.5,0.3,0.6,0.3c0.2-0.1,0.1-0.6,0.4-0.7
		c0.1,0,0.6,0.4,0.7,0.3c0.2-0.1,0.1-0.6,0.4-0.7c0.1,0,0.6,0.4,0.7,0.3c0.2-0.1,0.1-0.6,0.4-0.7c0.1,0,0.6,0.4,0.7,0.3
		c0.2-0.1,0.1-0.6,0.4-0.7c0.1,0,0.6,0.4,0.7,0.3c0.2-0.1,0.2-0.2,0.3-0.6c0-0.1,0.1-0.1,0.2-0.2c0.2-0.2,0.5-0.5,0.3-0.9
		s-0.5-0.3-1.2-0.2c-0.6,0.1-4.4,1-4.4,1c-0.6-1.1-1-0.4-1.9-0.5c-0.6-0.1-1.4-0.6-2.9,0.7c-0.8-0.2-1.4,0-1.9,0.3
		c-0.8-0.3-2.5-1.2-5.5-1.2c-0.9,0-2.9,0.2-6.3,1c-0.8,0.2-1.6,0.2-1.8-0.3s0.5-1.1,1.8-1.7c3.2-1.5,5.3-1.2,9.5-3.4
		c2.3-1.2,2.4-2.6,2.4-3c0-0.2-0.2-0.3-0.4-0.1c-0.8,1.1-1,1-1.2,0.7c-0.3-0.3-0.5,0.2-0.9,0.4c-0.3,0.2-0.3,0-0.5-0.2
		c-0.4-0.2-0.7,0.5-1,0.6c-0.4,0.2-0.4,0-0.5-0.1s-0.2-0.1-0.4,0c-0.7,0.7-0.8,0.6-1.1,0.4c-0.2-0.2-0.2-0.3-0.7,0.2
		c-0.3,0.3-0.7,0.6-0.9,0.3c-0.1-0.3-0.3-0.5-0.9,0.1c-0.4,0.4-0.7,0.4-0.8,0.2s-0.1-0.6-0.7-0.1c-0.6,0.4-0.8,0.7-1,0.3
		s-0.6-0.1-0.9,0.2c-0.2,0.2-0.4,0.5-0.7,0.2c-0.2-0.4-0.6,0-1,0.5c-0.3,0.3-0.4,0.2-0.7,0s-0.6,0.5-1,1c-0.1,0.1-0.2,0.1-0.4,0
		c-0.3-0.2-0.8,0.9-1,1.2c-0.2,0.5-0.5-0.1-0.8,0.3c-0.7,1-1.3,2-1.5,3.9c-0.2,2.2,0.6,4.1,1.4,4.8c0,0-0.1,0.3-0.2,0.6
		c-0.2,0.6-0.3,1.5,0,2c0.3,0.6,1,1.5,1.2,0.6c0.1-0.4,0.2-0.4,0.6-0.1c0.6,0.4,0.5-0.4,0.6-0.6c0.1-0.2,0.2-0.2,0.7,0.1
		c0.3,0.2,0.4-0.1,0.5-0.4c0.3-1.1-0.3-1.4-0.8-1.5c-0.4-0.1-0.8,0-0.8,0c0.8-1.3,0.9-2,0-2.6c0.1-0.1,0.3,0,0.4,0
		c0.2,0.1,0.4,0.3,0.5,0.5s0.3,0.7-0.1,1.6c0.2,0,0.9,0,1.2,0.8c0.4,0.1,3,0.3,4.2,0.2c0.4-0.1,0.6-0.4,1-0.8c0.5-0.4,1-0.9,1.5-0.5
		c-0.8,0.3-1.4,1-1.4,1.8c0,0.6,0.2,0.8,0.7,1.2c0.4,0.3,0.5,0.8,0.6,1.2c0.2,0.5,0.6,0.5,0.6,0c0.1-0.7,0.3-0.5,0.6-0.3
		c0.3,0.3,0.6,0.3,0.6-0.2s0.1-0.7,0.7-0.2c0.2,0.2,0.5,0.2,0.5-0.3c0-0.6,0.3-0.5,0.6-0.3c0.1,0.1,0.2,0.2,0.3,0.1
		c0.3,0,0.4-0.5,0.2-0.9c-0.1-0.2-0.2-0.5-1.6-0.8c-0.4-0.1-0.4-0.4-0.4-0.4c3.2,0.2,6-0.3,7.8-1.4c2.2,0.5,5.5,0.6,6.5,0.6
		c1.1,0,1.9-0.1,2.6-0.4C160.1,43.1,160,42.6,159.6,42.4"/>
	<path class="st0" d="M151.6,39.6c-0.9-0.3-1.3-0.3-2,0c-0.6,0.2-1,0.1-1.2,0c0,0,0,0.7,0.8,0.7c0.4,0,1-0.2,1.5-0.1
		c1,0.3,0.7,0.7,2,1.6c0.4,0.2,0.8-0.2,1.1-0.1c0.1,0.1,0.2,0.6,0.4,0.6s0.5-0.4,0.8-0.3c0.2,0,0.2,0.6,0.4,0.6s0.5-0.4,0.7-0.3
		c0.2,0.1,0.2,0.6,0.5,0.6c0.2,0,0.5-0.4,0.7-0.3c0.2,0,0.2,0.3,0.5,0.4c0.3,0.1,0.5,0.1,0.6,0c0.1-0.2,0-0.4-0.4-0.6
		c-0.6-0.3-1.6-0.6-2.6-0.8c-1-0.3-1.8-0.6-1.9-1.1c0-0.2,0.1-0.2,0.1-0.2c-0.4-0.3-0.5-0.5-0.4-0.7l0,0h-0.1
		C152.8,39.6,152.3,39.9,151.6,39.6"/>
</g>
</svg>
