<?xml version="1.0" encoding="utf-8"?>
<!-- Generator: Adobe Illustrator 23.0.4, SVG Export Plug-In . SVG Version: 6.00 Build 0)  -->
<svg version="1.1" id="Layer_1" xmlns="http://www.w3.org/2000/svg" xmlns:xlink="http://www.w3.org/1999/xlink" x="0px" y="0px"
	 viewBox="0 0 191 78" style="enable-background:new 0 0 191 78;" xml:space="preserve">
<style type="text/css">
	.st0{fill:#919497;}
</style>
<g>
	<rect x="45.3" y="34.1" class="st0" width="2" height="12.9"/>
	<polygon class="st0" points="33.1,34.1 33.1,43.6 26,34.1 24,34.1 24,47 26,47 26,37.5 33.1,47 35.2,47 35.2,34.1 	"/>
	<polygon class="st0" points="66.6,34.1 66.6,43.6 59.4,34.1 57.4,34.1 57.4,47 59.4,47 59.4,37.5 66.6,47 68.6,47 68.6,34.1 	"/>
	<polygon class="st0" points="78.7,34.1 78.7,47 85.6,47 85.6,45 80.7,45 80.7,41.7 85.6,41.7 85.6,39.7 80.7,39.7 80.7,36.2 
		85.6,36.2 85.6,34.1 	"/>
	<polygon class="st0" points="128.6,34.1 128.6,47 135.6,47 135.6,45 130.7,45 130.7,41.7 135.6,41.7 135.6,39.7 130.7,39.7 
		130.7,36.2 135.6,36.2 135.6,34.1 	"/>
	<polygon class="st0" points="157,34.1 157,36.2 161.1,36.2 161.1,47 163.2,47 163.2,36.2 167.2,36.2 167.2,34.1 	"/>
	<polygon class="st0" points="119.7,34.1 117,42 114.4,34.1 112.5,34.1 109.8,42 107.1,34.1 105,34.1 109.6,47 110.1,47 113.4,37.1 
		116.7,47 117.2,47 121.8,34.1 	"/>
	<g>
		<path class="st0" d="M150.1,38v-2.9c0,0-1.4-1.1-3.1-1.1c-1.7,0-3.9,1.3-3.9,3.3s1.4,2.8,2.8,3.8c1.4,0.9,2.2,1.4,2.2,2.3
			s-0.7,1.5-1.9,1.5c-1.7,0-3.1-2-3.1-2V46c0,0,1.4,1,3,1c1.9,0,3.9-1.1,3.9-3.5c0-2.1-2.2-3.2-3.2-3.9c0,0-1.8-0.9-1.8-2.1
			c0-0.8,0.6-1.4,1.8-1.4C149,36.1,150.1,38,150.1,38"/>
	</g>
</g>
</svg>
