<?xml version="1.0" encoding="utf-8"?>
<!-- Generator: Adobe Illustrator 23.0.4, SVG Export Plug-In . SVG Version: 6.00 Build 0)  -->
<svg version="1.1" id="Layer_1" xmlns="http://www.w3.org/2000/svg" xmlns:xlink="http://www.w3.org/1999/xlink" x="0px" y="0px"
	 viewBox="0 0 191 78" style="enable-background:new 0 0 191 78;" xml:space="preserve">
<style type="text/css">
	.st0{fill-rule:evenodd;clip-rule:evenodd;fill:#919497;}
</style>
<g>
	<path class="st0" d="M145,22.1c-1.1,0-2,0.9-2,2s0.9,2,2,2s2-0.9,2-2S146.1,22.1,145,22.1L145,22.1L145,22.1L145,22.1z M145,25.9
		c-1,0-1.8-0.8-1.8-1.8s0.8-1.7,1.8-1.7s1.7,0.8,1.7,1.7C146.8,25.1,146,25.9,145,25.9L145,25.9L145,25.9L145,25.9z"/>
	<path class="st0" d="M146,23.6c0-0.2-0.1-0.4-0.3-0.5s-0.4-0.1-0.5-0.1l0,0h-1v2.2h0.3v-1h0.5l0.6,1h0.3l-0.7-1l0,0
		C145.7,24.2,146,24,146,23.6L146,23.6L146,23.6L146,23.6z M145,24h-0.4v-0.8h0.6l0,0c0.3,0,0.6,0,0.6,0.4C145.8,24,145.3,24,145,24
		L145,24L145,24L145,24z"/>
	<path class="st0" d="M78.3,57l-13-6.3l0,0c-0.3-0.1-0.4-0.5-0.4-0.8l0,0v-3.5l0,0c0-0.2,0.1-0.5,0.4-0.7c1.4-0.9,5.7-3.3,10.1-9.7
		c5.9-8.6,0-15.9-9.2-13.9C58,23.7,49.7,28.2,46,30.6c-3.2,2.2-2.8,4.8-2.9,7.1c0.2,1,0.5,0.9,1.3-0.1c6-5.6,15.2-9.8,16.9-10.5
		C63,26.4,67,24,71.8,25c4.6,1,3.5,7.2,2.1,9.9c-1.5,2.9-5.9,7-7.8,8.1c-0.7,0.4-1,0-1-0.6l0,0l0.3-13.5l0,0c0-0.9-0.4-1.3-1.3-1
		l0,0l-1.4,0.7l0,0c-1,0.6-0.9,0.8-1,1.5l0,0l-0.2,15.6l0,0c0,0.3-0.2,0.6-0.3,0.7l0,0L56.4,49l0,0c-1.1,0.5-0.8,1.3,0,1.6l0,0
		l3.8,1.8l0,0c0.9,0.4,1.2,0.6,1.2,1.5l0,0l-0.1,7.5l0,0c3.4-0.7,3.6-2.3,3.7-3.4l0,0v-2.3l0,0c0.1-0.5,0.4-0.7,0.9-0.6l0,0
		l10.9,5.3l0,0c1,0.4,1.5,0.3,2.2-1C79.6,58.2,79.7,57.6,78.3,57L78.3,57L78.3,57L78.3,57z"/>
	<path class="st0" d="M97.5,37.9c-1.5,0.9-2.2,2.5-1.6,3.6c0.6,1,2.4,1.2,3.9,0.3s2.2-2.5,1.6-3.5C100.7,37.3,99,37.1,97.5,37.9
		L97.5,37.9L97.5,37.9L97.5,37.9z"/>
	<path class="st0" d="M91.8,39.1c-0.4,0.5-1.2,2-1.7,3c-0.4,0.9-1.4,3.1-2.3,3.1c-1,0-1.1-2.5-1.1-3.4s-0.5-1-0.8-1s-1,0.3-1.3,1.3
		c-0.2,0.9-1.4,5-2.8,5c-0.9,0-1.5-2.5-1.5-3.2c0-0.8-0.4-1.4-1.2-1.4c-0.5,0-1.2,0.3-1.5,0.6s-0.3,0.8-1.7,0.5
		c-1.3,0-2.6,0.6-4.1,3.2c-0.9,1.5-1.7,4.4-0.3,5.6c1.3,1.1,3.6-0.9,4.3-1.7c0.7-0.8,1.3-1.4,1.5-1.8c0.3-0.4,0.5-0.4,0.7,0
		c0.1,0.4,0.9,2.2,1.9,2.2s2.2-0.8,3.7-3.4c0.3-0.5,0.7-0.5,0.8,0c0.1,0.4,0.7,1.9,1.7,1.9c0.9,0,2-1.5,2.5-2.4
		c0.4-0.6,0.9-0.3,0.9,0.3s-0.3,14.4-0.3,14.4c0,0.6,0.2,0.8,0.7,0.8l0,0h2l0,0c0.4,0,0.7-0.3,0.7-0.8l0,0L93,39.4l0,0
		C93,38.8,92.4,38.4,91.8,39.1L91.8,39.1L91.8,39.1L91.8,39.1z M76.6,47.9c-0.4,0.7-1.5,2.5-2.4,2.2c-0.5-0.3,0.2-2.1,0.5-2.7
		c0.5-0.9,1.9-2.4,2.6-2.1C77.9,45.6,77,47.2,76.6,47.9L76.6,47.9L76.6,47.9L76.6,47.9z"/>
	<path class="st0" d="M144.9,34.1c-0.2,0.2-0.5,0.4-1.1,0.1c-1.1-0.4-1.2-2.6-1.8-4.5c-0.5-1.7-1.8-1.6-2.2-0.8l0,0l-1.4,2.2l0,0
		c-0.2,0.4-0.8,1.5-1.3,1.5c-0.6,0-0.3-0.9-0.3-1.8c0-0.6-0.4-1.4-1-1.4c-0.7,0-1.5,1.1-2.1,2.4c-0.4,0.9-1.5,4.2-2.8,4.2
		c-0.9,0-0.9-2.5-1-3.2c0-0.8-0.3-1.7-1.1-1.7c-0.5,0-0.9,0.3-1.1,0.6c-0.3,0.3-0.3,0.6-1.3,0.4c-1.3,0-3.5,1.2-5,3.7
		c-0.9,1.5-2,4.8-0.6,5.9c1.3,1.1,3.6-1.4,4.3-2.2c0.7-0.8,1.3-1.4,1.5-1.8c0.3-0.4,0.5-0.4,0.7,0c0.1,0.4,0.9,2.2,1.9,2.2
		s1.8-0.3,3.3-2.9c0.3-0.5,0.8-0.6,0.9-0.2c0.1,0.4,0.2,1.6,1.1,1.6c1.6,0,3.4-3.9,3.9-4.8c0.4-0.8,1.1-0.6,1.3,0
		c0.3,0.9,0.6,3.7,2.4,3.7c1.7,0,2.9-1.9,3.3-2.4C145.8,34.3,145.6,33.6,144.9,34.1L144.9,34.1L144.9,34.1L144.9,34.1z M125.9,36.8
		c-0.4,0.7-1.3,2.2-2.2,1.8c-0.5-0.3,0.1-1.6,0.4-2.2c0.5-0.9,1.9-2.5,2.6-2.1S126.3,36.1,125.9,36.8L125.9,36.8L125.9,36.8
		L125.9,36.8z"/>
	<path class="st0" d="M117.3,34.4c0,0-3.8-2.8-4.9-4c-0.7-0.8-0.2-1.5,0.2-1.8c2.7-1.8,6.9-4.6,8.6-8.9c1.6-4.2-0.9-7.8-2.7-8.3
		c-2.5-0.8-7.7,0.8-10.3,5.7c-1.7,3.1-2.5,4.2-2.7,12.7c0,1.6-0.1,3.5-0.1,5.5s-0.2,7.5-0.4,8.5c-0.9,2.4,1.7,1,2.9,0
		c1.2-0.9,1.1-2.4,1.1-3c0-0.8,0-14.2,0.4-17.2c0.3-1.9,0.5-5.3,2.5-8.3s4-1.8,4.5-1.3s1.3,1.7,0.9,4.3c-0.6,4-5.2,8.3-6.4,9.6
		c-1.2,1.3-0.9,2.5-0.2,3.5c0.5,0.7,1.7,2,2.9,3.2c1.2,1.2,1.1,2.3,0.9,3.1c-0.6,2.4-7.2,9-7.2,9c-1.4,1.5,0,3.9,0.5,4.7
		s1.1,0.5,1.5-0.1c1.6-3,8.6-10.3,8.6-10.3C119.9,38.3,119.1,35.8,117.3,34.4L117.3,34.4L117.3,34.4L117.3,34.4z"/>
</g>
</svg>
